<svg width="122" height="98" viewBox="0 0 122 98" fill="none" xmlns="http://www.w3.org/2000/svg">
<path d="M121.5 65.9425C121.5 67.7425 121.2 69.4425 120.5 71.1425C118.6 76.2425 114.2 80.6425 107.3 84.2425C100.4 87.8425 91.8996 90.3425 81.7996 91.7425L41.3997 97.3425V74.4425L81.6996 68.9425C91.7996 67.5425 100.3 65.0425 107.1 61.5425C109.7 60.1425 112 58.6425 113.9 57.0425C114.8 56.3425 115.6 55.5425 116.3 54.7425C116.4 54.6425 116.6 54.4425 116.7 54.3425C118.2 52.5425 119.4 50.6425 120.1 48.6425C120.4 47.7425 120.7 46.9425 120.8 46.0425C120.8 46.0425 121.3 64.8425 121.3 66.1425L121.5 65.9425Z" fill="#0026B2"/>
<path d="M121 45.8424C120.8 46.7424 120.6 47.5424 120.3 48.4424C119.6 50.4424 118.4 52.3424 116.9 54.1424C116.8 54.2424 116.7 54.4424 116.5 54.5424C115.8 55.3424 115 56.1424 114.1 56.8424C112.2 58.4424 109.9 59.9424 107.3 61.3424C100.5 64.8424 91.8997 67.3424 81.8997 68.7424L41.5996 74.3424L41.0996 73.6424L16.0996 38.5424L15.6996 38.0424L3.29956 20.4424L1.39966 17.7424L3.29956 17.4424L41.8997 12.0424C51.9997 10.6424 62.1997 10.5424 72.3997 11.7424C82.4997 12.9424 91.6996 15.4424 99.6996 19.0424C107.7 22.7424 113.7 27.2424 117.5 32.6424C120.6 37.1424 121.8 41.4424 121.1 45.7424L121 45.8424Z" fill="#3D85F9"/>
<path d="M41.4996 74.3422V97.2422L0.899658 40.3422V40.2422V40.1422L1.29956 17.7422L3.19958 20.4422L15.5996 38.0422L15.9996 38.5422L40.9996 73.7422L41.4996 74.3422Z" fill="#0026B2"/>
<path d="M100.6 35.9427C100.6 37.0427 100.4 38.2427 99.9996 39.3427C98.7996 42.6427 95.8997 45.5427 91.3997 47.8427C86.8997 50.1427 81.2996 51.8427 74.6996 52.7427L48.2996 56.3427V41.3427L74.5996 37.7427C81.1996 36.8427 86.7996 35.1427 91.1996 32.8427C92.8996 31.9427 94.3996 30.9427 95.6996 29.9427C96.2996 29.4427 96.7996 28.9427 97.2996 28.4427C97.2996 28.4427 97.4996 28.2427 97.5996 28.1427C98.5996 26.9427 99.3996 25.7427 99.7996 24.4427C99.9996 23.8427 100.2 23.3427 100.3 22.7427C100.3 22.7427 100.6 35.0427 100.6 35.8427V35.9427Z" fill="#0026B2"/>
<path d="M100.3 22.7426C100.2 23.3426 99.9996 23.8426 99.7996 24.4426C99.2996 25.7426 98.5996 26.9426 97.5996 28.1426C97.5996 28.1426 97.3996 28.3426 97.2996 28.4426C96.7996 28.9426 96.2996 29.4426 95.6996 29.9426C94.4996 31.0426 92.9996 31.9426 91.1996 32.8426C86.7996 35.1426 81.1996 36.8426 74.5996 37.7426L48.2996 41.3426L47.9996 40.9426L31.6996 18.0426L31.4996 17.7426L23.3997 6.24256L22.1996 4.54256L23.3997 4.34255L48.5996 0.842551C55.1996 -0.0574493 61.8996 -0.157446 68.4996 0.642554C75.0996 1.44255 81.0997 3.04256 86.3997 5.44256C91.6997 7.84256 95.5996 10.8426 97.9996 14.3426C100.1 17.2425 100.8 20.1426 100.3 22.9426V22.7426Z" fill="#3D85F9"/>
<path d="M48.2996 41.3424V56.3424L21.7996 19.1424V19.0424L22.0996 4.44238L23.2996 6.14238L31.3997 17.6424L31.6996 17.9424L47.9996 40.9424L48.2996 41.3424Z" fill="#0026B2"/>
<path d="M88.4996 14.0428C90.2996 16.3428 90.7996 18.6428 89.9996 20.7428C89.1996 22.9428 87.3997 24.7428 84.3997 26.2428C81.3997 27.7428 77.6996 28.8427 73.2996 29.4427L55.4996 31.8427L53.3997 29.1427L71.0996 26.7428C73.4996 26.4428 77.0996 25.8428 79.9996 24.2428C80.9996 23.7428 84.0996 22.0427 84.5996 19.3427C84.6996 18.6427 84.8996 16.9428 83.1996 14.7428C81.4996 12.6428 78.6996 10.7428 74.9996 9.54276C69.7996 7.74276 64.8996 7.64275 63.0996 7.64275C60.8996 7.64275 58.7996 7.64276 56.6996 8.04276L38.8997 10.4427L36.7996 7.74275L54.5996 5.34274C58.9996 4.74274 63.5996 4.74275 68.0996 5.24275C72.5996 5.74275 76.6996 6.84274 80.2996 8.34274C83.8996 9.94274 86.5997 11.8427 88.3997 14.1427L88.4996 14.0428Z" fill="white"/>
<path d="M60.3997 26.4428L52.1996 27.5428L50.5996 25.4428L58.7996 24.3428L60.3997 26.4428Z" fill="white"/>
<path d="M55.1996 19.643L46.9996 20.743L45.3997 18.743L53.5996 17.543L55.1996 19.643Z" fill="white"/>
<path d="M49.9996 12.8428L41.7996 13.9428L40.1996 11.9428L48.3997 10.8428L49.9996 12.8428Z" fill="white"/>
<path d="M65.9996 21.9428L49.5996 24.1428L47.9996 22.0428L64.3997 19.8428L65.9996 21.9428Z" fill="white"/>
<path d="M60.7996 15.143L44.3997 17.343L42.7996 15.343L59.1996 13.043L60.7996 15.143Z" fill="white"/>
</svg>
