<svg width="80" height="57" viewBox="0 0 80 57" fill="none" xmlns="http://www.w3.org/2000/svg">
<path d="M79.5996 35.9427C79.5996 37.0427 79.3996 38.2427 78.9996 39.3427C77.7996 42.6427 74.8997 45.5427 70.3997 47.8427C65.8997 50.1427 60.2996 51.8427 53.6996 52.7427L27.2996 56.3427V41.3427L53.5996 37.7427C60.1996 36.8427 65.7996 35.1427 70.1996 32.8427C71.8996 31.9427 73.3996 30.9427 74.6996 29.9427C75.2996 29.4427 75.7996 28.9427 76.2996 28.4427C76.2996 28.4427 76.4996 28.2427 76.5996 28.1427C77.5996 26.9427 78.3996 25.7427 78.7996 24.4427C78.9996 23.8427 79.1996 23.3427 79.2996 22.7427C79.2996 22.7427 79.5996 35.0427 79.5996 35.8427V35.9427Z" fill="#0026B2"/>
<path d="M79.2996 22.7426C79.1996 23.3426 78.9996 23.8426 78.7996 24.4426C78.2996 25.7426 77.5996 26.9426 76.5996 28.1426C76.5996 28.1426 76.3996 28.3426 76.2996 28.4426C75.7996 28.9426 75.2996 29.4426 74.6996 29.9426C73.4996 31.0426 71.9996 31.9426 70.1996 32.8426C65.7996 35.1426 60.1996 36.8426 53.5996 37.7426L27.2996 41.3426L26.9996 40.9426L10.6996 18.0426L10.4996 17.7426L2.39966 6.24256L1.19958 4.54256L2.39966 4.34255L27.5996 0.842551C34.1996 -0.0574493 40.8996 -0.157446 47.4996 0.642554C54.0996 1.44255 60.0997 3.04256 65.3997 5.44256C70.6997 7.84256 74.5996 10.8426 76.9996 14.3426C79.0996 17.2425 79.7996 20.1426 79.2996 22.9426V22.7426Z" fill="#3D85F9"/>
<path d="M27.2996 41.3424V56.3424L0.799561 19.1424V19.0424L1.09961 4.44238L2.29956 6.14238L10.3997 17.6424L10.6996 17.9424L26.9996 40.9424L27.2996 41.3424Z" fill="#0026B2"/>
</svg>
