<svg width="122" height="98" viewBox="0 0 122 98" fill="none" xmlns="http://www.w3.org/2000/svg">
<path d="M121.5 66.5426C121.5 68.3426 121.2 70.0426 120.5 71.7426C118.6 76.8426 114.2 81.2426 107.3 84.8426C100.4 88.4426 91.8996 90.9426 81.7996 92.3426L41.3997 97.9426V75.0426L81.6996 69.5426C91.7996 68.1426 100.3 65.6426 107.1 62.1426C109.7 60.7426 112 59.2426 113.9 57.6426C114.8 56.9426 115.6 56.1426 116.3 55.3426C116.4 55.2426 116.6 55.0426 116.7 54.9426C118.2 53.1426 119.4 51.2426 120.1 49.2426C120.4 48.3426 120.7 47.5426 120.8 46.6426C120.8 46.6426 121.3 65.4426 121.3 66.7426L121.5 66.5426Z" fill="#0026B2"/>
<path d="M121 46.3424C120.8 47.2424 120.6 48.0424 120.3 48.9424C119.6 50.9424 118.4 52.8424 116.9 54.6424C116.8 54.7424 116.7 54.9424 116.5 55.0424C115.8 55.8424 115 56.6424 114.1 57.3424C112.2 58.9424 109.9 60.4424 107.3 61.8424C100.5 65.3424 91.8997 67.8424 81.8997 69.2424L41.5996 74.8424L41.0996 74.1424L16.0996 39.0424L15.6996 38.5424L3.29956 20.9424L1.39966 18.2424L3.29956 17.9424L41.8997 12.5424C51.9997 11.1424 62.1997 11.0424 72.3997 12.2424C82.4997 13.4424 91.6996 15.9424 99.6996 19.5424C107.7 23.2424 113.7 27.7424 117.5 33.1424C120.6 37.6424 121.8 41.9424 121.1 46.2424L121 46.3424Z" fill="#3D85F9"/>
<path d="M41.4996 74.8423V97.8423L0.899658 40.8423V40.6423L1.29956 18.3423L3.19958 20.9423L15.5996 38.5423L15.9996 39.0423L40.9996 74.2423L41.4996 74.8423Z" fill="#0026B2"/>
<path d="M100.6 36.4427C100.6 37.5427 100.4 38.7427 99.9996 39.8427C98.7996 43.1427 95.8997 46.0427 91.3997 48.3427C86.8997 50.6427 81.2996 52.3427 74.6996 53.2427L48.2996 56.8427V41.8427L74.5996 38.2427C81.1996 37.3427 86.7996 35.6427 91.1996 33.3427C92.8996 32.4427 94.3996 31.4427 95.6996 30.4427C96.2996 29.9427 96.7996 29.4427 97.2996 28.9427C97.2996 28.9427 97.4996 28.7427 97.5996 28.6427C98.5996 27.4427 99.3996 26.2427 99.7996 24.9427C99.9996 24.3427 100.2 23.8427 100.3 23.2427C100.3 23.2427 100.6 35.5427 100.6 36.3427V36.4427Z" fill="#0026B2"/>
<path d="M100.3 23.2425C100.2 23.8425 99.9996 24.3425 99.7996 24.9425C99.2996 26.2425 98.5996 27.4426 97.5996 28.6426C97.5996 28.6426 97.3996 28.8425 97.2996 28.9425C96.7996 29.4425 96.2996 29.9425 95.6996 30.4425C94.4996 31.5425 92.9996 32.4425 91.1996 33.3425C86.7996 35.6425 81.1996 37.3425 74.5996 38.2425L48.2996 41.8425L47.9996 41.4425L31.6996 18.5426L31.4996 18.2425L23.3997 6.74254L22.1996 5.04255L23.3997 4.84254L48.5996 1.34254C55.1996 0.442542 61.8996 0.34256 68.4996 1.14256C75.0996 1.94256 81.0997 3.54255 86.3997 5.94255C91.6997 8.34255 95.5996 11.3425 97.9996 14.8425C100.1 17.7425 100.8 20.6425 100.3 23.4425V23.2425Z" fill="#3D85F9"/>
<path d="M48.2996 41.8424V56.8424L21.7996 19.6424V19.5424L22.0996 4.94238L23.2996 6.6424L31.3997 18.1424L31.6996 18.5424L47.9996 41.4424L48.2996 41.8424Z" fill="#0026B2"/>
<path d="M85.7996 15.8426C87.4996 18.1426 87.8996 20.3426 87.0996 22.4426C86.2996 24.5426 84.3996 26.3426 81.4996 27.7426C78.5996 29.1426 74.8996 30.1426 70.4996 30.5426L52.9996 32.4426L50.9996 29.7426L68.4996 27.8426C70.8996 27.6426 74.3996 27.0426 77.2996 25.6426C78.2996 25.1426 81.2997 23.6426 81.8997 20.9426C82.0997 20.3426 82.1996 18.5426 80.5996 16.4426C78.9996 14.3426 76.2996 12.4426 72.6996 11.0426C67.6996 9.14261 62.8996 8.8426 60.9996 8.8426C58.8996 8.7426 56.7996 8.84261 54.6996 9.04261L37.1996 10.9426L35.1996 8.24259L52.6996 6.3426C57.0996 5.8426 61.4997 5.94261 65.8997 6.54261C70.2997 7.14261 74.2996 8.3426 77.7996 9.9426C81.2996 11.5426 83.8996 13.5426 85.5996 15.8426H85.7996Z" fill="white"/>
<path d="M57.8997 27.2426L49.7996 28.0426L48.2996 25.9426L56.3997 25.1426L57.8997 27.2426Z" fill="white"/>
<path d="M52.9996 20.4428L44.8997 21.2428L43.3997 19.1428L51.4996 18.3428L52.9996 20.4428Z" fill="white"/>
<path d="M48.0996 13.6425L39.9996 14.4425L38.4996 12.3425L46.5996 11.5425L48.0996 13.6425Z" fill="white"/>
<path d="M63.4996 22.9428L47.3997 24.6428L45.8997 22.5428L61.9996 20.8428L63.4996 22.9428Z" fill="white"/>
<path d="M58.5996 16.1425L42.4996 17.8425L40.9996 15.7425L57.0996 14.0425L58.5996 16.1425Z" fill="white"/>
</svg>
