<svg width="122" height="98" viewBox="0 0 122 98" fill="none" xmlns="http://www.w3.org/2000/svg">
<path d="M121.5 66.1422C121.5 67.9422 121.2 69.6422 120.5 71.3422C118.6 76.4422 114.2 80.8422 107.3 84.4422C100.4 88.0422 91.8996 90.5422 81.7996 91.9422L41.3997 97.5422V74.6422L81.6996 69.1422C91.7996 67.7422 100.3 65.2422 107.1 61.7422C109.7 60.3422 112 58.8422 113.9 57.2422C114.8 56.5422 115.6 55.7422 116.3 54.9422C116.4 54.8422 116.6 54.6422 116.7 54.5422C118.2 52.7422 119.4 50.8422 120.1 48.8422C120.4 47.9422 120.7 47.1422 120.8 46.2422C120.8 46.2422 121.3 65.0422 121.3 66.3422L121.5 66.1422Z" fill="#0026B2"/>
<path d="M121 45.9425C120.8 46.8425 120.6 47.6424 120.3 48.5424C119.6 50.5424 118.4 52.4425 116.9 54.2425C116.8 54.3425 116.7 54.5425 116.5 54.6425C115.8 55.4425 115 56.2425 114.1 56.9425C112.2 58.5425 109.9 60.0425 107.3 61.4425C100.5 64.9425 91.8997 67.4425 81.8997 68.8425L41.5996 74.4425L41.0996 73.7425L16.0996 38.6425L15.6996 38.1425L3.29956 20.5424L1.39966 17.8425L3.29956 17.5424L41.8997 12.1425C51.9997 10.7425 62.1997 10.6425 72.3997 11.8425C82.4997 13.0425 91.6996 15.5425 99.6996 19.1425C107.7 22.8425 113.7 27.3425 117.5 32.7425C120.6 37.2425 121.8 41.5425 121.1 45.8425L121 45.9425Z" fill="#3D85F9"/>
<path d="M41.4996 74.4424V97.3424L0.899658 40.4424V40.3424V40.2424L1.29956 17.9424L3.19958 20.5424L15.5996 38.1424L15.9996 38.6424L40.9996 73.8424L41.4996 74.4424Z" fill="#0026B2"/>
<path d="M100.6 36.0427C100.6 37.1427 100.4 38.3427 99.9996 39.4427C98.7996 42.7427 95.8997 45.6427 91.3997 47.9427C86.8997 50.2427 81.2996 51.9428 74.6996 52.8428L48.2996 56.4427V41.4427L74.5996 37.8428C81.1996 36.9428 86.7996 35.2427 91.1996 32.9427C92.8996 32.0427 94.3996 31.0427 95.6996 30.0427C96.2996 29.5427 96.7996 29.0427 97.2996 28.5427C97.2996 28.5427 97.4996 28.3427 97.5996 28.2427C98.5996 27.0427 99.3996 25.8427 99.7996 24.5427C99.9996 23.9427 100.2 23.4428 100.3 22.8428C100.3 22.8428 100.6 35.1427 100.6 35.9427V36.0427Z" fill="#0026B2"/>
<path d="M100.3 22.8427C100.2 23.4427 99.9996 23.9426 99.7996 24.5426C99.2996 25.8426 98.5996 27.0426 97.5996 28.2426C97.5996 28.2426 97.3996 28.4426 97.2996 28.5426C96.7996 29.0426 96.2996 29.5426 95.6996 30.0426C94.4996 31.1426 92.9996 32.0427 91.1996 32.9427C86.7996 35.2427 81.1996 36.9427 74.5996 37.8427L48.2996 41.4427L47.9996 41.0426L31.6996 18.1427L31.4996 17.8427L23.3997 6.34268L22.1996 4.64267L23.3997 4.44266L48.5996 0.942657C55.1996 0.0426569 61.8996 -0.0573553 68.4996 0.742645C75.0996 1.54264 81.0997 3.14263 86.3997 5.54263C91.6997 7.94263 95.5996 10.9427 97.9996 14.4427C100.1 17.3427 100.8 20.2426 100.3 23.0426V22.8427Z" fill="#3D85F9"/>
<path d="M48.2996 41.443V56.443L21.7996 19.243V19.143L22.0996 4.54297L23.2996 6.24298L31.3997 17.743L31.6996 18.143L47.9996 41.043L48.2996 41.443Z" fill="#0026B2"/>
<path d="M70.7996 12.9427L68.2996 9.54269C67.6996 8.64269 66.5996 7.9427 65.2996 7.2427C63.8996 6.6427 62.2997 6.24269 60.4997 6.04269C58.6997 5.84269 56.7997 5.84273 54.8997 6.14273C52.9997 6.44273 51.4996 6.94273 50.2996 7.64273C49.0996 8.34273 48.3996 9.14272 48.0996 9.94272C47.7996 10.8427 48.0996 11.7427 48.6996 12.6427L51.1996 16.0427C49.0996 16.9427 48.0996 18.3427 49.0996 19.6427L53.9997 26.3427C55.2997 28.1427 59.3996 29.0427 63.1996 28.4427L77.5996 26.2427C81.3996 25.6427 83.3996 23.7427 82.0996 21.9427L77.1996 15.2427C76.1996 13.9427 73.6997 13.0427 70.8997 12.9427H70.7996ZM50.7996 12.2427C50.4996 11.8427 50.2996 11.4427 50.2996 10.9427C50.2996 10.5427 50.1997 9.64273 51.4997 8.64273C52.4997 7.94273 53.8996 7.44273 55.5996 7.14273C57.2996 6.84273 58.7997 6.94272 59.3997 6.94272C61.6997 7.14272 63.1996 7.74272 63.6996 7.94272C65.0996 8.54272 65.7996 9.2427 66.0996 9.7427L68.3997 12.8427C68.1997 12.8427 68.0997 12.8427 67.8997 12.8427H67.0996C67.0996 12.9427 66.1996 11.7427 66.1996 11.7427L64.4997 12.0427L65.3997 13.2427L64.2996 13.4427L62.1996 10.5427L60.4997 10.8427L62.5996 13.7427L61.4997 13.9427L60.5996 12.7427L58.8997 13.0427L59.7996 14.2427L58.6996 14.4427L56.5996 11.5427L54.8997 11.8427L56.9997 14.7427L55.8997 14.9427L54.9997 13.7427L53.2996 14.0427L54.1996 15.2427H53.2996C53.1996 15.4427 53.0997 15.4427 52.8997 15.4427L50.5996 12.2427H50.7996ZM79.8997 22.3427C80.7997 23.5427 79.3996 24.8427 76.7996 25.3427L62.3997 27.5427C59.7997 27.9427 56.8997 27.2427 55.9997 26.0427L51.0996 19.3427C50.1996 18.1427 51.5996 16.8427 54.1996 16.3427L68.5996 14.1427C71.1996 13.7427 74.0997 14.4427 74.9997 15.6427L79.8997 22.3427Z" fill="white"/>
<path d="M63.2996 17.8425C60.9996 18.2425 59.6996 19.3425 60.4996 20.4425C61.2996 21.5425 62.0997 21.5425 63.3997 21.7425L64.9996 23.9425C65.3996 24.5425 66.7996 24.8425 68.0996 24.6425H68.4996C69.7996 24.3425 70.4996 23.7425 69.9996 23.1425L68.3997 20.9425C69.1997 20.4425 69.3996 19.7425 68.9996 19.0425C68.1996 17.9425 65.5996 17.3425 63.2996 17.7425V17.8425ZM66.7996 20.7425C66.7996 20.7425 66.5996 20.7425 66.4996 20.8425L68.4996 23.4425C68.5996 23.6425 68.4996 23.8425 67.9996 23.9425H67.5996C67.1996 24.0425 66.6996 23.9425 66.4996 23.7425C66.4996 23.7425 64.7996 21.5425 64.4996 21.1425C64.4996 21.1425 64.3996 21.1425 64.2996 21.1425C63.2996 21.1425 62.3996 20.7425 61.9996 20.2425C61.4996 19.5425 62.2996 18.8425 63.7996 18.5425C65.2996 18.2425 66.8997 18.6425 67.3997 19.3425C67.8997 20.0425 67.3996 20.3425 66.6996 20.7425H66.7996Z" fill="white"/>
</svg>
