<svg width="122" height="98" viewBox="0 0 122 98" fill="none" xmlns="http://www.w3.org/2000/svg">
<path d="M121.5 66.442C121.5 68.242 121.2 69.942 120.5 71.642C118.6 76.742 114.2 81.142 107.3 84.742C100.4 88.342 91.8996 90.842 81.7996 92.242L41.3997 97.842V74.942L81.6996 69.442C91.7996 68.042 100.3 65.542 107.1 62.042C109.7 60.642 112 59.142 113.9 57.542C114.8 56.842 115.6 56.042 116.3 55.242C116.4 55.142 116.6 54.942 116.7 54.842C118.2 53.042 119.4 51.142 120.1 49.142C120.4 48.242 120.7 47.442 120.8 46.542C120.8 46.542 121.3 65.342 121.3 66.642L121.5 66.442Z" fill="#0026B2"/>
<path d="M121 46.2423C120.8 47.1423 120.6 47.9423 120.3 48.8423C119.6 50.8423 118.4 52.7423 116.9 54.5423C116.8 54.6423 116.7 54.8423 116.5 54.9423C115.8 55.7423 115 56.5423 114.1 57.2423C112.2 58.8423 109.9 60.3423 107.3 61.7423C100.5 65.2423 91.8997 67.7423 81.8997 69.1423L41.5996 74.7423L41.0996 74.0423L16.0996 38.9423L15.6996 38.4423L3.29956 20.8423L1.39966 18.1423L3.29956 17.8423L41.8997 12.4423C51.9997 11.0423 62.1997 10.9423 72.3997 12.1423C82.4997 13.3423 91.6996 15.8423 99.6996 19.4423C107.7 23.1423 113.7 27.6423 117.5 33.0423C120.6 37.5423 121.8 41.8423 121.1 46.1423L121 46.2423Z" fill="#3D85F9"/>
<path d="M41.4996 74.7422V97.7422L0.899658 40.7422V40.5422L1.29956 18.2422L3.19958 20.8422L15.5996 38.4422L15.9996 38.9422L40.9996 74.1422L41.4996 74.7422Z" fill="#0026B2"/>
<path d="M100.6 36.3426C100.6 37.4426 100.4 38.6426 99.9996 39.7426C98.7996 43.0426 95.8997 45.9426 91.3997 48.2426C86.8997 50.5426 81.2996 52.2426 74.6996 53.1426L48.2996 56.7426V41.7426L74.5996 38.1426C81.1996 37.2426 86.7996 35.5426 91.1996 33.2426C92.8996 32.3426 94.3996 31.3426 95.6996 30.3426C96.2996 29.8426 96.7996 29.3426 97.2996 28.8426C97.2996 28.8426 97.4996 28.6425 97.5996 28.5425C98.5996 27.3425 99.3996 26.1426 99.7996 24.8426C99.9996 24.2426 100.2 23.7426 100.3 23.1426C100.3 23.1426 100.6 35.4426 100.6 36.2426V36.3426Z" fill="#0026B2"/>
<path d="M100.3 23.1425C100.2 23.7425 99.9996 24.2425 99.7996 24.8425C99.2996 26.1425 98.5996 27.3424 97.5996 28.5424C97.5996 28.5424 97.3996 28.7425 97.2996 28.8425C96.7996 29.3425 96.2996 29.8425 95.6996 30.3425C94.4996 31.4425 92.9996 32.3425 91.1996 33.2425C86.7996 35.5425 81.1996 37.2425 74.5996 38.1425L48.2996 41.7425L47.9996 41.3425L31.6996 18.4425L31.4996 18.1425L23.3997 6.64249L22.1996 4.94247L23.3997 4.74246L48.5996 1.24246C55.1996 0.342462 61.8996 0.242449 68.4996 1.04245C75.0996 1.84245 81.0997 3.4425 86.3997 5.8425C91.6997 8.2425 95.5996 11.2425 97.9996 14.7425C100.1 17.6425 100.8 20.5425 100.3 23.3425V23.1425Z" fill="#3D85F9"/>
<path d="M48.2996 41.7427V56.7427L21.7996 19.5427V19.4427L22.0996 4.84277L23.2996 6.54272L31.3997 18.0427L31.6996 18.4427L47.9996 41.3428L48.2996 41.7427Z" fill="#0026B2"/>
<path d="M80.6996 12.242L79.1996 12.542C79.1996 12.542 79.1996 12.442 79.0996 12.442C78.6996 11.842 78.3997 11.342 77.9997 10.742C77.3997 9.84201 76.2996 9.44201 75.0996 9.74201L73.2996 10.142C72.9996 10.142 72.4997 10.142 72.3997 9.84205C72.1997 9.54205 71.9997 9.242 71.8997 9.042C71.3997 8.242 70.2996 7.94204 69.2996 8.14204C68.4996 8.34204 67.5996 8.54204 66.7996 8.64204C65.6996 8.84204 65.3997 9.54202 65.8997 10.442C66.4997 11.442 67.1997 12.442 67.8997 13.442L68.0996 13.742C68.2996 13.842 68.3997 14.042 68.3997 14.242L68.5996 14.542C68.7996 14.842 68.5996 15.042 68.2996 15.142L56.1996 17.842C55.8996 17.842 55.3996 17.842 55.2996 17.542L52.5996 13.542C51.9996 12.742 50.9997 12.342 49.8997 12.542C49.0997 12.742 48.2997 12.842 47.4997 13.042C46.3997 13.242 46.0996 13.942 46.5996 14.842C46.7996 15.142 46.8996 15.342 47.0996 15.642C47.2996 15.942 47.0996 16.142 46.7996 16.242L44.9997 16.642C43.7997 16.942 43.3996 17.542 44.0996 18.542L44.9997 19.942C45.1997 20.242 44.9996 20.442 44.6996 20.542C44.2996 20.542 43.8997 20.742 43.4997 20.842C42.1997 21.142 41.8997 21.942 41.9997 22.842C41.9997 22.842 41.9997 22.942 41.9997 23.042L42.3997 23.642C42.3997 23.642 42.3997 23.742 42.4997 23.842C44.0997 25.042 45.5996 24.942 47.0996 24.542C47.3996 24.542 47.8996 24.542 48.0996 24.842L48.9997 26.142C49.5997 27.042 50.5997 27.442 51.8997 27.142L53.6996 26.742C53.9996 26.742 54.3996 26.742 54.5996 27.042C54.7996 27.342 54.9996 27.542 55.0996 27.842C55.5996 28.642 56.6996 29.042 57.7996 28.842C58.5996 28.642 59.3996 28.542 60.0996 28.342C61.2996 28.042 61.6996 27.442 61.0996 26.442L58.1996 22.042L59.5996 21.742H59.6996C60.5996 21.442 67.7996 19.842 70.7996 19.242C73.7996 18.642 71.5996 19.242 71.6996 19.542C72.2996 20.542 73.7997 22.742 74.3997 23.542C74.9997 24.442 75.9996 24.742 77.1996 24.542C77.7996 24.442 78.3997 24.342 78.9997 24.142C80.2997 23.842 80.8996 22.742 80.1996 21.742L79.9997 21.442C79.7997 21.142 79.9996 20.942 80.2996 20.842L82.0996 20.442C83.2996 20.142 83.5997 19.542 82.9997 18.542L82.0996 17.142C81.8996 16.842 82.0997 16.642 82.3997 16.542L83.2996 16.342C84.8996 15.942 85.4996 14.842 84.7996 13.742C84.0996 12.642 82.2996 12.042 80.6996 12.442V12.242ZM46.3997 22.242C46.5997 22.542 46.3996 22.742 46.0996 22.842C45.6996 22.842 45.2997 23.042 44.8997 23.142C44.3997 23.142 43.9996 23.042 43.6996 22.642C43.4996 22.342 43.6996 21.942 44.0996 21.842C44.4996 21.842 44.8996 21.642 45.2996 21.542C45.5996 21.542 45.9996 21.542 46.1996 21.842L46.4997 22.242H46.3997ZM52.8997 24.542C53.0997 24.842 52.8996 25.042 52.5996 25.142L51.2996 25.442C50.9996 25.442 50.4997 25.442 50.3997 25.142L45.8997 18.242C45.6997 17.942 45.8996 17.742 46.1996 17.642L47.4997 17.342C47.7997 17.342 48.2997 17.342 48.3997 17.642L52.8997 24.542ZM58.9997 26.242C59.1997 26.542 58.9996 26.742 58.6996 26.842L57.3997 27.142C57.0997 27.142 56.5997 27.142 56.4997 26.842L48.4997 14.742C48.2997 14.442 48.4996 14.242 48.7996 14.142L50.0996 13.842C50.3996 13.842 50.7997 13.842 50.9997 14.142L58.9997 26.242ZM78.2996 21.942C78.4996 22.242 78.2997 22.442 77.9997 22.542L76.6996 22.842C76.3996 22.842 75.8996 22.842 75.7996 22.542L67.7996 10.442C67.5996 10.142 67.7996 9.94205 68.0996 9.84205L69.3997 9.542C69.6997 9.542 70.1996 9.54205 70.2996 9.84205L78.2996 21.942ZM80.8997 18.342C81.0997 18.642 80.8996 18.842 80.5996 18.942L79.2996 19.242C78.9996 19.242 78.4997 19.242 78.3997 18.942L73.8997 12.042C73.6997 11.742 73.8996 11.542 74.1996 11.442L75.4997 11.142C75.7997 11.142 76.1997 11.142 76.3997 11.442L80.8997 18.342ZM82.5996 14.742C82.1996 14.742 81.8997 14.942 81.4997 14.942C81.1997 14.942 80.7996 14.942 80.5996 14.642L80.2996 14.242C80.0996 13.942 80.2996 13.742 80.5996 13.642C80.9996 13.642 81.2996 13.442 81.6996 13.442C82.1996 13.442 82.7997 13.542 82.9997 13.942C83.1997 14.342 82.9996 14.642 82.5996 14.742Z" fill="white"/>
</svg>
