<svg width="122" height="87" viewBox="0 0 122 87" fill="none" xmlns="http://www.w3.org/2000/svg">
<path d="M121.5 54.7427C121.5 56.5427 121.2 58.2427 120.5 59.9427C118.6 65.0427 114.2 69.4427 107.3 73.0427C100.4 76.6427 91.8996 79.1427 81.7996 80.5427L41.3997 86.1428V63.2427L81.6996 57.7427C91.7996 56.3427 100.3 53.8428 107.1 50.3428C109.7 48.9428 112 47.4428 113.9 45.8428C114.8 45.1428 115.6 44.3427 116.3 43.5427C116.4 43.4427 116.6 43.2428 116.7 43.1428C118.2 41.3428 119.4 39.4427 120.1 37.4427C120.4 36.5427 120.7 35.7428 120.8 34.8428C120.8 34.8428 121.3 53.6427 121.3 54.9427L121.5 54.7427Z" fill="#0026B2"/>
<path d="M41.4996 63.1425V86.0425L0.899658 29.1425V29.0425V28.9425L1.29956 6.54248L3.19958 9.24249L15.5996 26.8425L15.9996 27.3425L40.9996 62.5425L41.4996 63.1425Z" fill="#0026B2"/>
<path d="M121 35.4425C120.8 36.3425 120.6 37.1425 120.3 38.0425C119.6 40.0425 118.4 41.9425 116.9 43.7425C116.8 43.8425 116.7 44.0425 116.5 44.1425C115.8 44.9425 115 45.7425 114.1 46.4425C112.2 48.0425 109.9 49.5425 107.3 50.9425C100.5 54.4425 91.8997 56.9425 81.8997 58.3425L41.5996 63.9425L41.0996 63.2425L16.0996 28.1425L15.6996 27.6425L3.29956 10.0425L1.39966 7.34251L3.29956 7.04246L41.8997 1.6425C51.9997 0.242498 62.1997 0.14248 72.3997 1.34248C82.4997 2.54248 91.6996 5.0425 99.6996 8.6425C107.7 12.3425 113.7 16.8425 117.5 22.2425C120.6 26.7425 121.8 31.0425 121.1 35.3425L121 35.4425Z" fill="#3D85F9"/>
<path d="M104.5 29.0423C104.4 29.6423 104.2 30.2424 104 30.8424C103.5 32.2424 102.7 33.4424 101.7 34.6424C101.7 34.6424 101.5 34.8424 101.4 34.9424C100.9 35.4424 100.4 36.0423 99.7996 36.5423C98.4996 37.6423 96.9996 38.6423 95.1996 39.5423C90.5996 41.9423 84.7996 43.6423 77.9996 44.5423L50.7996 48.3424L50.4996 47.8424L33.5996 24.1424L33.2996 23.7423L24.8997 11.8424L23.5996 10.0423L24.8997 9.84238L50.9996 6.14236C57.7996 5.24236 64.6996 5.14235 71.5996 5.94235C78.3996 6.74235 84.5996 8.44235 89.9996 10.9424C95.3996 13.4424 99.4996 16.5424 102 20.1424C104.1 23.1424 104.9 26.1424 104.4 28.9424L104.5 29.0423Z" fill="#0026B2"/>
<path d="M103.4 28.8427C103.3 29.4427 103.1 29.9426 102.9 30.5426C102.4 31.8426 101.7 33.0426 100.7 34.2426C100.7 34.2426 100.5 34.4426 100.4 34.5426C99.8997 35.0426 99.3996 35.5426 98.7996 36.0426C97.5996 37.1426 96.0996 38.0427 94.2996 38.9427C89.8996 41.2427 84.2996 42.9427 77.6996 43.8427L51.3997 47.4427L51.0996 47.0426L34.7996 24.1427L34.5996 23.8427L26.4996 12.3427L25.2996 10.6427L26.4996 10.4427L51.6996 6.94266C58.2996 6.04266 64.9996 5.94264 71.5996 6.74264C78.1996 7.54264 84.1996 9.14263 89.4996 11.5426C94.7996 13.9426 98.6996 16.9427 101.1 20.4427C103.2 23.3427 103.9 26.2426 103.4 29.0426V28.8427Z" fill="#3D85F9"/>
<path d="M92.3997 21.1424C94.4997 23.9424 95.0996 26.5424 94.1996 29.1424C93.3996 31.7424 91.1996 33.9424 87.7996 35.7424C84.3996 37.5424 80.0996 38.8424 74.9996 39.5424L54.4996 42.3424L51.9996 39.0424L72.4996 36.2424C75.2996 35.9424 79.3996 35.1424 82.7996 33.2424C83.8996 32.6424 87.4996 30.6424 88.0996 27.4424C88.2996 26.6424 88.3997 24.5424 86.3997 21.9424C84.3997 19.3424 81.1997 17.2424 76.8997 15.6424C70.8997 13.4424 65.1996 13.3424 63.0996 13.2424C60.5996 13.2424 58.0996 13.2424 55.6996 13.6424L35.1996 16.4424L32.7996 13.1424L53.2996 10.3424C58.3996 9.64244 63.6997 9.6424 68.8997 10.2424C74.0997 10.8424 78.8996 12.1424 82.9996 14.0424C87.1996 15.9424 90.3997 18.2424 92.3997 21.0424V21.1424Z" fill="white"/>
<path d="M60.0996 35.8428L50.6996 37.1428L48.7996 34.6428L58.1996 33.3428L60.0996 35.8428Z" fill="white"/>
<path d="M53.9996 27.7422L44.5996 28.9422L42.6996 26.4422L52.1996 25.2422L53.9996 27.7422Z" fill="white"/>
<path d="M47.9996 19.5425L38.4996 20.8425L36.5996 18.3425L46.0996 17.0425L47.9996 19.5425Z" fill="white"/>
<path d="M66.4996 30.4424L47.5996 33.0424L45.7996 30.5424L64.5996 27.9424L66.4996 30.4424Z" fill="white"/>
<path d="M60.3997 22.3423L41.4996 24.9423L39.6996 22.4423L58.5996 19.8423L60.3997 22.3423Z" fill="white"/>
</svg>
