<svg xmlns:xlink="http://www.w3.org/1999/xlink" xmlns="http://www.w3.org/2000/svg" width="137" height="136" fill="none"><g clip-path="url(#a)"><g opacity=".8"><path fill="url(#b)" d="m57.117 54.379 6.11 16.678-41.89 29.991-7.784-21.253-7.786-21.253z"/><path fill="url(#c)" d="m79.989 64.986-16.68 6.11 4.165 51.35 21.253-7.786 21.253-7.785z"/><path fill="url(#d)" d="m57.42 53.727 16.678-6.11-4.164-51.35-21.253 7.785-21.253 7.785z"/><path fill="url(#e)" d="m80.291 64.334-6.11-16.679 41.889-29.991 7.786 21.253 7.785 21.253z"/></g><path fill="#B78900" d="M59.46 87.738h17.513l7.96 22.1H51.5z"/><path fill="#B78900" d="M47.935 104.541h40.141v5.097H47.935z"/><g clip-path="url(#f)"><path fill="#F7C325" fill-rule="evenodd" d="m105.365 65.72-.001.004c-1.257 7.467-6.661 10.69-9.745 11.924-7.183 2.875-15.017 8.736-19.494 14.114-1.679 2.017-6.529 6.071-14.06 4.806-7.53-1.264-10.79-6.683-11.718-9.135-2.474-6.545-7.964-14.644-13.814-19.708-2.512-2.17-6.567-6.981-5.316-14.45v-.003l.001-.006c1.257-7.467 6.662-10.69 9.746-11.923 7.183-2.876 15.017-8.737 19.494-14.115 1.678-2.017 6.528-6.071 14.059-4.806s10.79 6.683 11.718 9.135C88.71 38.102 94.2 46.2 100.05 51.265c2.512 2.174 6.567 6.984 5.316 14.453z" clip-rule="evenodd"/><path fill="url(#g)" fill-rule="evenodd" d="m105.365 65.72-.001.004c-1.257 7.467-6.661 10.69-9.745 11.924-7.183 2.875-15.017 8.736-19.494 14.114-1.679 2.017-6.529 6.071-14.06 4.806-7.53-1.264-10.79-6.683-11.718-9.135-2.474-6.545-7.964-14.644-13.814-19.708-2.512-2.17-6.567-6.981-5.316-14.45v-.003l.001-.006c1.257-7.467 6.662-10.69 9.746-11.923 7.183-2.876 15.017-8.737 19.494-14.115 1.678-2.017 6.528-6.071 14.059-4.806s10.79 6.683 11.718 9.135C88.71 38.102 94.2 46.2 100.05 51.265c2.512 2.174 6.567 6.984 5.316 14.453z" clip-rule="evenodd"/><path fill="#F7C325" fill-rule="evenodd" d="M36.766 54.199c.97-5.758 4.838-8.548 7.507-9.8l55.329 14.825c.425 1.607.567 3.461.215 5.563v.002l-.001.003c-1.069 6.35-5.664 9.09-8.287 10.14-4.376 1.75-9.036 4.805-12.727 8.078L36.753 58.733c-.236-1.354-.267-2.863.012-4.527v-.002z" clip-rule="evenodd"/><path fill="#fff" d="M85.703 49.263a7.52 7.52 0 0 0-6.17-8.66l-15.907-2.671a7.52 7.52 0 0 0-8.66 6.17L53.208 54.57l30.737 5.161z"/><path fill="#000" d="M63.464 48.248 76.876 50.5l1.69-10.06-13.413-2.252z"/></g><path fill="#000" d="M40.926 109.638h54.796v19.752H40.926z"/><path fill="#000" d="M34.554 129.39h67.539v6.372H34.554z"/><path fill="#F7C325" d="m15.517 23.138 3.877 8.307 8.306 3.877-8.306 3.876-3.877 8.307-3.877-8.307-8.306-3.876 8.306-3.877zm103.7 48.167 4.237 9.079 9.079 4.237-9.079 4.238-4.237 9.079-4.238-9.08-9.079-4.237 9.079-4.237z" opacity=".5"/></g><defs><linearGradient id="b" x1="60.172" x2="13.553" y1="62.718" y2="79.795" gradientUnits="userSpaceOnUse"><stop offset=".33" stop-color="#F9D25C"/><stop offset=".73" stop-color="#FDEBB7" stop-opacity=".403"/><stop offset="1" stop-color="#FFFCF4" stop-opacity="0"/></linearGradient><linearGradient id="c" x1="71.649" x2="88.727" y1="68.041" y2="114.66" gradientUnits="userSpaceOnUse"><stop offset=".33" stop-color="#F9D25C"/><stop offset=".82" stop-color="#FCEAB1" stop-opacity=".44"/><stop offset="1" stop-color="#FFFCF4" stop-opacity="0"/></linearGradient><linearGradient id="d" x1="65.759" x2="48.681" y1="50.672" y2="4.052" gradientUnits="userSpaceOnUse"><stop offset=".33" stop-color="#F9D25C"/><stop offset=".775" stop-color="#FDEFC7" stop-opacity=".299"/><stop offset="1" stop-color="#FFFCF4" stop-opacity="0"/></linearGradient><linearGradient id="e" x1="77.236" x2="123.856" y1="55.995" y2="38.917" gradientUnits="userSpaceOnUse"><stop offset=".33" stop-color="#F9D25C"/><stop offset=".77" stop-color="#FDEEC0" stop-opacity=".343"/><stop offset="1" stop-color="#FFFCF4" stop-opacity="0"/></linearGradient><linearGradient id="g" x1="76.72" x2="64.518" y1="25.766" y2="100.139" gradientUnits="userSpaceOnUse"><stop stop-color="#BA921C"/><stop offset=".815" stop-color="#DAAB21" stop-opacity="0"/></linearGradient><clipPath id="a"><path fill="#fff" d="M.5 0h136v136H.5z"/></clipPath><clipPath id="f"><path fill="#fff" d="m37.476 16.003 74.147 12.451-12.451 74.147L25.025 90.15z"/></clipPath></defs></svg>