<svg width="301" height="301" viewBox="0 0 301 301" fill="none" xmlns="http://www.w3.org/2000/svg">
<g clip-path="url(#clip0_176_1280)">
<path fill-rule="evenodd" clip-rule="evenodd" d="M149.981 269.289C147.351 269.289 145.621 267.282 145.621 265.137V171.988H95.3789C92.6107 171.988 90.3962 169.081 91.5035 166.106L144.652 28.5277C146.313 24.237 152.957 25.3443 152.957 29.981V132.957H205.621C208.389 132.957 211.019 135.794 209.497 139.047L153.926 266.59C153.164 268.32 151.711 269.289 149.981 269.289ZM207.351 239.047C203.13 239.047 201.33 233.51 204.86 231.227C231.711 213.164 247.836 182.922 247.836 150.465C247.836 115.102 228.528 82.7145 197.593 65.3443C192.818 62.5761 196.694 55.3097 201.746 57.801C235.379 76.6246 256.348 111.988 256.348 150.465C256.348 185.829 238.77 218.562 209.773 238.285C209.012 238.77 208.32 239.047 207.351 239.047ZM91.5035 237.593C90.4654 237.593 89.7734 237.317 89.0121 236.832C61.2612 217.109 44.6522 184.86 44.6522 150.465C44.6522 113.926 63.199 80.5 94.1332 60.9844C98.9083 58.0087 103.476 65.4135 98.5623 68.3201C70.2578 86.1055 53.1644 116.832 53.1644 150.465C53.1644 181.953 68.3201 211.711 93.9256 229.981C97.3858 232.542 95.5865 237.593 91.5035 237.593ZM150.465 300.5C67.8356 300.5 0.5 233.164 0.5 150.465C0.5 67.8356 67.8356 0.5 150.465 0.5C233.164 0.5 300.5 67.8356 300.5 150.465C300.5 233.164 233.164 300.5 150.465 300.5ZM150.465 9.01211C72.4723 9.01211 9.01211 72.4723 9.01211 150.465C9.01211 228.528 72.4723 291.988 150.465 291.988C228.528 291.988 291.988 228.528 291.988 150.465C291.988 72.4723 228.528 9.01211 150.465 9.01211ZM101.746 163.407H149.981C152.472 163.407 154.133 165.344 154.133 167.836V244.652L199.047 141.746H148.528C146.106 141.746 144.168 139.739 144.168 137.317V52.9567L101.746 163.407Z" fill="#52050D"/>
<path fill-rule="evenodd" clip-rule="evenodd" d="M152.956 132.956H205.621C208.389 132.956 211.019 135.793 209.496 139.046L153.925 266.589C153.164 268.319 151.711 269.288 149.981 269.288C147.351 269.288 145.621 267.281 145.621 265.136V171.987H95.3785C92.6103 171.987 90.3958 169.08 91.5031 166.104L144.652 28.5266C146.313 24.2359 152.956 25.3432 152.956 29.9798V132.956ZM197.593 65.3432C192.818 62.575 196.693 55.3086 201.745 57.7999C235.379 76.6235 256.347 111.987 256.347 150.464C256.347 185.828 238.77 218.561 209.773 238.284C209.012 238.769 208.32 239.046 207.351 239.046C203.129 239.046 201.33 233.509 204.859 231.226C231.711 213.163 247.835 182.921 247.835 150.464C247.835 115.101 228.527 82.7134 197.593 65.3432ZM53.164 150.464C53.164 181.952 68.3197 211.71 93.9252 229.98C97.3854 232.54 95.5861 237.592 91.5031 237.592C90.465 237.592 89.773 237.316 89.0117 236.831C61.2609 217.108 44.6519 184.859 44.6519 150.464C44.6519 113.924 63.1986 80.4989 94.1328 60.9833C98.9079 58.0075 103.475 65.4124 98.5619 68.319C70.2574 86.1044 53.164 116.831 53.164 150.464ZM9.01172 150.464C9.01172 228.527 72.4719 291.987 150.465 291.987C228.527 291.987 291.988 228.527 291.988 150.464C291.988 72.4712 228.527 9.01099 150.465 9.01099C72.4719 9.01099 9.01172 72.4712 9.01172 150.464Z" fill="#FF4500"/>
<path fill-rule="evenodd" clip-rule="evenodd" d="M144.168 137.316V52.9563L101.746 163.406H149.981C152.473 163.406 154.134 165.344 154.134 167.835V244.652L199.047 141.745H148.528C146.106 141.745 144.168 139.738 144.168 137.316Z" fill="#FFD300"/>
</g>
<defs>
<clipPath id="clip0_176_1280">
<rect width="300" height="300" fill="white" transform="translate(0.5 0.5)"/>
</clipPath>
</defs>
</svg>
