<svg width="301" height="300" viewBox="0 0 301 300" fill="none" xmlns="http://www.w3.org/2000/svg">
<g clip-path="url(#clip0_176_1285)">
<path d="M296.043 150.001C296.043 230.384 230.88 295.547 150.497 295.547C70.1158 295.547 4.95312 230.384 4.95312 150.001C4.95312 69.6197 70.1158 4.45703 150.497 4.45703C230.88 4.45703 296.043 69.6197 296.043 150.001Z" fill="#F9D026"/>
<path d="M211.588 60.1737L60.6747 211.087C48.8094 193.683 41.8789 172.653 41.8789 150.001C41.8789 90.013 90.5071 41.3779 150.502 41.3779C173.154 41.3779 194.184 48.3085 211.588 60.1737Z" fill="#E6E6E6"/>
<path d="M259.12 149.998C259.12 209.986 210.489 258.621 150.501 258.621C127.844 258.621 106.815 251.691 89.4082 239.825L107.385 221.849L195.566 133.675L240.328 88.9121C252.187 106.316 259.12 127.346 259.12 149.998Z" fill="#E6E6E6"/>
<path d="M121.222 150.534L88.9432 182.813C81.0536 138.783 104.049 91.4707 104.049 91.4707C104.049 123.086 116.299 143.576 121.222 150.534Z" fill="#FF3131"/>
<path d="M176.406 95.3514L123.166 148.592C123.482 89.8262 169.801 54.0405 169.801 54.0405C168.688 68.7027 171.565 82.3898 176.406 95.3514Z" fill="#FF3131"/>
<path d="M212.19 194.823C203.541 240.892 138.568 254.952 107.381 221.851L195.562 133.677C200.334 141.969 205.038 150.03 208.959 157.95C214.674 169.474 214.514 182.454 212.19 194.823Z" fill="#FF3131"/>
<path d="M256.566 43.9339C228.235 15.6029 190.566 0 150.5 0C95.55 0 45.0564 29.995 18.7281 78.2799C17.5517 80.4382 18.3459 83.1459 20.5066 84.3246C22.6695 85.5034 25.3749 84.7046 26.5536 82.5462C51.3186 37.1246 98.8116 8.91037 150.5 8.91037C188.185 8.91037 223.616 23.5863 250.265 50.235C276.914 76.8837 291.59 112.315 291.59 150C291.59 187.685 276.914 223.116 250.265 249.765C223.616 276.414 188.185 291.09 150.5 291.09C112.815 291.09 77.3837 276.414 50.735 249.765C24.0863 223.116 9.41037 187.685 9.41037 150C9.41037 132.115 12.7154 114.681 19.2271 98.1834C20.1312 95.8946 19.0097 93.306 16.7186 92.4019C14.4343 91.5001 11.8434 92.6216 10.9393 94.9104C4.01334 112.457 0.5 130.989 0.5 150C0.5 190.066 16.1029 227.735 44.4339 256.066C72.7649 284.397 110.434 300 150.5 300C190.566 300 228.235 284.397 256.566 256.066C284.897 227.735 300.5 190.066 300.5 150C300.5 109.934 284.897 72.2649 256.566 43.9339Z" fill="#050C0D"/>
<path d="M214.098 56.4908C195.314 43.6894 173.323 36.9214 150.501 36.9214C88.149 36.9214 37.4219 87.6485 37.4219 150C37.4219 172.822 44.1899 194.813 56.9913 213.598C57.7374 214.694 58.9345 215.399 60.2551 215.522C60.3947 215.536 60.5344 215.543 60.6717 215.543C61.8481 215.543 62.9834 215.078 63.8234 214.238L214.739 63.3229C215.677 62.3845 216.147 61.0776 216.023 59.7569C215.899 58.4363 215.194 57.2392 214.098 56.4908ZM101.159 111.04C104.184 129.582 110.943 142.784 115.491 149.968L92.1819 173.278C90.1494 149.962 95.9927 126.453 101.159 111.04ZM128.318 137.142C131.037 113.443 141.284 94.4669 150.059 82.1072C155.516 74.4214 161.007 68.3858 165.195 64.2247C165.619 73.9087 167.628 83.8147 171.258 94.2014L128.318 137.142ZM178.319 87.1404C174.788 75.6963 173.446 64.9182 174.245 54.3782C174.378 52.6227 173.465 50.9541 171.915 50.121C170.366 49.2856 168.47 49.4389 167.077 50.517C166.582 50.8992 154.841 60.0568 142.975 76.6942C133.197 90.4042 121.724 111.72 119.217 138.499C114.155 128.518 108.506 112.647 108.506 91.4731C108.506 89.3971 107.073 87.5981 105.05 87.1312C103.026 86.6666 100.953 87.6599 100.044 89.5253C99.0964 91.4777 77.2771 137.055 84.1733 181.286L61.427 204.033C51.5347 187.777 46.3322 169.211 46.3322 150C46.3322 92.5626 93.0631 45.8318 150.501 45.8318C169.711 45.8318 188.278 51.0342 204.533 60.9265L178.319 87.1404Z" fill="#050C0D"/>
<path d="M84.9725 240.245C85.0961 241.567 85.8034 242.765 86.8997 243.511C105.682 256.314 127.677 263.08 150.501 263.08C212.849 263.08 263.574 212.353 263.574 150.001C263.574 127.184 256.808 105.193 244.011 86.4062C243.263 85.3099 242.068 84.6026 240.745 84.479C239.415 84.3532 238.115 84.8246 237.177 85.7631L86.2566 236.679C85.3204 237.617 84.8489 238.924 84.9725 240.245ZM107.421 228.116C119.151 238.725 135.127 244.456 151.824 244.456C158.734 244.456 165.768 243.476 172.675 241.451C196.065 234.598 212.476 217.475 216.573 195.645C218.237 186.78 218.591 178.982 217.658 171.804C217.342 169.364 215.106 167.646 212.666 167.961C210.226 168.277 208.505 170.513 208.823 172.953C209.633 179.188 209.303 186.073 207.816 194.001C204.348 212.467 190.276 227.008 170.169 232.9C149.691 238.901 128.048 234.527 113.734 221.804L194.605 140.937C197.873 146.625 200.963 152.075 203.746 157.495C204.534 159.033 206.095 159.916 207.713 159.916C208.397 159.916 209.093 159.758 209.743 159.424C211.933 158.3 212.796 155.616 211.672 153.427C208.457 147.161 204.897 140.951 201.13 134.412L239.575 95.9689C249.463 112.229 254.663 130.796 254.663 150.001C254.663 207.439 207.937 254.17 150.501 254.17C131.289 254.17 112.72 248.967 96.4624 239.075L107.421 228.116Z" fill="#050C0D"/>
</g>
<defs>
<clipPath id="clip0_176_1285">
<rect width="300" height="300" fill="white" transform="translate(0.5)"/>
</clipPath>
</defs>
</svg>
