<svg xmlns:xlink="http://www.w3.org/1999/xlink" xmlns="http://www.w3.org/2000/svg" width="64" height="65" fill="none"><g clip-path="url(#a)"><path fill="#B3B3B3" d="m17.306 24.546 14.25 17.134 14.468-17.134-5.67-5.671H22.976z"/><path fill="#fff" d="m22.906 18.896-4.851 4.937h9.256zM40.528 18.896l4.85 4.937h-9.256z"/><path fill="#fff" d="m31.717 18.896 4.85 4.937h-9.256z"/><path fill="#fff" d="m31.602 41.76-4.29-17.927h8.81z"/><path fill="#000" d="m18.75 32.893 5.031 1.908v-3.999zM28.812 32.893l-5.03 1.908v-3.999z"/><path fill="#000" d="m23.69 25.86-1.908 6.942h3.998zM23.69 39.744l-1.908-6.942h3.998z"/><path fill="#B3B3B3" d="m39.48 36.47 2.64 1.001v-2.097z"/><path fill="#B3B3B3" d="m44.759 36.47-2.64 1.001v-2.097z"/><path fill="#B3B3B3" d="m42.072 32.78-1.001 3.642h2.098z"/><path fill="#B3B3B3" d="m42.072 40.064-1.001-3.642h2.098z"/><path fill="#B78900" d="m58.33 21.755-10.95-10.6H15.95L5 21.754v21.904l16.284 15.933h20.762L58.33 43.66z"/><path fill="#EEA71F" d="M58.33 13.934 50.046 6H13.284L5 13.934v24.57l16.284 15.934h20.762L58.33 38.504z"/><path fill="#000" d="m53.084 16.614-6.13-5.849H16.376l-6.13 5.849v20.26l13.08 12.8h16.678l13.08-12.8z" opacity=".3"/></g><path fill="#F7C325" fill-rule="evenodd" d="M35.183 14.375H28.7l-4.56 4.56v5.378h-2.229l-1.464 16.624h22.964l-1.464-16.624h-2.204v-5.378zm1.047 9.938V20.39l-2.502-2.501h-3.572l-2.502 2.501v3.922z" clip-rule="evenodd"/><path fill="#000" fill-rule="evenodd" d="m34.654 28.625-2.726-1.312-2.726 1.312-.673 2.95 1.787 2.24-1.462 4.094H35l-1.46-4.091 1.788-2.243z" clip-rule="evenodd"/><defs><clipPath id="a"><path fill="#fff" d="M5 6h53.33v53.33H5z"/></clipPath></defs></svg>