<svg width="301" height="301" viewBox="0 0 301 301" fill="none" xmlns="http://www.w3.org/2000/svg">
<path d="M251.842 120.63C252.621 123.279 255.404 124.794 258.05 124.015C260.699 123.235 262.215 120.457 261.435 117.807C247.396 70.0963 203.235 34.8759 150.499 34.8759C86.7434 34.8759 34.875 86.7449 34.875 150.5C34.875 214.255 86.7434 266.124 150.499 266.124C214.255 266.124 266.124 214.255 266.124 150.5C266.124 147.739 263.885 145.5 261.124 145.5C258.362 145.5 256.124 147.739 256.124 150.5C256.124 208.742 208.741 256.124 150.499 256.124C92.2578 256.124 44.8749 208.742 44.8749 150.5C44.8749 92.2586 92.2578 44.8758 150.499 44.8758C197.043 44.8752 238.717 76.0269 251.842 120.63Z" fill="#050C0D"/>
<path d="M295.502 145.498H280.502C277.741 145.498 275.502 147.737 275.502 150.498C275.502 153.259 277.741 155.498 280.502 155.498H295.502C298.263 155.498 300.502 153.259 300.502 150.498C300.502 147.737 298.263 145.498 295.502 145.498Z" fill="#050C0D"/>
<path d="M5.49997 155.498H20.4999C23.2611 155.498 25.4998 153.259 25.4998 150.498C25.4998 147.736 23.2611 145.498 20.4999 145.498H5.49997C2.73874 145.498 0.5 147.736 0.5 150.498C0.5 153.259 2.73874 155.498 5.49997 155.498Z" fill="#050C0D"/>
<path d="M81.1708 40.4186C82.5533 42.8136 85.6114 43.628 88.0008 42.2486C90.392 40.868 91.212 37.8099 89.8308 35.4187L76.0809 11.6032C74.7009 9.21259 71.6434 8.39197 69.2509 9.77321C66.8597 11.1538 66.0397 14.2119 67.4209 16.6032L81.1708 40.4186Z" fill="#050C0D"/>
<path d="M219.831 260.583C218.451 258.192 215.393 257.372 213.001 258.753C210.61 260.134 209.79 263.192 211.171 265.583L224.921 289.398C225.846 291.002 227.527 291.899 229.256 291.899C233.06 291.899 235.517 287.751 233.581 284.398L219.831 260.583Z" fill="#050C0D"/>
<path d="M88.0006 258.753C85.6094 257.372 82.5507 258.191 81.1707 260.583L67.4207 284.398C65.487 287.746 67.937 291.899 71.7457 291.899C73.4738 291.899 75.1544 291.002 76.0807 289.398L89.8306 265.583C91.2118 263.191 90.3919 260.133 88.0006 258.753Z" fill="#050C0D"/>
<path d="M213.001 42.2485C215.381 43.6235 218.444 42.8204 219.831 40.4185L233.581 16.603C234.962 14.2118 234.142 11.1537 231.751 9.77307C229.359 8.39245 226.301 9.21182 224.921 11.6031L211.171 35.4185C209.79 37.8098 210.609 40.8679 213.001 42.2485Z" fill="#050C0D"/>
<path d="M297.996 229.882L265.579 211.167C263.188 209.786 260.13 210.606 258.749 212.997C257.368 215.388 258.188 218.446 260.579 219.827L292.996 238.542C295.376 239.917 298.439 239.114 299.826 236.712C301.207 234.321 300.387 231.263 297.996 229.882Z" fill="#050C0D"/>
<path d="M3.00064 71.1129L35.4173 89.8284C37.7979 91.2034 40.8604 90.4003 42.2473 87.9984C43.6285 85.6072 42.8085 82.5491 40.4173 81.1684L8.00061 62.4529C5.60937 61.0717 2.55127 61.8911 1.17065 64.2829C-0.209966 66.6742 0.609404 69.7323 3.00064 71.1129Z" fill="#050C0D"/>
<path d="M265.579 89.8315L297.996 71.116C300.387 69.7354 301.207 66.6773 299.826 64.2861C298.446 61.8954 295.388 61.0748 292.996 62.4561L260.579 81.1716C258.188 82.5522 257.368 85.6103 258.749 88.0015C260.132 90.3959 263.19 91.2103 265.579 89.8315Z" fill="#050C0D"/>
<path d="M35.4182 211.171L3.00092 229.886C0.609682 231.267 -0.210313 234.325 1.17093 236.716C2.55342 239.111 5.61153 239.925 8.00089 238.546L40.4176 219.831C42.8088 218.45 43.6288 215.392 42.2475 213.001C40.8676 210.61 37.8101 209.79 35.4182 211.171Z" fill="#050C0D"/>
<path d="M150.5 25.5C153.261 25.5 155.5 23.2612 155.5 20.5V5.50009C155.5 2.73886 153.261 0.500122 150.5 0.500122C147.739 0.500122 145.5 2.73886 145.5 5.50009V20.5C145.5 23.2619 147.739 25.5 150.5 25.5Z" fill="#050C0D"/>
<path d="M150.5 275.499C147.739 275.499 145.5 277.738 145.5 280.499V295.499C145.5 298.26 147.739 300.499 150.5 300.499C153.261 300.499 155.5 298.26 155.5 295.499V280.499C155.5 277.738 153.261 275.499 150.5 275.499Z" fill="#050C0D"/>
<path d="M194.231 148.018V116.166H194.765C197.526 116.166 199.765 113.927 199.765 111.166C199.765 108.405 197.526 106.166 194.765 106.166H178.319V76.1242C178.319 73.363 176.08 71.1243 173.319 71.1243C170.558 71.1243 168.319 73.363 168.319 76.1242V106.166H132.683V76.1242C132.683 73.363 130.444 71.1243 127.683 71.1243C124.922 71.1243 122.683 73.363 122.683 76.1242V106.166H106.238C103.477 106.166 101.238 108.405 101.238 111.166C101.238 113.927 103.477 116.166 106.238 116.166H184.232V148.018C184.232 166.617 169.1 181.749 150.501 181.749C131.902 181.749 116.771 166.617 116.771 148.018V143.704C116.771 140.943 114.532 138.704 111.771 138.704C109.009 138.704 106.771 140.943 106.771 143.704V148.018C106.771 170.211 123.392 188.582 144.837 191.369C145.29 193.996 146.151 196.425 147.422 198.624C154.122 210.223 166.547 207.755 172.653 216.488C175.812 221.005 176.833 227.648 175.14 232.643C174.039 235.891 176.466 239.249 179.876 239.249C181.96 239.249 183.904 237.936 184.61 235.854C187.345 227.788 185.868 217.938 180.848 210.758C172.09 198.233 158.397 201.457 155.144 191.5C177.083 189.172 194.231 170.562 194.231 148.018Z" fill="#050C0D"/>
<path d="M153.021 129.11C150.525 127.922 147.544 128.981 146.357 131.474L138.917 147.099C137.338 150.412 139.758 154.249 143.431 154.249H149.648L145.613 162.724C144.022 166.066 146.49 169.875 150.123 169.875C151.992 169.875 153.784 168.822 154.641 167.023L162.082 151.398C163.66 148.085 161.24 144.249 157.568 144.249H151.35L155.386 135.773C156.573 133.281 155.515 130.297 153.021 129.11Z" fill="#050C0D"/>
</svg>
