<svg width="68" height="68" viewBox="0 0 68 68" fill="none" xmlns="http://www.w3.org/2000/svg">
<path fill-rule="evenodd" clip-rule="evenodd" d="M33.8824 60.9255C33.2863 60.9255 32.8941 60.4706 32.8941 59.9843V38.8706H21.5059C20.8784 38.8706 20.3765 38.2118 20.6275 37.5373L32.6745 6.35294C33.051 5.38039 34.5569 5.63137 34.5569 6.68235V30.0235H46.4941C47.1216 30.0235 47.7177 30.6667 47.3726 31.4039L34.7765 60.3137C34.6039 60.7059 34.2745 60.9255 33.8824 60.9255ZM46.8863 54.0706C45.9294 54.0706 45.5216 52.8157 46.3216 52.298C52.4078 48.2039 56.0627 41.349 56.0627 33.9922C56.0627 25.9765 51.6863 18.6353 44.6745 14.698C43.5922 14.0706 44.4706 12.4235 45.6157 12.9882C53.2392 17.2549 57.9922 25.2706 57.9922 33.9922C57.9922 42.0078 54.0078 49.4275 47.4353 53.898C47.2627 54.0078 47.1059 54.0706 46.8863 54.0706ZM20.6275 53.7412C20.3922 53.7412 20.2353 53.6784 20.0627 53.5686C13.7725 49.098 10.0078 41.7882 10.0078 33.9922C10.0078 25.7098 14.2118 18.1333 21.2235 13.7098C22.3059 13.0353 23.3412 14.7137 22.2275 15.3726C15.8118 19.4039 11.9373 26.3686 11.9373 33.9922C11.9373 41.1294 15.3726 47.8745 21.1765 52.0157C21.9608 52.5961 21.5529 53.7412 20.6275 53.7412ZM33.9922 68C15.2627 68 0 52.7373 0 33.9922C0 15.2627 15.2627 0 33.9922 0C52.7373 0 68 15.2627 68 33.9922C68 52.7373 52.7373 68 33.9922 68ZM33.9922 1.92941C16.3137 1.92941 1.92941 16.3137 1.92941 33.9922C1.92941 51.6863 16.3137 66.0706 33.9922 66.0706C51.6863 66.0706 66.0706 51.6863 66.0706 33.9922C66.0706 16.3137 51.6863 1.92941 33.9922 1.92941ZM22.949 36.9255H33.8824C34.4471 36.9255 34.8235 37.3647 34.8235 37.9294V55.3412L45.0039 32.0157H33.5529C33.0039 32.0157 32.5647 31.5608 32.5647 31.0118V11.8902L22.949 36.9255Z" fill="#52050D"/>
<path fill-rule="evenodd" clip-rule="evenodd" d="M34.5571 30.0233H46.4944C47.1218 30.0233 47.7179 30.6665 47.3728 31.4037L34.7767 60.3135C34.6042 60.7057 34.2748 60.9253 33.8826 60.9253C33.2866 60.9253 32.8944 60.4704 32.8944 59.9841V38.8704H21.5062C20.8787 38.8704 20.3767 38.2116 20.6277 37.537L32.6748 6.35273C33.0513 5.38018 34.5571 5.63116 34.5571 6.68214V30.0233ZM44.6748 14.6978C43.5924 14.0704 44.4709 12.4233 45.616 12.988C53.2395 17.2547 57.9924 25.2704 57.9924 33.9919C57.9924 42.0076 54.0081 49.4272 47.4356 53.8978C47.263 54.0076 47.1062 54.0704 46.8866 54.0704C45.9297 54.0704 45.5218 52.8155 46.3218 52.2978C52.4081 48.2037 56.063 41.3488 56.063 33.9919C56.063 25.9763 51.6866 18.6351 44.6748 14.6978ZM11.9375 33.9919C11.9375 41.1292 15.3728 47.8743 21.1767 52.0155C21.9611 52.5959 21.5532 53.741 20.6277 53.741C20.3924 53.741 20.2356 53.6782 20.063 53.5684C13.7728 49.0978 10.0081 41.788 10.0081 33.9919C10.0081 25.7096 14.212 18.1331 21.2238 13.7096C22.3062 13.0351 23.3415 14.7135 22.2277 15.3723C15.812 19.4037 11.9375 26.3684 11.9375 33.9919ZM1.92969 33.9919C1.92969 51.6861 16.314 66.0704 33.9924 66.0704C51.6866 66.0704 66.0709 51.6861 66.0709 33.9919C66.0709 16.3135 51.6866 1.9292 33.9924 1.9292C16.314 1.9292 1.92969 16.3135 1.92969 33.9919Z" fill="#FF4500"/>
<path fill-rule="evenodd" clip-rule="evenodd" d="M32.5649 31.0116V11.8901L22.9492 36.9254H33.8826C34.4473 36.9254 34.8237 37.3646 34.8237 37.9293V55.3411L45.0041 32.0156H33.5531C33.0041 32.0156 32.5649 31.5607 32.5649 31.0116Z" fill="#FFD300"/>
</svg>
