<svg width="454" height="3199" viewBox="0 0 454 3199" fill="none" xmlns="http://www.w3.org/2000/svg">
<mask id="mask0_176_62" style="mask-type:alpha" maskUnits="userSpaceOnUse" x="0" y="0" width="454" height="3199">
<g clip-path="url(#clip0_176_62)">
<g clip-path="url(#clip1_176_62)">
<g clip-path="url(#clip2_176_62)">
<g clip-path="url(#clip3_176_62)">
<g clip-path="url(#clip4_176_62)">
<g clip-path="url(#clip5_176_62)">
<g clip-path="url(#clip6_176_62)">
<g clip-path="url(#clip7_176_62)">
<g clip-path="url(#clip8_176_62)">
<g clip-path="url(#clip9_176_62)">
<g clip-path="url(#clip10_176_62)">
<g opacity="0.2">
<path d="M92.2967 3081.93L43.8575 3108.57C42.4983 3109.32 42.4707 3111.26 43.8082 3112.05L89.3385 3138.8C90.6595 3139.58 90.6529 3141.49 89.3266 3142.26L16.0488 3184.63" stroke="#CCCCCC" stroke-width="2"/>
<path d="M116.622 3154.42L43.231 3197.33C41.8903 3198.12 41.9158 3200.06 43.2767 3200.81L88.9101 3225.91C90.273 3226.66 90.2961 3228.61 88.9514 3229.39L67.3281 3241.96C66.7115 3242.32 65.9507 3242.33 65.3313 3241.97L40.1875 3227.62" stroke="#CCCCCC" stroke-width="2"/>
<path d="M112.407 3154.42L115.757 3152.49C116.235 3152.21 117.011 3152.21 117.489 3152.49L120.84 3154.42C121.318 3154.7 121.318 3155.15 120.84 3155.42L117.489 3157.36C117.011 3157.63 116.235 3157.63 115.757 3157.36L112.407 3155.42C111.928 3155.15 111.928 3154.7 112.407 3154.42Z" fill="#CCCCCC" stroke="#CCCCCC" stroke-width="2"/>
<path d="M88.0803 3081.43L91.4308 3079.5C91.9091 3079.22 92.6846 3079.22 93.1629 3079.5L96.5134 3081.43C96.9917 3081.71 96.9917 3082.16 96.5134 3082.43L93.1629 3084.37C92.6846 3084.64 91.9091 3084.64 91.4308 3084.37L88.0803 3082.43C87.602 3082.16 87.602 3081.71 88.0803 3081.43Z" fill="#CCCCCC" stroke="#CCCCCC" stroke-width="2"/>
</g>
</g>
</g>
<g clip-path="url(#clip11_176_62)">
<g clip-path="url(#clip12_176_62)">
<g clip-path="url(#clip13_176_62)">
<g opacity="0.2">
<path d="M92.2967 2568.93L43.8575 2595.57C42.4983 2596.32 42.4707 2598.26 43.8082 2599.05L89.3385 2625.8C90.6595 2626.58 90.6529 2628.49 89.3266 2629.26L16.0488 2671.63" stroke="#CCCCCC" stroke-width="2"/>
<path d="M116.622 2641.42L43.231 2684.33C41.8903 2685.12 41.9158 2687.06 43.2767 2687.81L88.9101 2712.91C90.273 2713.66 90.2961 2715.61 88.9514 2716.39L67.3281 2728.96C66.7115 2729.32 65.9507 2729.33 65.3313 2728.97L40.1875 2714.62" stroke="#CCCCCC" stroke-width="2"/>
<path d="M35.9257 2712.89L37.7004 2711.86C38.1787 2711.59 38.9541 2711.59 39.4325 2711.86L41.2071 2712.89C41.6854 2713.16 41.6854 2713.61 41.2071 2713.89L39.4325 2714.91C38.9541 2715.19 38.1787 2715.19 37.7004 2714.91L35.9257 2713.89C35.4474 2713.61 35.4474 2713.16 35.9257 2712.89Z" stroke="#CCCCCC" stroke-width="2"/>
<path d="M112.407 2641.42L115.757 2639.49C116.235 2639.21 117.011 2639.21 117.489 2639.49L120.84 2641.42C121.318 2641.7 121.318 2642.15 120.84 2642.42L117.489 2644.36C117.011 2644.63 116.235 2644.63 115.757 2644.36L112.407 2642.42C111.928 2642.15 111.928 2641.7 112.407 2641.42Z" fill="#CCCCCC" stroke="#CCCCCC" stroke-width="2"/>
<path d="M88.0803 2568.43L91.4308 2566.5C91.9091 2566.22 92.6846 2566.22 93.1629 2566.5L96.5134 2568.43C96.9917 2568.71 96.9917 2569.16 96.5134 2569.43L93.1629 2571.37C92.6846 2571.64 91.9091 2571.64 91.4308 2571.37L88.0803 2569.43C87.602 2569.16 87.602 2568.71 88.0803 2568.43Z" fill="#CCCCCC" stroke="#CCCCCC" stroke-width="2"/>
<path d="M1.5 2987.87L80.7182 3034.19C82.0465 3034.97 82.0368 3036.89 80.7007 3037.66L21.935 3071.23" stroke="#CCCCCC" stroke-width="2"/>
<path d="M11.0981 3074.34L17.2902 3077.92C17.7685 3078.19 18.544 3078.19 19.0223 3077.92L25.2144 3074.34C25.6927 3074.06 25.6927 3073.62 25.2144 3073.34L19.0223 3069.77C18.544 3069.49 17.7685 3069.49 17.2902 3069.77L11.0981 3073.34C10.6198 3073.62 10.6198 3074.06 11.0981 3074.34Z" fill="#CCCCCC" stroke="#CCCCCC" stroke-width="2"/>
<path d="M347.828 2829.01L399.384 2857.36C400.743 2858.11 400.771 2860.06 399.433 2860.84L350.786 2889.42C349.465 2890.2 349.472 2892.11 350.798 2892.88L428.689 2937.92" stroke="#CCCCCC" stroke-width="2"/>
<path d="M322.031 2905.88L400.047 2951.5C401.387 2952.28 401.362 2954.23 400.001 2954.98L351.233 2981.8C349.87 2982.55 349.847 2984.5 351.191 2985.28L374.368 2998.75C374.985 2999.11 375.745 2999.12 376.365 2998.76L403.09 2983.5" stroke="#CCCCCC" stroke-width="2"/>
<path d="M409.125 2981.83L405.362 2979.66C404.884 2979.38 404.108 2979.38 403.63 2979.66L399.867 2981.83C399.389 2982.1 399.389 2982.55 399.867 2982.83L403.63 2985C404.108 2985.28 404.884 2985.28 405.362 2985L409.125 2982.83C409.603 2982.55 409.603 2982.1 409.125 2981.83Z" fill="#CCCCCC" stroke="#CCCCCC" stroke-width="2"/>
<path d="M325.388 2905.16L322.897 2903.72C322.419 2903.44 321.644 2903.44 321.165 2903.72L318.674 2905.16C318.196 2905.43 318.196 2905.88 318.674 2906.16L321.165 2907.6C321.644 2907.87 322.419 2907.87 322.897 2907.6L325.388 2906.16C325.867 2905.88 325.867 2905.43 325.388 2905.16Z" fill="white" stroke="#CCCCCC" stroke-width="2"/>
<path d="M352.457 2828.51L348.694 2826.34C348.216 2826.06 347.44 2826.06 346.962 2826.34L343.199 2828.51C342.721 2828.78 342.721 2829.23 343.199 2829.51L346.962 2831.68C347.44 2831.96 348.216 2831.96 348.694 2831.68L352.457 2829.51C352.935 2829.23 352.935 2828.78 352.457 2828.51Z" fill="#CCCCCC" stroke="#CCCCCC" stroke-width="2"/>
<path d="M433.54 2735.38L355.494 2781.01C354.16 2781.79 354.177 2783.73 355.524 2784.49L392.987 2805.52" stroke="#CCCCCC" stroke-width="2"/>
<path d="M400.117 2806.3L396.354 2804.12C395.876 2803.85 395.101 2803.85 394.622 2804.12L390.859 2806.3C390.381 2806.57 390.381 2807.02 390.859 2807.3L394.622 2809.47C395.101 2809.75 395.876 2809.75 396.354 2809.47L400.117 2807.3C400.595 2807.02 400.595 2806.57 400.117 2806.3Z" fill="#CCCCCC" stroke="#CCCCCC" stroke-width="2"/>
</g>
</g>
</g>
<g clip-path="url(#clip14_176_62)">
<g clip-path="url(#clip15_176_62)">
<g clip-path="url(#clip16_176_62)">
<g opacity="0.2">
<path d="M92.2967 2055.93L43.8575 2082.57C42.4983 2083.32 42.4707 2085.26 43.8082 2086.05L89.3385 2112.8C90.6595 2113.58 90.6529 2115.49 89.3266 2116.26L16.0488 2158.63" stroke="#CCCCCC" stroke-width="2"/>
<path d="M116.622 2128.42L43.231 2171.33C41.8903 2172.12 41.9158 2174.06 43.2767 2174.81L88.9101 2199.91C90.273 2200.66 90.2961 2202.61 88.9514 2203.39L67.3281 2215.96C66.7115 2216.32 65.9507 2216.33 65.3313 2215.97L40.1875 2201.62" stroke="#CCCCCC" stroke-width="2"/>
<path d="M35.9257 2199.89L37.7004 2198.86C38.1787 2198.59 38.9541 2198.59 39.4325 2198.86L41.2071 2199.89C41.6854 2200.16 41.6854 2200.61 41.2071 2200.89L39.4325 2201.91C38.9541 2202.19 38.1787 2202.19 37.7004 2201.91L35.9257 2200.89C35.4474 2200.61 35.4474 2200.16 35.9257 2199.89Z" stroke="#CCCCCC" stroke-width="2"/>
<path d="M112.407 2128.42L115.757 2126.49C116.235 2126.21 117.011 2126.21 117.489 2126.49L120.84 2128.42C121.318 2128.7 121.318 2129.15 120.84 2129.42L117.489 2131.36C117.011 2131.63 116.235 2131.63 115.757 2131.36L112.407 2129.42C111.928 2129.15 111.928 2128.7 112.407 2128.42Z" fill="#CCCCCC" stroke="#CCCCCC" stroke-width="2"/>
<path d="M88.0803 2055.43L91.4308 2053.5C91.9091 2053.22 92.6846 2053.22 93.1629 2053.5L96.5134 2055.43C96.9917 2055.71 96.9917 2056.16 96.5134 2056.43L93.1629 2058.37C92.6846 2058.64 91.9091 2058.64 91.4308 2058.37L88.0803 2056.43C87.602 2056.16 87.602 2055.71 88.0803 2055.43Z" fill="#CCCCCC" stroke="#CCCCCC" stroke-width="2"/>
<path d="M1.5 2474.87L80.7182 2521.19C82.0465 2521.97 82.0368 2523.89 80.7007 2524.66L21.935 2558.23" stroke="#CCCCCC" stroke-width="2"/>
<path d="M11.0981 2561.34L17.2902 2564.92C17.7685 2565.19 18.544 2565.19 19.0223 2564.92L25.2144 2561.34C25.6927 2561.06 25.6927 2560.62 25.2144 2560.34L19.0223 2556.77C18.544 2556.49 17.7685 2556.49 17.2902 2556.77L11.0981 2560.34C10.6198 2560.62 10.6198 2561.06 11.0981 2561.34Z" fill="#CCCCCC" stroke="#CCCCCC" stroke-width="2"/>
<path d="M347.828 2316.01L399.384 2344.36C400.743 2345.11 400.771 2347.06 399.433 2347.84L350.786 2376.42C349.465 2377.2 349.472 2379.11 350.798 2379.88L428.689 2424.92" stroke="#CCCCCC" stroke-width="2"/>
<path d="M322.031 2392.88L400.047 2438.5C401.387 2439.28 401.362 2441.23 400.001 2441.98L351.233 2468.8C349.87 2469.55 349.847 2471.5 351.191 2472.28L374.368 2485.75C374.985 2486.11 375.745 2486.12 376.365 2485.76L403.09 2470.5" stroke="#CCCCCC" stroke-width="2"/>
<path d="M409.125 2468.83L405.362 2466.66C404.884 2466.38 404.108 2466.38 403.63 2466.66L399.867 2468.83C399.389 2469.1 399.389 2469.55 399.867 2469.83L403.63 2472C404.108 2472.28 404.884 2472.28 405.362 2472L409.125 2469.83C409.603 2469.55 409.603 2469.1 409.125 2468.83Z" fill="#CCCCCC" stroke="#CCCCCC" stroke-width="2"/>
<path d="M325.388 2392.16L322.897 2390.72C322.419 2390.44 321.644 2390.44 321.165 2390.72L318.674 2392.16C318.196 2392.43 318.196 2392.88 318.674 2393.16L321.165 2394.6C321.644 2394.87 322.419 2394.87 322.897 2394.6L325.388 2393.16C325.867 2392.88 325.867 2392.43 325.388 2392.16Z" fill="white" stroke="#CCCCCC" stroke-width="2"/>
<path d="M352.457 2315.51L348.694 2313.34C348.216 2313.06 347.44 2313.06 346.962 2313.34L343.199 2315.51C342.721 2315.78 342.721 2316.23 343.199 2316.51L346.962 2318.68C347.44 2318.96 348.216 2318.96 348.694 2318.68L352.457 2316.51C352.935 2316.23 352.935 2315.78 352.457 2315.51Z" fill="#CCCCCC" stroke="#CCCCCC" stroke-width="2"/>
<path d="M433.54 2222.38L355.494 2268.01C354.16 2268.79 354.177 2270.73 355.524 2271.49L392.987 2292.52" stroke="#CCCCCC" stroke-width="2"/>
<path d="M400.117 2293.3L396.354 2291.12C395.876 2290.85 395.101 2290.85 394.622 2291.12L390.859 2293.3C390.381 2293.57 390.381 2294.02 390.859 2294.3L394.622 2296.47C395.101 2296.75 395.876 2296.75 396.354 2296.47L400.117 2294.3C400.595 2294.02 400.595 2293.57 400.117 2293.3Z" fill="#CCCCCC" stroke="#CCCCCC" stroke-width="2"/>
</g>
</g>
</g>
<g clip-path="url(#clip17_176_62)">
<g clip-path="url(#clip18_176_62)">
<g clip-path="url(#clip19_176_62)">
<g opacity="0.2">
<path d="M92.2967 1542.93L43.8575 1569.57C42.4983 1570.32 42.4707 1572.26 43.8082 1573.05L89.3385 1599.8C90.6595 1600.58 90.6529 1602.49 89.3266 1603.26L16.0488 1645.63" stroke="#CCCCCC" stroke-width="2"/>
<path d="M116.622 1615.42L43.231 1658.33C41.8903 1659.12 41.9158 1661.06 43.2767 1661.81L88.9101 1686.91C90.273 1687.66 90.2961 1689.61 88.9514 1690.39L67.3281 1702.96C66.7115 1703.32 65.9507 1703.33 65.3313 1702.97L40.1875 1688.62" stroke="#CCCCCC" stroke-width="2"/>
<path d="M35.9257 1686.89L37.7004 1685.86C38.1787 1685.59 38.9541 1685.59 39.4325 1685.86L41.2071 1686.89C41.6854 1687.16 41.6854 1687.61 41.2071 1687.89L39.4325 1688.91C38.9541 1689.19 38.1787 1689.19 37.7004 1688.91L35.9257 1687.89C35.4474 1687.61 35.4474 1687.16 35.9257 1686.89Z" stroke="#CCCCCC" stroke-width="2"/>
<path d="M112.407 1615.42L115.757 1613.49C116.235 1613.21 117.011 1613.21 117.489 1613.49L120.84 1615.42C121.318 1615.7 121.318 1616.15 120.84 1616.42L117.489 1618.36C117.011 1618.63 116.235 1618.63 115.757 1618.36L112.407 1616.42C111.928 1616.15 111.928 1615.7 112.407 1615.42Z" fill="#CCCCCC" stroke="#CCCCCC" stroke-width="2"/>
<path d="M88.0803 1542.43L91.4308 1540.5C91.9091 1540.22 92.6846 1540.22 93.1629 1540.5L96.5134 1542.43C96.9917 1542.71 96.9917 1543.16 96.5134 1543.43L93.1629 1545.37C92.6846 1545.64 91.9091 1545.64 91.4308 1545.37L88.0803 1543.43C87.602 1543.16 87.602 1542.71 88.0803 1542.43Z" fill="#CCCCCC" stroke="#CCCCCC" stroke-width="2"/>
<path d="M1.5 1961.87L80.7182 2008.19C82.0465 2008.97 82.0368 2010.89 80.7007 2011.65L21.935 2045.23" stroke="#CCCCCC" stroke-width="2"/>
<path d="M11.0981 2048.34L17.2902 2051.91C17.7685 2052.19 18.544 2052.19 19.0223 2051.91L25.2144 2048.34C25.6927 2048.06 25.6927 2047.62 25.2144 2047.34L19.0223 2043.77C18.544 2043.49 17.7685 2043.49 17.2902 2043.77L11.0981 2047.34C10.6198 2047.62 10.6198 2048.06 11.0981 2048.34Z" fill="#CCCCCC" stroke="#CCCCCC" stroke-width="2"/>
<path d="M347.828 1803.01L399.384 1831.36C400.743 1832.11 400.771 1834.05 399.433 1834.84L350.786 1863.42C349.465 1864.2 349.472 1866.11 350.798 1866.88L428.689 1911.92" stroke="#CCCCCC" stroke-width="2"/>
<path d="M322.031 1879.88L400.047 1925.5C401.387 1926.28 401.362 1928.23 400.001 1928.98L351.233 1955.8C349.87 1956.55 349.847 1958.5 351.191 1959.28L374.368 1972.75C374.985 1973.11 375.745 1973.12 376.365 1972.76L403.09 1957.5" stroke="#CCCCCC" stroke-width="2"/>
<path d="M409.125 1955.83L405.362 1953.66C404.884 1953.38 404.108 1953.38 403.63 1953.66L399.867 1955.83C399.389 1956.1 399.389 1956.55 399.867 1956.83L403.63 1959C404.108 1959.28 404.884 1959.28 405.362 1959L409.125 1956.83C409.603 1956.55 409.603 1956.1 409.125 1955.83Z" fill="#CCCCCC" stroke="#CCCCCC" stroke-width="2"/>
<path d="M325.388 1879.16L322.897 1877.72C322.419 1877.44 321.644 1877.44 321.165 1877.72L318.674 1879.16C318.196 1879.43 318.196 1879.88 318.674 1880.16L321.165 1881.59C321.644 1881.87 322.419 1881.87 322.897 1881.59L325.388 1880.16C325.867 1879.88 325.867 1879.43 325.388 1879.16Z" fill="white" stroke="#CCCCCC" stroke-width="2"/>
<path d="M352.457 1802.51L348.694 1800.34C348.216 1800.06 347.44 1800.06 346.962 1800.34L343.199 1802.51C342.721 1802.78 342.721 1803.23 343.199 1803.51L346.962 1805.68C347.44 1805.96 348.216 1805.96 348.694 1805.68L352.457 1803.51C352.935 1803.23 352.935 1802.78 352.457 1802.51Z" fill="#CCCCCC" stroke="#CCCCCC" stroke-width="2"/>
<path d="M433.54 1709.37L355.494 1755.01C354.16 1755.79 354.177 1757.73 355.524 1758.48L392.987 1779.52" stroke="#CCCCCC" stroke-width="2"/>
<path d="M400.117 1780.3L396.354 1778.12C395.876 1777.85 395.101 1777.85 394.622 1778.12L390.859 1780.3C390.381 1780.57 390.381 1781.02 390.859 1781.3L394.622 1783.47C395.101 1783.75 395.876 1783.75 396.354 1783.47L400.117 1781.3C400.595 1781.02 400.595 1780.57 400.117 1780.3Z" fill="#CCCCCC" stroke="#CCCCCC" stroke-width="2"/>
</g>
</g>
</g>
<g clip-path="url(#clip20_176_62)">
<g clip-path="url(#clip21_176_62)">
<g clip-path="url(#clip22_176_62)">
<g opacity="0.2">
<path d="M92.2967 1029.93L43.8575 1056.57C42.4983 1057.32 42.4707 1059.26 43.8082 1060.05L89.3385 1086.8C90.6595 1087.58 90.6529 1089.49 89.3266 1090.26L16.0488 1132.63" stroke="#CCCCCC" stroke-width="2"/>
<path d="M116.622 1102.42L43.231 1145.33C41.8903 1146.12 41.9158 1148.06 43.2767 1148.81L88.9101 1173.91C90.273 1174.66 90.2961 1176.61 88.9514 1177.39L67.3281 1189.96C66.7115 1190.32 65.9507 1190.33 65.3313 1189.97L40.1875 1175.62" stroke="#CCCCCC" stroke-width="2"/>
<path d="M35.9257 1173.89L37.7004 1172.86C38.1787 1172.59 38.9541 1172.59 39.4325 1172.86L41.2071 1173.89C41.6854 1174.16 41.6854 1174.61 41.2071 1174.89L39.4325 1175.91C38.9541 1176.19 38.1787 1176.19 37.7004 1175.91L35.9257 1174.89C35.4474 1174.61 35.4474 1174.16 35.9257 1173.89Z" stroke="#CCCCCC" stroke-width="2"/>
<path d="M112.407 1102.42L115.757 1100.49C116.235 1100.21 117.011 1100.21 117.489 1100.49L120.84 1102.42C121.318 1102.7 121.318 1103.15 120.84 1103.42L117.489 1105.36C117.011 1105.63 116.235 1105.63 115.757 1105.36L112.407 1103.42C111.928 1103.15 111.928 1102.7 112.407 1102.42Z" fill="#CCCCCC" stroke="#CCCCCC" stroke-width="2"/>
<path d="M88.0803 1029.43L91.4308 1027.5C91.9091 1027.22 92.6846 1027.22 93.1629 1027.5L96.5134 1029.43C96.9917 1029.71 96.9917 1030.16 96.5134 1030.43L93.1629 1032.37C92.6846 1032.64 91.9091 1032.64 91.4308 1032.37L88.0803 1030.43C87.602 1030.16 87.602 1029.71 88.0803 1029.43Z" fill="#CCCCCC" stroke="#CCCCCC" stroke-width="2"/>
<path d="M1.5 1448.87L80.7182 1495.19C82.0465 1495.97 82.0368 1497.89 80.7007 1498.65L21.935 1532.23" stroke="#CCCCCC" stroke-width="2"/>
<path d="M11.0981 1535.34L17.2902 1538.91C17.7685 1539.19 18.544 1539.19 19.0223 1538.91L25.2144 1535.34C25.6927 1535.06 25.6927 1534.62 25.2144 1534.34L19.0223 1530.77C18.544 1530.49 17.7685 1530.49 17.2902 1530.77L11.0981 1534.34C10.6198 1534.62 10.6198 1535.06 11.0981 1535.34Z" fill="#CCCCCC" stroke="#CCCCCC" stroke-width="2"/>
<path d="M347.828 1290.01L399.384 1318.36C400.743 1319.11 400.771 1321.05 399.433 1321.84L350.786 1350.42C349.465 1351.2 349.472 1353.11 350.798 1353.88L428.689 1398.92" stroke="#CCCCCC" stroke-width="2"/>
<path d="M322.031 1366.87L400.047 1412.5C401.387 1413.28 401.362 1415.23 400.001 1415.97L351.233 1442.8C349.87 1443.55 349.847 1445.5 351.191 1446.28L374.368 1459.75C374.985 1460.11 375.745 1460.12 376.365 1459.76L403.09 1444.5" stroke="#CCCCCC" stroke-width="2"/>
<path d="M409.125 1442.83L405.362 1440.66C404.884 1440.38 404.108 1440.38 403.63 1440.66L399.867 1442.83C399.389 1443.1 399.389 1443.55 399.867 1443.83L403.63 1446C404.108 1446.28 404.884 1446.28 405.362 1446L409.125 1443.83C409.603 1443.55 409.603 1443.1 409.125 1442.83Z" fill="#CCCCCC" stroke="#CCCCCC" stroke-width="2"/>
<path d="M325.388 1366.16L322.897 1364.72C322.419 1364.44 321.644 1364.44 321.165 1364.72L318.674 1366.16C318.196 1366.43 318.196 1366.88 318.674 1367.16L321.165 1368.59C321.644 1368.87 322.419 1368.87 322.897 1368.59L325.388 1367.16C325.867 1366.88 325.867 1366.43 325.388 1366.16Z" fill="white" stroke="#CCCCCC" stroke-width="2"/>
<path d="M352.457 1289.51L348.694 1287.34C348.216 1287.06 347.44 1287.06 346.962 1287.34L343.199 1289.51C342.721 1289.78 342.721 1290.23 343.199 1290.51L346.962 1292.68C347.44 1292.96 348.216 1292.96 348.694 1292.68L352.457 1290.51C352.935 1290.23 352.935 1289.78 352.457 1289.51Z" fill="#CCCCCC" stroke="#CCCCCC" stroke-width="2"/>
<path d="M433.54 1196.37L355.494 1242.01C354.16 1242.79 354.177 1244.73 355.524 1245.48L392.987 1266.52" stroke="#CCCCCC" stroke-width="2"/>
<path d="M400.117 1267.3L396.354 1265.12C395.876 1264.85 395.101 1264.85 394.622 1265.12L390.859 1267.3C390.381 1267.57 390.381 1268.02 390.859 1268.3L394.622 1270.47C395.101 1270.75 395.876 1270.75 396.354 1270.47L400.117 1268.3C400.595 1268.02 400.595 1267.57 400.117 1267.3Z" fill="#CCCCCC" stroke="#CCCCCC" stroke-width="2"/>
</g>
</g>
</g>
<g clip-path="url(#clip23_176_62)">
<g clip-path="url(#clip24_176_62)">
<g clip-path="url(#clip25_176_62)">
<g opacity="0.2">
<path d="M92.2967 516.931L43.8575 543.573C42.4983 544.32 42.4707 546.264 43.8082 547.05L89.3385 573.801C90.6595 574.577 90.6529 576.49 89.3266 577.257L16.0488 619.633" stroke="#CCCCCC" stroke-width="2"/>
<path d="M116.622 589.417L43.231 632.335C41.8903 633.119 41.9158 635.065 43.2767 635.813L88.9101 660.913C90.273 661.662 90.2961 663.613 88.9514 664.394L67.3281 676.965C66.7115 677.323 65.9507 677.326 65.3313 676.973L40.1875 662.617" stroke="#CCCCCC" stroke-width="2"/>
<path d="M35.9257 660.887L37.7004 659.863C38.1787 659.587 38.9541 659.587 39.4325 659.863L41.2071 660.887C41.6854 661.164 41.6854 661.611 41.2071 661.887L39.4325 662.912C38.9541 663.188 38.1787 663.188 37.7004 662.912L35.9257 661.887C35.4474 661.611 35.4474 661.164 35.9257 660.887Z" stroke="#CCCCCC" stroke-width="2"/>
<path d="M112.407 589.421L115.757 587.487C116.235 587.211 117.011 587.211 117.489 587.487L120.84 589.421C121.318 589.698 121.318 590.145 120.84 590.421L117.489 592.356C117.011 592.632 116.235 592.632 115.757 592.356L112.407 590.421C111.928 590.145 111.928 589.698 112.407 589.421Z" fill="#CCCCCC" stroke="#CCCCCC" stroke-width="2"/>
<path d="M88.0803 516.434L91.4308 514.5C91.9091 514.224 92.6846 514.224 93.1629 514.5L96.5134 516.434C96.9917 516.71 96.9917 517.158 96.5134 517.434L93.1629 519.368C92.6846 519.644 91.9091 519.644 91.4308 519.368L88.0803 517.434C87.602 517.158 87.602 516.71 88.0803 516.434Z" fill="#CCCCCC" stroke="#CCCCCC" stroke-width="2"/>
<path d="M1.5 935.867L80.7182 982.192C82.0465 982.969 82.0368 984.892 80.7007 985.655L21.935 1019.23" stroke="#CCCCCC" stroke-width="2"/>
<path d="M11.0981 1022.34L17.2902 1025.91C17.7685 1026.19 18.544 1026.19 19.0223 1025.91L25.2144 1022.34C25.6927 1022.06 25.6927 1021.62 25.2144 1021.34L19.0223 1017.77C18.544 1017.49 17.7685 1017.49 17.2902 1017.77L11.0981 1021.34C10.6198 1021.62 10.6198 1022.06 11.0981 1022.34Z" fill="#CCCCCC" stroke="#CCCCCC" stroke-width="2"/>
<path d="M347.828 777.008L399.384 805.364C400.743 806.112 400.771 808.055 399.433 808.841L350.786 837.424C349.465 838.2 349.472 840.112 350.798 840.879L428.689 885.923" stroke="#CCCCCC" stroke-width="2"/>
<path d="M322.031 853.875L400.047 899.497C401.387 900.281 401.362 902.227 400.001 902.975L351.233 929.799C349.87 930.549 349.847 932.499 351.191 933.281L374.368 946.754C374.985 947.113 375.745 947.116 376.365 946.762L403.09 931.503" stroke="#CCCCCC" stroke-width="2"/>
<path d="M409.125 929.828L405.362 927.656C404.884 927.38 404.108 927.38 403.63 927.656L399.867 929.828C399.389 930.105 399.389 930.552 399.867 930.828L403.63 933.001C404.108 933.277 404.884 933.277 405.362 933.001L409.125 930.828C409.603 930.552 409.603 930.105 409.125 929.828Z" fill="#CCCCCC" stroke="#CCCCCC" stroke-width="2"/>
<path d="M325.388 853.157L322.897 851.719C322.419 851.443 321.644 851.443 321.165 851.719L318.674 853.157C318.196 853.433 318.196 853.881 318.674 854.157L321.165 855.595C321.644 855.871 322.419 855.871 322.897 855.595L325.388 854.157C325.867 853.881 325.867 853.433 325.388 853.157Z" fill="white" stroke="#CCCCCC" stroke-width="2"/>
<path d="M352.457 776.508L348.694 774.336C348.216 774.06 347.44 774.06 346.962 774.336L343.199 776.508C342.721 776.784 342.721 777.232 343.199 777.508L346.962 779.68C347.44 779.956 348.216 779.956 348.694 779.68L352.457 777.508C352.935 777.232 352.935 776.784 352.457 776.508Z" fill="#CCCCCC" stroke="#CCCCCC" stroke-width="2"/>
<path d="M433.54 683.375L355.494 729.015C354.16 729.795 354.177 731.728 355.524 732.485L392.987 753.524" stroke="#CCCCCC" stroke-width="2"/>
<path d="M400.117 754.297L396.354 752.125C395.876 751.849 395.101 751.849 394.622 752.125L390.859 754.297C390.381 754.573 390.381 755.021 390.859 755.297L394.622 757.469C395.101 757.745 395.876 757.745 396.354 757.469L400.117 755.297C400.595 755.021 400.595 754.573 400.117 754.297Z" fill="#CCCCCC" stroke="#CCCCCC" stroke-width="2"/>
</g>
</g>
</g>
<g clip-path="url(#clip26_176_62)">
<g clip-path="url(#clip27_176_62)">
<g opacity="0.2">
<path d="M92.2967 3.93066L43.8575 30.5727C42.4983 31.3203 42.4707 33.2636 43.8082 34.0495L89.3385 60.801C90.6595 61.5772 90.6529 63.4897 89.3266 64.2567L16.0488 106.633" stroke="#CCCCCC" stroke-width="2"/>
<path d="M116.622 76.4169L43.231 119.335C41.8903 120.119 41.9158 122.065 43.2767 122.813L88.9101 147.913C90.273 148.662 90.2961 150.613 88.9514 151.394L67.3281 163.965C66.7115 164.323 65.9507 164.326 65.3313 163.973L40.1875 149.617" stroke="#CCCCCC" stroke-width="2"/>
<path d="M35.9257 147.887L37.7004 146.863C38.1787 146.587 38.9541 146.587 39.4325 146.863L41.2071 147.887C41.6854 148.164 41.6854 148.611 41.2071 148.887L39.4325 149.912C38.9541 150.188 38.1787 150.188 37.7004 149.912L35.9257 148.887C35.4474 148.611 35.4474 148.164 35.9257 147.887Z" stroke="#CCCCCC" stroke-width="2"/>
<path d="M112.407 76.4214L115.757 74.4872C116.235 74.2111 117.011 74.2111 117.489 74.4872L120.84 76.4214C121.318 76.6976 121.318 77.1453 120.84 77.4214L117.489 79.3556C117.011 79.6317 116.235 79.6317 115.757 79.3556L112.407 77.4214C111.928 77.1453 111.928 76.6976 112.407 76.4214Z" fill="#CCCCCC" stroke="#CCCCCC" stroke-width="2"/>
<path d="M88.0803 3.43414L91.4308 1.49991C91.9091 1.22378 92.6846 1.22378 93.1629 1.49991L96.5134 3.43414C96.9917 3.71027 96.9917 4.15795 96.5134 4.43408L93.1629 6.36831C92.6846 6.64444 91.9091 6.64444 91.4308 6.36831L88.0803 4.43408C87.602 4.15795 87.602 3.71027 88.0803 3.43414Z" fill="#CCCCCC" stroke="#CCCCCC" stroke-width="2"/>
<path d="M1.5 422.867L80.7182 469.192C82.0465 469.969 82.0368 471.892 80.7007 472.655L21.935 506.228" stroke="#CCCCCC" stroke-width="2"/>
<path d="M11.0981 509.34L17.2902 512.915C17.7685 513.191 18.544 513.191 19.0223 512.915L25.2144 509.34C25.6927 509.064 25.6927 508.616 25.2144 508.34L19.0223 504.766C18.544 504.49 17.7685 504.49 17.2902 504.766L11.0981 508.34C10.6198 508.616 10.6198 509.064 11.0981 509.34Z" fill="#CCCCCC" stroke="#CCCCCC" stroke-width="2"/>
<path d="M347.828 264.008L399.384 292.364C400.743 293.112 400.771 295.055 399.433 295.841L350.786 324.424C349.465 325.2 349.472 327.112 350.798 327.879L428.689 372.923" stroke="#CCCCCC" stroke-width="2"/>
<path d="M322.031 340.875L400.047 386.497C401.387 387.281 401.362 389.227 400.001 389.975L351.233 416.799C349.87 417.549 349.847 419.499 351.191 420.281L374.368 433.754C374.985 434.113 375.745 434.116 376.365 433.762L403.09 418.503" stroke="#CCCCCC" stroke-width="2"/>
<path d="M409.125 416.828L405.362 414.656C404.884 414.38 404.108 414.38 403.63 414.656L399.867 416.828C399.389 417.105 399.389 417.552 399.867 417.828L403.63 420.001C404.108 420.277 404.884 420.277 405.362 420.001L409.125 417.828C409.603 417.552 409.603 417.105 409.125 416.828Z" fill="#CCCCCC" stroke="#CCCCCC" stroke-width="2"/>
<path d="M325.388 340.157L322.897 338.719C322.419 338.443 321.644 338.443 321.165 338.719L318.674 340.157C318.196 340.433 318.196 340.881 318.674 341.157L321.165 342.595C321.644 342.871 322.419 342.871 322.897 342.595L325.388 341.157C325.867 340.881 325.867 340.433 325.388 340.157Z" fill="white" stroke="#CCCCCC" stroke-width="2"/>
<path d="M352.457 263.508L348.694 261.336C348.216 261.06 347.44 261.06 346.962 261.336L343.199 263.508C342.721 263.784 342.721 264.232 343.199 264.508L346.962 266.68C347.44 266.956 348.216 266.956 348.694 266.68L352.457 264.508C352.935 264.232 352.935 263.784 352.457 263.508Z" fill="#CCCCCC" stroke="#CCCCCC" stroke-width="2"/>
<path d="M433.54 170.375L355.494 216.015C354.16 216.795 354.177 218.728 355.524 219.485L392.987 240.524" stroke="#CCCCCC" stroke-width="2"/>
<path d="M400.117 241.297L396.354 239.125C395.876 238.849 395.101 238.849 394.622 239.125L390.859 241.297C390.381 241.573 390.381 242.021 390.859 242.297L394.622 244.469C395.101 244.745 395.876 244.745 396.354 244.469L400.117 242.297C400.595 242.021 400.595 241.573 400.117 241.297Z" fill="#CCCCCC" stroke="#CCCCCC" stroke-width="2"/>
</g>
</g>
</g>
</g>
</g>
</g>
</g>
</g>
</g>
</g>
</g>
</g>
</g>
</g>
</g>
</g>
</g>
</mask>
<g mask="url(#mask0_176_62)">
<rect width="454" height="3185" fill="#ABBDFF"/>
</g>
<defs>
<clipPath id="clip0_176_62">
<rect width="454" height="3199" fill="white"/>
</clipPath>
<clipPath id="clip1_176_62">
<rect width="454" height="7455" fill="white" transform="translate(0.5)"/>
</clipPath>
<clipPath id="clip2_176_62">
<rect width="454" height="7455" fill="white" transform="translate(0.5)"/>
</clipPath>
<clipPath id="clip3_176_62">
<rect width="454" height="7455" fill="white" transform="translate(0.5)"/>
</clipPath>
<clipPath id="clip4_176_62">
<rect width="454" height="7455" fill="white" transform="translate(0.5)"/>
</clipPath>
<clipPath id="clip5_176_62">
<rect width="454" height="7455" fill="white" transform="translate(0.5)"/>
</clipPath>
<clipPath id="clip6_176_62">
<rect width="454" height="7455" fill="white" transform="translate(0.5)"/>
</clipPath>
<clipPath id="clip7_176_62">
<rect width="454" height="7455" fill="white" transform="translate(0.5)"/>
</clipPath>
<clipPath id="clip8_176_62">
<rect width="454" height="7455" fill="white" transform="translate(0.5)"/>
</clipPath>
<clipPath id="clip9_176_62">
<rect width="454" height="7455" fill="white" transform="translate(0.5)"/>
</clipPath>
<clipPath id="clip10_176_62">
<rect width="449" height="528" fill="white" transform="translate(0.5 3078)"/>
</clipPath>
<clipPath id="clip11_176_62">
<rect width="454" height="7455" fill="white" transform="translate(0.5)"/>
</clipPath>
<clipPath id="clip12_176_62">
<rect width="454" height="7455" fill="white" transform="translate(0.5)"/>
</clipPath>
<clipPath id="clip13_176_62">
<rect width="449" height="528" fill="white" transform="translate(0.5 2565)"/>
</clipPath>
<clipPath id="clip14_176_62">
<rect width="454" height="7455" fill="white" transform="translate(0.5)"/>
</clipPath>
<clipPath id="clip15_176_62">
<rect width="454" height="7455" fill="white" transform="translate(0.5)"/>
</clipPath>
<clipPath id="clip16_176_62">
<rect width="449" height="528" fill="white" transform="translate(0.5 2052)"/>
</clipPath>
<clipPath id="clip17_176_62">
<rect width="454" height="7455" fill="white" transform="translate(0.5)"/>
</clipPath>
<clipPath id="clip18_176_62">
<rect width="454" height="7455" fill="white" transform="translate(0.5)"/>
</clipPath>
<clipPath id="clip19_176_62">
<rect width="449" height="528" fill="white" transform="translate(0.5 1539)"/>
</clipPath>
<clipPath id="clip20_176_62">
<rect width="454" height="7455" fill="white" transform="translate(0.5)"/>
</clipPath>
<clipPath id="clip21_176_62">
<rect width="454" height="7455" fill="white" transform="translate(0.5)"/>
</clipPath>
<clipPath id="clip22_176_62">
<rect width="449" height="528" fill="white" transform="translate(0.5 1026)"/>
</clipPath>
<clipPath id="clip23_176_62">
<rect width="454" height="7455" fill="white" transform="translate(0.5)"/>
</clipPath>
<clipPath id="clip24_176_62">
<rect width="454" height="7455" fill="white" transform="translate(0.5)"/>
</clipPath>
<clipPath id="clip25_176_62">
<rect width="449" height="528" fill="white" transform="translate(0.5 513)"/>
</clipPath>
<clipPath id="clip26_176_62">
<rect width="454" height="7455" fill="white" transform="translate(0.5)"/>
</clipPath>
<clipPath id="clip27_176_62">
<rect width="449" height="528" fill="white" transform="translate(0.5)"/>
</clipPath>
</defs>
</svg>
