<svg width="700" height="700" viewBox="0 0 700 700" fill="none" xmlns="http://www.w3.org/2000/svg">
<g clip-path="url(#clip0_46_482)">
<path d="M0 535.357H700V535.707H0V535.357Z" fill="#EBEBEB"/>
<path d="M70.139 557.891H116.51V558.241H70.139V557.891Z" fill="#EBEBEB"/>
<path d="M236.291 561.691H248.461V562.041H236.291V561.691Z" fill="#EBEBEB"/>
<path d="M117.91 544.891H144.779V545.241H117.91V544.891Z" fill="#EBEBEB"/>
<path d="M566.086 547.243H626.557V547.593H566.086V547.243Z" fill="#EBEBEB"/>
<path d="M544.755 547.243H553.621V547.593H544.755V547.243Z" fill="#EBEBEB"/>
<path d="M384.795 553.155H515.941V553.505H384.795V553.155Z" fill="#EBEBEB"/>
<path d="M368.18 472.92H638.519C642.924 472.92 646.51 469.334 646.51 464.929V84.9238C646.51 80.518 642.924 76.9326 638.519 76.9326H368.18C363.776 76.9326 360.19 80.518 360.19 84.9238V464.929C360.19 469.334 363.776 472.92 368.18 472.92ZM638.519 77.284C642.733 77.284 646.16 80.7112 646.16 84.9252V464.93C646.16 469.144 642.733 472.571 638.519 472.571H368.18C363.967 472.571 360.54 469.144 360.54 464.93V84.9238C360.54 80.7112 363.967 77.2826 368.18 77.2826L638.519 77.284Z" fill="#EBEBEB"/>
<path d="M65.3644 472.92H335.702C340.107 472.92 343.691 469.334 343.691 464.929V84.9238C343.691 80.518 340.106 76.9326 335.702 76.9326H65.3644C60.9572 76.9326 57.3732 80.518 57.3732 84.9238V464.929C57.3718 469.334 60.9572 472.92 65.3644 472.92ZM335.702 77.284C339.914 77.284 343.341 80.7112 343.341 84.9252V464.93C343.341 469.144 339.914 472.571 335.702 472.571H65.3644C61.1504 472.571 57.7232 469.144 57.7232 464.93V84.9238C57.7232 80.7112 61.1504 77.2826 65.3644 77.2826L335.702 77.284Z" fill="#EBEBEB"/>
<path d="M284.538 105.47L285.721 107.868C285.859 108.151 286.13 108.346 286.44 108.392L289.086 108.777C289.87 108.89 290.184 109.855 289.617 110.408L287.702 112.274C287.476 112.494 287.374 112.81 287.426 113.121L287.878 115.756C288.013 116.537 287.192 117.134 286.491 116.764L284.123 115.519C283.845 115.372 283.512 115.372 283.233 115.519L280.866 116.764C280.164 117.132 279.344 116.537 279.478 115.756L279.93 113.121C279.984 112.81 279.881 112.494 279.655 112.274L277.739 110.408C277.172 109.855 277.485 108.89 278.27 108.777L280.916 108.392C281.228 108.347 281.497 108.151 281.636 107.868L282.819 105.47C283.173 104.759 284.186 104.759 284.538 105.47Z" fill="#F5F5F5"/>
<path d="M314.579 501.471L315.762 503.87C315.902 504.152 316.171 504.347 316.481 504.393L319.127 504.778C319.911 504.892 320.225 505.856 319.658 506.409L317.743 508.275C317.517 508.495 317.415 508.812 317.467 509.122L317.919 511.759C318.054 512.54 317.233 513.136 316.532 512.767L314.166 511.522C313.887 511.375 313.554 511.375 313.275 511.522L310.908 512.767C310.207 513.136 309.386 512.54 309.521 511.759L309.973 509.122C310.026 508.812 309.922 508.495 309.697 508.275L307.782 506.409C307.213 505.856 307.527 504.892 308.312 504.778L310.958 504.393C311.271 504.348 311.539 504.152 311.678 503.87L312.861 501.471C313.214 500.762 314.227 500.762 314.579 501.471Z" fill="#F0F0F0"/>
<path d="M105.928 350.533L107.111 352.931C107.25 353.214 107.52 353.409 107.831 353.455L110.477 353.84C111.261 353.953 111.575 354.918 111.008 355.471L109.092 357.337C108.867 357.557 108.765 357.873 108.817 358.184L109.269 360.82C109.403 361.602 108.583 362.198 107.881 361.828L105.514 360.584C105.235 360.437 104.902 360.437 104.624 360.584L102.258 361.828C101.556 362.197 100.736 361.602 100.87 360.82L101.322 358.184C101.376 357.873 101.273 357.557 101.047 357.337L99.1314 355.471C98.563 354.918 98.8766 353.953 99.662 353.84L102.308 353.455C102.62 353.41 102.889 353.214 103.029 352.931L104.212 350.533C104.565 349.822 105.578 349.822 105.928 350.533Z" fill="#F0F0F0"/>
<path d="M398.667 429.342L399.374 430.775C399.458 430.945 399.617 431.061 399.805 431.088L401.387 431.317C401.856 431.386 402.043 431.961 401.703 432.293L400.558 433.409C400.424 433.54 400.362 433.729 400.394 433.916L400.664 435.491C400.744 435.958 400.254 436.314 399.836 436.094L398.422 435.351C398.255 435.262 398.056 435.262 397.89 435.351L396.476 436.094C396.056 436.315 395.566 435.958 395.647 435.491L395.917 433.916C395.949 433.729 395.888 433.54 395.752 433.409L394.607 432.293C394.268 431.963 394.454 431.386 394.923 431.317L396.505 431.088C396.691 431.061 396.852 430.943 396.935 430.775L397.642 429.342C397.85 428.918 398.457 428.918 398.667 429.342Z" fill="#F0F0F0"/>
<path d="M238.449 429.342L239.156 430.775C239.24 430.945 239.4 431.061 239.586 431.088L241.168 431.317C241.637 431.386 241.825 431.961 241.484 432.293L240.339 433.409C240.205 433.54 240.143 433.729 240.175 433.916L240.446 435.491C240.525 435.958 240.035 436.314 239.617 436.094L238.203 435.351C238.036 435.262 237.837 435.262 237.671 435.351L236.257 436.094C235.837 436.315 235.347 435.958 235.428 435.491L235.698 433.916C235.73 433.729 235.669 433.54 235.534 433.409L234.389 432.293C234.05 431.963 234.237 431.386 234.706 431.317L236.288 431.088C236.474 431.061 236.635 430.943 236.717 430.775L237.424 429.342C237.633 428.918 238.239 428.918 238.449 429.342Z" fill="#F5F5F5"/>
<path d="M591.184 107.657L591.891 109.091C591.973 109.259 592.134 109.376 592.32 109.403L593.902 109.632C594.371 109.701 594.559 110.276 594.219 110.608L593.075 111.724C592.941 111.856 592.879 112.045 592.91 112.229L593.18 113.804C593.26 114.272 592.77 114.628 592.35 114.408L590.936 113.664C590.769 113.576 590.57 113.576 590.404 113.664L588.99 114.408C588.57 114.628 588.08 114.272 588.16 113.804L588.43 112.229C588.462 112.045 588.4 111.854 588.266 111.724L587.122 110.608C586.783 110.278 586.97 109.701 587.439 109.632L589.021 109.403C589.207 109.376 589.368 109.259 589.45 109.091L590.157 107.657C590.369 107.231 590.974 107.231 591.184 107.657Z" fill="#F5F5F5"/>
<path d="M579.013 371.875L580.236 374.356C580.38 374.648 580.659 374.85 580.981 374.898L583.718 375.295C584.53 375.413 584.853 376.411 584.267 376.984L582.286 378.914C582.052 379.141 581.946 379.469 582.002 379.791L582.469 382.516C582.608 383.324 581.759 383.942 581.033 383.559L578.584 382.273C578.296 382.122 577.951 382.122 577.663 382.273L575.214 383.559C574.488 383.942 573.639 383.324 573.778 382.516L574.246 379.791C574.3 379.47 574.194 379.142 573.961 378.914L571.98 376.984C571.392 376.411 571.717 375.414 572.529 375.295L575.266 374.898C575.588 374.851 575.867 374.648 576.011 374.356L577.235 371.875C577.6 371.14 578.649 371.14 579.013 371.875Z" fill="#F0F0F0"/>
<path d="M429.049 139.839C429.049 140.865 428.217 141.697 427.191 141.697C426.165 141.697 425.333 140.865 425.333 139.839C425.333 138.813 426.165 137.981 427.191 137.981C428.217 137.981 429.049 138.813 429.049 139.839Z" fill="#F0F0F0"/>
<path d="M480.63 502.591C479.604 502.591 478.773 501.76 478.773 500.734C478.773 499.707 479.604 498.876 480.63 498.876C481.657 498.876 482.488 499.707 482.488 500.734C482.488 501.76 481.657 502.591 480.63 502.591Z" fill="#F5F5F5"/>
<path d="M550.127 186.396C560.966 183.102 570.784 179.159 578.771 175.054C575.808 186.84 566.923 196.83 554.452 200.621C541.956 204.419 528.99 201.071 519.938 192.911C528.88 191.87 539.263 189.698 550.127 186.396Z" fill="#F5F5F5"/>
<path d="M544.013 163.566C531.296 167.431 516.938 165.005 508.335 169.883C506.614 153.189 516.885 137.082 533.595 132.002C550.282 126.929 567.779 134.596 575.639 149.423C565.778 150.16 556.727 159.702 544.013 163.566Z" fill="#F5F5F5"/>
<path d="M597.997 149.904C599.599 155.173 576.728 166.793 546.912 175.857C517.097 184.92 491.628 187.995 490.026 182.724C488.425 177.454 511.295 165.834 541.111 156.771C570.927 147.708 596.395 144.634 597.997 149.904Z" fill="#F5F5F5"/>
<path d="M151.034 289.007C159.8 322.858 185.689 347.734 217.025 356.77C232.878 361.345 250.121 361.853 267.244 357.42C287.161 352.262 303.949 341.187 316.257 326.561L316.279 326.543C329.432 310.907 337.442 291.195 338.573 270.348C338.934 263.949 338.637 257.455 337.643 250.919C337.148 247.683 336.492 244.437 335.654 241.197C334.776 237.809 333.723 234.507 332.514 231.312C324 208.728 307.526 190.964 287.218 180.444C267.071 169.989 243.133 166.65 219.433 172.788C196.092 178.833 177.013 193.034 164.459 211.548C150.248 232.471 144.4 258.945 150.176 285.377C150.434 286.589 150.721 287.795 151.034 289.007Z" fill="#EBEBEB"/>
<path d="M98.9782 206.175C100.412 211.712 104.647 215.782 109.772 217.259C112.365 218.008 115.186 218.09 117.986 217.365C121.244 216.521 123.989 214.709 126.002 212.318L126.007 212.315C128.158 209.758 129.469 206.533 129.654 203.123C129.712 202.076 129.665 201.015 129.501 199.945C129.42 199.416 129.313 198.885 129.176 198.355C129.032 197.8 128.861 197.26 128.662 196.738C127.269 193.043 124.576 190.138 121.254 188.417C117.958 186.708 114.042 186.162 110.166 187.164C106.348 188.153 103.227 190.477 101.173 193.505C98.8494 196.928 97.8918 201.258 98.8368 205.581C98.8802 205.78 98.9278 205.978 98.9782 206.175Z" fill="#EBEBEB"/>
<path d="M150.175 285.377L154.526 279.869L160.979 296.84L170.259 284.027L175.226 264.693L196.504 251.795L193.888 257.539L182.089 262.917L176.509 274.177L194.212 273.511L212.877 256.131L201.387 275.136L192.374 282.259L200.055 287.011L213.71 305.757L212.57 313.835C212.57 313.835 223.752 321.914 224.996 322.186C226.238 322.445 249.914 338.016 249.914 338.016L240.87 306.506L241.108 282.514L263.566 283.756L281.68 268.221L269.418 242.373L260.25 237.532L250.903 239.953L219.721 251.431L219.86 245.749L237.498 228.939L248.84 226.885L257.959 230.974L263.177 229.623L254.073 218.208L245.63 214.484L226.606 209.49L212.398 214.634L190.815 218.456C190.815 218.456 173.031 213.813 164.462 211.547C150.246 232.471 144.398 258.945 150.175 285.377Z" fill="#FAFAFA"/>
<path d="M217.024 356.769C232.877 361.344 250.12 361.852 267.243 357.418C287.16 352.261 303.948 341.185 316.256 326.56L302.74 333.714L290.44 343.931L258.012 352.329L230.478 352.427L217.024 356.769Z" fill="#FAFAFA"/>
<path d="M266.978 178.47L276.857 180.579L271.521 188.805L276.127 206.589L236.113 199.841L234.376 193.135L247.345 189.155L266.978 178.47Z" fill="#FAFAFA"/>
<path d="M281.07 196.851L287.596 210.688L302.45 218.279L318.544 224.956L326.182 232.951L332.512 231.312C323.998 208.728 307.525 190.964 287.216 180.444L281.07 196.851Z" fill="#FAFAFA"/>
<path d="M298.786 289.002L310.351 297.444L310.827 306.107L312.108 311.052L312.801 319.382L316.29 317.013L322.931 304.146L328.509 283.811L336.084 272.311L338.571 270.348C338.932 263.949 338.635 257.456 337.641 250.919L334.701 254.49L321.691 252.952L310.156 255.939L307.641 266.603L303.072 276.164L292.556 281.961L298.786 289.002Z" fill="#FAFAFA"/>
<path d="M350.001 598.585C200.086 598.585 78.5561 591.488 78.5561 582.733C78.5561 573.978 200.086 566.881 350.001 566.881C499.915 566.881 621.445 573.978 621.445 582.733C621.445 591.488 499.915 598.585 350.001 598.585Z" fill="#F5F5F5"/>
<path d="M378.192 236.565C372.885 233.167 369.841 226.286 365.625 221.694C357.251 212.574 344.251 197.692 342.294 189.232L374.881 177.965L385.647 204.453C387.929 210.56 398.088 219.48 403.733 222.383C407.041 224.102 410.657 225.618 414.324 227.15C421.676 230.112 429.598 232.811 437.25 235.401L435.321 249.303C430.711 249.363 426.413 249.117 421.965 248.738C417.556 248.319 413.134 247.755 408.698 246.922C404.248 246.111 399.801 245.047 395.264 243.621C390.72 242.204 382.873 239.561 378.192 236.565Z" fill="#407BFF"/>
<path opacity="0.8" d="M378.192 236.565C372.885 233.167 369.841 226.286 365.625 221.694C357.251 212.574 344.251 197.692 342.294 189.232L374.881 177.965L385.647 204.453C387.929 210.56 398.088 219.48 403.733 222.383C407.041 224.102 410.657 225.618 414.324 227.15C421.676 230.112 429.598 232.811 437.25 235.401L435.321 249.303C430.711 249.363 426.413 249.117 421.965 248.738C417.556 248.319 413.134 247.755 408.698 246.922C404.248 246.111 399.801 245.047 395.264 243.621C390.72 242.204 382.873 239.561 378.192 236.565Z" fill="white"/>
<path d="M412.213 249.393L418.119 227.122C418.119 227.122 452.356 233.371 453.444 242.844C454.568 252.637 430.736 252.4 412.213 249.393Z" fill="#263238"/>
<path d="M436.763 237.786L431.805 230.84C431.805 230.84 449.193 228.652 449.651 231.438C450.27 235.207 445.103 237.8 436.763 237.786Z" fill="#263238"/>
<path d="M279.09 386.89C279.44 386.89 279.793 386.775 280.087 386.54C286.839 381.132 308.311 362.002 301.099 342.859C295.183 327.156 280.859 313.916 263.718 308.307C257.181 306.167 250.275 305.05 243.596 303.971C238.994 303.227 234.235 302.457 229.681 301.363C208.754 296.332 198.215 282.516 202.177 265.304C203.974 257.499 208.814 251.195 213.938 244.521C217.999 239.232 222.199 233.762 224.724 227.482C224.746 227.429 224.764 227.373 224.78 227.318C227.178 218.764 223.769 210.546 220.47 202.597C219.696 200.732 218.965 198.969 218.305 197.196C215.47 189.591 212.906 181.415 213.343 173.158C213.868 163.297 220.43 152.769 230.06 146.335C245.113 136.279 272.886 127.292 284.693 139.936C285.72 141.036 286.612 142.237 287.554 143.507C288.741 145.107 289.968 146.761 291.508 148.225C296.075 152.568 302.956 154.63 309.461 153.609C316.069 152.572 322.431 147.959 325.29 142.132C325.678 141.341 325.351 140.385 324.56 139.996C323.769 139.608 322.812 139.934 322.424 140.727C320.003 145.663 314.595 149.572 308.967 150.455C303.497 151.316 297.512 149.53 293.71 145.912C292.37 144.638 291.277 143.165 290.12 141.606C289.166 140.321 288.18 138.991 287.029 137.757C272.553 122.254 241.203 135.054 228.289 143.682C217.85 150.655 210.732 162.161 210.157 172.99C209.688 181.831 212.357 190.385 215.314 198.313C215.996 200.141 216.773 202.013 217.523 203.822C220.601 211.24 223.784 218.911 221.729 226.374C219.363 232.217 215.318 237.483 211.407 242.578C206.3 249.229 201.019 256.106 199.066 264.589C194.733 283.412 206.458 299.065 228.935 304.468C233.605 305.591 238.425 306.369 243.085 307.122C249.644 308.182 256.424 309.278 262.724 311.34C278.968 316.658 292.527 329.165 298.109 343.984C304.563 361.113 284.417 378.98 278.089 384.047C277.4 384.597 277.289 385.602 277.841 386.291C278.157 386.686 278.622 386.89 279.09 386.89Z" fill="#407BFF"/>
<path opacity="0.7" d="M279.09 386.89C279.44 386.89 279.793 386.775 280.087 386.54C286.839 381.132 308.311 362.002 301.099 342.859C295.183 327.156 280.859 313.916 263.718 308.307C257.181 306.167 250.275 305.05 243.596 303.971C238.994 303.227 234.235 302.457 229.681 301.363C208.754 296.332 198.215 282.516 202.177 265.304C203.974 257.499 208.814 251.195 213.938 244.521C217.999 239.232 222.199 233.762 224.724 227.482C224.746 227.429 224.764 227.373 224.78 227.318C227.178 218.764 223.769 210.546 220.47 202.597C219.696 200.732 218.965 198.969 218.305 197.196C215.47 189.591 212.906 181.415 213.343 173.158C213.868 163.297 220.43 152.769 230.06 146.335C245.113 136.279 272.886 127.292 284.693 139.936C285.72 141.036 286.612 142.237 287.554 143.507C288.741 145.107 289.968 146.761 291.508 148.225C296.075 152.568 302.956 154.63 309.461 153.609C316.069 152.572 322.431 147.959 325.29 142.132C325.678 141.341 325.351 140.385 324.56 139.996C323.769 139.608 322.812 139.934 322.424 140.727C320.003 145.663 314.595 149.572 308.967 150.455C303.497 151.316 297.512 149.53 293.71 145.912C292.37 144.638 291.277 143.165 290.12 141.606C289.166 140.321 288.18 138.991 287.029 137.757C272.553 122.254 241.203 135.054 228.289 143.682C217.85 150.655 210.732 162.161 210.157 172.99C209.688 181.831 212.357 190.385 215.314 198.313C215.996 200.141 216.773 202.013 217.523 203.822C220.601 211.24 223.784 218.911 221.729 226.374C219.363 232.217 215.318 237.483 211.407 242.578C206.3 249.229 201.019 256.106 199.066 264.589C194.733 283.412 206.458 299.065 228.935 304.468C233.605 305.591 238.425 306.369 243.085 307.122C249.644 308.182 256.424 309.278 262.724 311.34C278.968 316.658 292.527 329.165 298.109 343.984C304.563 361.113 284.417 378.98 278.089 384.047C277.4 384.597 277.289 385.602 277.841 386.291C278.157 386.686 278.622 386.89 279.09 386.89Z" fill="white"/>
<path opacity="0.2" d="M373.857 212.352C375.656 215.362 376.067 224.901 375.145 234.021C371.56 230.405 368.955 225.33 365.624 221.687C365.401 221.442 365.165 221.194 364.931 220.932C368.57 215.726 372.765 210.501 373.857 212.352Z" fill="black"/>
<path d="M374.879 177.965C374.879 177.965 383.334 212.252 359.398 269.041C340.131 265.611 304.827 259.327 295.453 257.659C296.551 248.941 310.29 209.361 308.068 166.968C308.068 166.968 319.303 165.515 329.827 166.932C338.059 168.039 349.93 169.915 357.01 171.771C366.345 174.217 374.879 177.965 374.879 177.965Z" fill="#407BFF"/>
<path opacity="0.8" d="M374.879 177.965C374.879 177.965 383.334 212.252 359.398 269.041C340.131 265.611 304.827 259.327 295.453 257.659C296.551 248.941 310.29 209.361 308.068 166.968C308.068 166.968 319.303 165.515 329.827 166.932C338.059 168.039 349.93 169.915 357.01 171.771C366.345 174.217 374.879 177.965 374.879 177.965Z" fill="white"/>
<path opacity="0.2" d="M315.412 198.929C312.836 202.391 308.962 205.846 305.881 208.328C306.306 205.409 306.693 202.411 307.018 199.353L315.412 198.929Z" fill="black"/>
<path d="M359.399 269.04C359.399 269.04 391.819 306.698 389.166 339.209C386.408 373.026 351.174 428.453 351.174 428.453L329.781 417.732C329.781 417.732 343.828 359.48 354.655 342.552C342.811 322.819 327.168 299.28 316.369 263.173C336.142 266.694 359.399 269.04 359.399 269.04Z" fill="#407BFF"/>
<path opacity="0.8" d="M359.399 269.04C359.399 269.04 391.819 306.698 389.166 339.209C386.408 373.026 351.174 428.453 351.174 428.453L329.781 417.732C329.781 417.732 343.828 359.48 354.655 342.552C342.811 322.819 327.168 299.28 316.369 263.173C336.142 266.694 359.399 269.04 359.399 269.04Z" fill="white"/>
<path opacity="0.2" d="M328.956 288.753C334.843 293.185 338.416 306.233 338.52 315.309C333.977 307.104 329.407 298.054 325.151 287.833C326.443 287.596 327.723 287.837 328.956 288.753Z" fill="black"/>
<path d="M350.607 426.44L332.407 415.342C331.854 415.038 331.139 415.207 330.684 415.749L322.915 429.156C321.865 430.407 322.113 432.276 323.403 432.952C328.758 435.766 329.172 435.496 335.846 439.17C339.952 441.429 348.146 446.567 353.816 449.688C359.362 452.74 363.389 447.227 361.701 445.044C355.477 437.001 353.757 433.794 352.285 428.583C352.02 427.644 351.417 426.885 350.607 426.44Z" fill="#407BFF"/>
<path opacity="0.8" d="M350.607 426.44L332.407 415.342C331.854 415.038 331.139 415.207 330.684 415.749L322.915 429.156C321.865 430.407 322.113 432.276 323.403 432.952C328.758 435.766 329.172 435.496 335.846 439.17C339.952 441.429 348.146 446.567 353.816 449.688C359.362 452.74 363.389 447.227 361.701 445.044C355.477 437.001 353.757 433.794 352.285 428.583C352.02 427.644 351.417 426.885 350.607 426.44Z" fill="white"/>
<path d="M208.142 447.499L314.789 556.705L333.15 519.495L245.776 430.024L208.142 447.499Z" fill="#407BFF"/>
<path opacity="0.4" d="M208.142 447.499L314.789 556.705L333.15 519.495L245.776 430.024L208.142 447.499Z" fill="black"/>
<path d="M220.621 472.587L290.003 543.632L321.064 500.757L264.22 442.551L220.621 472.587Z" fill="#407BFF"/>
<path opacity="0.3" d="M220.621 472.587L290.003 543.632L321.064 500.757L264.22 442.551L220.621 472.587Z" fill="black"/>
<path d="M416.617 449.924C416.617 449.924 389.329 479.001 365.874 504.293C359.159 511.535 357.116 521.829 359.983 531.424C365.404 549.562 357.458 581.728 357.458 581.728C383.4 559.606 453.065 540.266 416.617 449.924Z" fill="#407BFF"/>
<path opacity="0.3" d="M416.617 449.924C416.617 449.924 389.329 479.001 365.874 504.293C359.159 511.535 357.116 521.829 359.983 531.424C365.404 549.562 357.458 581.728 357.458 581.728C383.4 559.606 453.065 540.266 416.617 449.924Z" fill="black"/>
<path d="M317.305 348.23C317.305 348.23 287.59 374.821 261.747 397.669C254.348 404.211 244.008 406.009 234.483 402.915C216.478 397.066 184.132 404.246 184.132 404.246C206.866 378.836 227.852 309.65 317.305 348.23Z" fill="#407BFF"/>
<path opacity="0.3" d="M317.305 348.23C317.305 348.23 287.59 374.821 261.747 397.669C254.348 404.211 244.008 406.009 234.483 402.915C216.478 397.066 184.132 404.246 184.132 404.246C206.866 378.836 227.852 309.65 317.305 348.23Z" fill="black"/>
<path d="M385.42 278.126C443.863 227.24 506.965 211.409 532.429 237.485C557.894 263.56 540.572 326.27 488.314 383.491L358.673 525.444C347.926 537.211 329.495 537.519 318.362 526.119L238.803 444.65C227.669 433.248 228.414 414.831 240.433 404.366L385.42 278.126Z" fill="#407BFF"/>
<path opacity="0.1" d="M316.696 504.72C313.607 506.285 312.874 510.352 315.28 512.841C323.813 521.65 339.992 519.416 350.647 507.926L479.265 369.316C505.098 341.476 523.483 313.369 533.008 289.677C535.804 282.723 526.084 277.763 522.044 284.076C509.147 304.226 489.932 328.278 465.863 353.341L330.489 494.258C326.088 498.836 321.261 502.406 316.696 504.72Z" fill="white"/>
<path opacity="0.1" d="M478.653 227.209C491.733 226.736 508.162 234.201 521.651 248.012C535.127 261.811 542.2 278.414 541.43 291.491C546.719 268.603 543.96 249.297 532.428 237.488C520.895 225.68 501.66 222.464 478.653 227.209Z" fill="black"/>
<path opacity="0.3" d="M433.424 382.829C406.007 382.28 384.226 359.61 384.775 332.193C385.323 304.776 407.993 282.995 435.41 283.544C462.827 284.092 484.608 306.762 484.06 334.179C483.511 361.596 460.841 383.377 433.424 382.829Z" fill="black"/>
<path d="M396.971 362.201C380.057 340.614 383.845 309.403 405.432 292.489C427.019 275.575 458.23 279.363 475.144 300.95C492.058 322.536 488.27 353.747 466.683 370.661C445.096 387.576 413.885 383.788 396.971 362.201Z" fill="white"/>
<path opacity="0.7" d="M402.222 361.114C385.919 342.412 387.864 314.034 406.567 297.73C425.269 281.427 453.647 283.372 469.951 302.075C486.254 320.777 484.309 349.155 465.607 365.459C446.904 381.762 418.526 379.817 402.222 361.114Z" fill="#407BFF"/>
<g opacity="0.2">
<path d="M468.222 300.181C472.621 304.686 475.88 309.866 477.993 315.388L478.004 315.4L456.503 371.601C447.742 376.072 437.811 377.479 428.336 375.817L459.84 293.441C462.843 295.295 465.646 297.542 468.222 300.181Z" fill="white"/>
<path d="M456.541 291.579L424.631 375.01C419.799 373.747 415.139 371.662 410.856 368.77L442.082 287.055C447.08 287.717 451.969 289.213 456.541 291.579Z" fill="white"/>
</g>
<path d="M267.554 430.361L258.053 411.386C257.748 410.837 257.052 410.603 256.38 410.823L242.946 417.134C241.393 417.641 240.609 419.35 241.34 420.603C244.375 425.804 244.609 426.731 248.304 433.355C250.576 437.429 254.779 446.092 257.918 451.718C260.986 457.222 267.323 454.679 267.054 451.944C266.061 441.861 266.312 438.243 267.835 433.058C268.108 432.124 268.002 431.164 267.554 430.361Z" fill="#407BFF"/>
<path opacity="0.8" d="M267.554 430.361L258.053 411.386C257.748 410.837 257.052 410.603 256.38 410.823L242.946 417.134C241.393 417.641 240.609 419.35 241.34 420.603C244.375 425.804 244.609 426.731 248.304 433.355C250.576 437.429 254.779 446.092 257.918 451.718C260.986 457.222 267.323 454.679 267.054 451.944C266.061 441.861 266.312 438.243 267.835 433.058C268.108 432.124 268.002 431.164 267.554 430.361Z" fill="white"/>
<path d="M336.715 265.003C336.715 265.003 336.59 324.594 323.779 353.395C309.749 384.934 266.688 433.967 266.688 433.967L250.444 417.656C250.444 417.656 270.926 372.909 289.946 348.916C290.333 319.394 287.198 287.2 294.979 260.447C319.468 264.805 336.715 265.003 336.715 265.003Z" fill="#407BFF"/>
<path opacity="0.8" d="M336.715 265.003C336.715 265.003 336.59 324.594 323.779 353.395C309.749 384.934 266.688 433.967 266.688 433.967L250.444 417.656C250.444 417.656 270.926 372.909 289.946 348.916C290.333 319.394 287.198 287.2 294.979 260.447C319.468 264.805 336.715 265.003 336.715 265.003Z" fill="white"/>
<path d="M297.056 265.035C326.741 271.899 349.099 272.595 358.22 272.526C360.652 272.508 362.562 270.45 362.416 268.023L362.415 268.009C362.28 265.753 360.411 264.002 358.152 264.012C349.507 264.051 327.59 263.363 298.947 256.748C296.686 256.226 294.421 257.621 293.868 259.875C293.304 262.179 294.743 264.5 297.056 265.035Z" fill="#263238"/>
<path d="M264.123 202.909C266.641 197.132 270.142 193.302 274.87 189.236C284.255 181.161 299.55 168.651 308.069 166.968L318.275 199.903L291.453 209.807C286.14 213.585 284.958 216.072 283.385 222.22C282.444 225.827 281.77 229.691 281.093 233.605C279.841 241.433 278.97 249.757 278.149 257.793L264.165 259.005C263.082 254.524 262.365 250.279 261.745 245.858C261.172 241.468 260.738 237.03 260.563 232.52C260.364 228.001 260.411 223.43 260.793 218.688C261.165 213.944 261.903 208.005 264.123 202.909Z" fill="#407BFF"/>
<path opacity="0.8" d="M264.123 202.909C266.641 197.132 270.142 193.302 274.87 189.236C284.255 181.161 299.55 168.651 308.069 166.968L318.275 199.903L291.453 209.807C286.14 213.585 284.958 216.072 283.385 222.22C282.444 225.827 281.77 229.691 281.093 233.605C279.841 241.433 278.97 249.757 278.149 257.793L264.165 259.005C263.082 254.524 262.365 250.279 261.745 245.858C261.172 241.468 260.738 237.03 260.563 232.52C260.364 228.001 260.411 223.43 260.793 218.688C261.165 213.944 261.903 208.005 264.123 202.909Z" fill="white"/>
<path d="M259.866 237.259L281.967 237.301C281.967 237.301 283.491 272.07 274.496 275.238C265.199 278.513 261.055 255.988 259.866 237.259Z" fill="#263238"/>
<path d="M275.714 257.849L281.383 251.47C281.383 251.47 286.695 265.98 283.463 267.773C280.123 269.627 277.555 265.983 275.714 257.849Z" fill="#263238"/>
<path opacity="0.2" d="M329.821 166.933C338.066 168.043 349.936 169.911 357.009 171.77C360.447 172.668 363.754 173.746 366.588 174.737C360.452 176.987 353.592 177.622 347.481 176.611C345.138 176.217 342.887 175.561 340.797 174.665C334.91 173.246 328.977 170.352 323.86 166.404C325.83 166.502 327.841 166.666 329.821 166.933Z" fill="black"/>
<path d="M340.694 141.072C340.832 149.038 339.829 163.412 333.529 167.59C333.529 167.59 333.436 171.074 346.459 173.359C357.084 175.222 357.453 171.848 357.453 171.848C349.234 168.27 350.589 161.941 353.15 156.226L340.694 141.072Z" fill="#FFB573"/>
<path opacity="0.2" d="M345.768 147.255L353.141 156.219C352.53 157.57 351.995 158.956 351.647 160.333C348.452 159.276 344.588 154.873 344.851 151.379C344.983 149.636 345.347 148.004 345.768 147.255Z" fill="black"/>
<path d="M365.037 140.208C368.804 135.104 373.062 127.692 371.225 124.026C369.387 120.359 361.754 118.212 358.282 120.909C353.918 124.3 357.105 134.881 365.037 140.208Z" fill="#263238"/>
<path d="M340.188 130.155C339.868 140.757 339.142 146.947 343.97 152.846C351.233 161.721 364.69 158.088 368.17 147.795C371.303 138.53 371.3 122.748 361.366 117.606C351.58 112.539 340.509 119.553 340.188 130.155Z" fill="#FFB573"/>
<path d="M340.563 140.091C345.267 135.835 350.911 129.414 349.835 125.457C348.76 121.499 341.704 117.881 337.766 119.837C332.818 122.294 333.845 133.298 340.563 140.091Z" fill="#263238"/>
<path d="M345.758 124.792C352.995 126.799 373.466 130.826 370.593 122.212C367.72 113.597 356.472 111.944 352.337 113.798C348.201 115.651 345.043 110.733 345.043 110.733C344.452 112.169 347.584 115.979 352.092 116.606C356.6 117.233 332.798 113.102 339.027 121.558C345.256 130.014 345.758 124.792 345.758 124.792Z" fill="#263238"/>
<path d="M334.359 141.34C335.632 143.9 337.97 145.635 340.21 146.347C343.58 147.418 345.389 144.436 344.557 141.191C343.808 138.271 341.154 134.193 337.721 134.536C334.34 134.872 332.903 138.411 334.359 141.34Z" fill="#FFB573"/>
<path d="M355.91 134.571C355.832 135.429 356.223 136.167 356.784 136.218C357.345 136.27 357.863 135.616 357.943 134.757C358.022 133.899 357.631 133.161 357.07 133.109C356.508 133.057 355.989 133.711 355.91 134.571Z" fill="#263238"/>
<path d="M365.611 135.461C365.533 136.319 365.924 137.057 366.485 137.109C367.046 137.161 367.564 136.507 367.644 135.647C367.723 134.789 367.332 134.051 366.771 133.999C366.208 133.948 365.69 134.603 365.611 135.461Z" fill="#263238"/>
<path d="M362.489 135.605C362.489 135.605 363.987 140.736 365.916 143.324C364.267 144.602 361.744 143.717 361.744 143.717L362.489 135.605Z" fill="#ED893E"/>
<path d="M354.764 144.117C355.678 144.892 357.063 145.678 359.024 145.858C359.164 145.87 359.287 145.768 359.3 145.629C359.312 145.488 359.209 145.368 359.07 145.354C355.313 145.009 353.784 142.215 353.77 142.185C353.703 142.062 353.551 142.015 353.427 142.08C353.304 142.146 353.256 142.299 353.322 142.423C353.357 142.486 353.795 143.296 354.764 144.117Z" fill="#263238"/>
<path d="M352.99 131.054C353.197 131.229 353.508 131.211 353.691 131.009C355.213 129.342 357.057 129.619 357.076 129.623C357.352 129.669 357.613 129.48 357.657 129.205C357.702 128.93 357.516 128.668 357.24 128.624C357.144 128.608 354.832 128.258 352.945 130.326C352.756 130.532 352.771 130.854 352.977 131.041C352.981 131.047 352.986 131.051 352.99 131.054Z" fill="#263238"/>
<path d="M369.882 132.399C370.018 132.515 370.211 132.554 370.389 132.487C370.651 132.389 370.782 132.097 370.684 131.835C369.696 129.214 367.418 128.685 367.323 128.664C367.05 128.604 366.78 128.776 366.72 129.049C366.659 129.32 366.83 129.589 367.103 129.652C367.182 129.67 368.951 130.104 369.738 132.192C369.767 132.274 369.819 132.346 369.882 132.399Z" fill="#263238"/>
<path d="M317.091 137.025C313.812 154.347 323.958 170.728 339.957 174.563C340.573 174.701 341.207 174.836 341.834 174.949C349.742 176.324 357.548 174.454 363.985 170.255C358.088 171.74 351.683 171.257 345.764 168.46C332.145 162.024 326.334 145.768 332.762 132.161C339.198 118.542 355.442 112.723 369.062 119.159C370.473 119.827 371.801 120.605 373.039 121.479C369.914 117.292 365.779 113.958 360.918 111.843L360.88 111.825C358.777 110.922 356.546 110.261 354.196 109.848C337.108 106.877 320.508 119.056 317.091 137.025Z" fill="#407BFF"/>
<path opacity="0.8" d="M317.091 137.025C313.812 154.347 323.958 170.728 339.957 174.563C340.573 174.701 341.207 174.836 341.834 174.949C349.742 176.324 357.548 174.454 363.985 170.255C358.088 171.74 351.683 171.257 345.764 168.46C332.145 162.024 326.334 145.768 332.762 132.161C339.198 118.542 355.442 112.723 369.062 119.159C370.473 119.827 371.801 120.605 373.039 121.479C369.914 117.292 365.779 113.958 360.918 111.843L360.88 111.825C358.777 110.922 356.546 110.261 354.196 109.848C337.108 106.877 320.508 119.056 317.091 137.025Z" fill="white"/>
<path d="M323.471 139.132C320.408 154.618 327.574 169.166 339.956 174.564C341.917 175.414 344.019 176.03 346.208 176.398C356.315 178.054 366.335 173.808 373.273 165.985C370.463 167.99 367.303 169.45 363.984 170.258C358.087 171.743 351.682 171.26 345.763 168.463C332.144 162.027 326.332 145.77 332.761 132.164C339.197 118.545 355.441 112.726 369.06 119.162C370.472 119.83 371.8 120.608 373.038 121.482C375.744 123.351 378.025 125.671 379.822 128.277C376.308 120.104 369.574 113.908 360.915 111.846L360.877 111.827C360.274 111.694 359.678 111.578 359.063 111.469C342.963 108.812 327.017 121.209 323.471 139.132Z" fill="#407BFF"/>
<path opacity="0.6" d="M323.471 139.132C320.408 154.618 327.574 169.166 339.956 174.564C341.917 175.414 344.019 176.03 346.208 176.398C356.315 178.054 366.335 173.808 373.273 165.985C370.463 167.99 367.303 169.45 363.984 170.258C358.087 171.743 351.682 171.26 345.763 168.463C332.144 162.027 326.332 145.77 332.761 132.164C339.197 118.545 355.441 112.726 369.06 119.162C370.472 119.83 371.8 120.608 373.038 121.482C375.744 123.351 378.025 125.671 379.822 128.277C376.308 120.104 369.574 113.908 360.915 111.846L360.877 111.827C360.274 111.694 359.678 111.578 359.063 111.469C342.963 108.812 327.017 121.209 323.471 139.132Z" fill="white"/>
<path opacity="0.2" d="M330.177 142.504C329.458 157.545 341.069 170.32 356.109 171.038C371.149 171.756 383.923 160.146 384.642 145.106C385.36 130.065 373.75 117.29 358.71 116.572C343.67 115.854 330.895 127.464 330.177 142.504Z" fill="#407BFF"/>
<path opacity="0.2" d="M384.641 145.104C383.922 160.144 371.147 171.755 356.109 171.036C341.068 170.318 329.458 157.545 330.176 142.504C342.404 139.748 372.007 137.821 384.641 145.104Z" fill="#407BFF"/>
<path opacity="0.2" d="M326.053 208.701C338.294 209.429 350.722 211.062 363.22 213.664L363.895 213.036L327.385 188.046L326.711 188.674C326.711 188.674 326.426 202.056 326.053 208.701Z" fill="black"/>
<path d="M326.728 208.072C338.969 208.801 351.397 210.434 363.895 213.035C364.594 206.336 365.114 199.582 365.453 192.78C352.664 190.284 339.938 188.724 327.386 188.045C327.321 194.752 327.103 201.429 326.728 208.072Z" fill="white"/>
<path opacity="0.3" d="M334.702 194.517C334.464 196.138 335.396 197.618 336.785 197.823C338.174 198.027 339.492 196.878 339.73 195.256C339.968 193.635 339.036 192.155 337.647 191.951C336.258 191.747 334.94 192.896 334.702 194.517Z" fill="#407BFF"/>
<path opacity="0.3" d="M334.469 202.486C334.231 204.107 335.164 205.587 336.552 205.791C337.941 205.996 339.26 204.846 339.498 203.225C339.736 201.604 338.804 200.124 337.415 199.92C336.027 199.715 334.707 200.865 334.469 202.486Z" fill="#407BFF"/>
<path d="M359.312 207.313C359.312 207.313 351.692 205.927 345.628 205.592C348.67 201.387 353.224 194.205 353.224 194.205C353.224 194.205 357.607 202.447 359.312 207.313Z" fill="#407BFF"/>
</g>
<defs>
<clipPath id="clip0_46_482">
<rect width="700" height="700" fill="white" transform="matrix(-1 0 0 1 700 0)"/>
</clipPath>
</defs>
</svg>
