<svg width="41" height="41" viewBox="0 0 41 41" fill="none" xmlns="http://www.w3.org/2000/svg">
<path fill-rule="evenodd" clip-rule="evenodd" d="M11.2655 15.2857C11.713 14.5574 12.2447 13.8865 12.8463 13.2857C13.1713 12.9607 13.1722 12.4332 12.8472 12.1074C12.5222 11.7824 11.9938 11.7815 11.668 12.1065C10.7788 12.9957 10.0222 14.0174 9.43134 15.1399C8.68967 15.2032 7.98801 15.3907 7.34717 15.6799C8.08051 13.8532 9.18384 12.214 10.5647 10.8549C10.8922 10.5324 10.8963 10.004 10.5738 9.67654C10.2513 9.34904 9.72301 9.34487 9.39551 9.66737C7.28884 11.7407 5.75967 14.399 5.07134 17.3782C5.06634 17.4007 5.06551 17.424 5.06884 17.4465C4.29217 18.424 3.83301 19.639 3.83301 20.9499C3.83301 24.1549 6.57717 26.7832 9.98884 26.7832C10.9055 26.7832 12.1455 26.429 13.4713 25.8749C14.8897 25.2832 16.4188 24.4707 17.7347 23.7149C16.9788 25.0307 16.1663 26.5599 15.5747 27.9782C15.248 28.759 14.9913 29.5107 14.8355 30.184C14.0997 29.7315 13.423 29.194 12.818 28.5857C12.4938 28.259 11.9655 28.2582 11.6397 28.5824C11.313 28.9065 11.3113 29.434 11.6363 29.7607C12.5297 30.659 13.5588 31.4232 14.6897 32.0182C14.753 32.759 14.9405 33.4615 15.2297 34.1024C13.4322 33.3807 11.8163 32.3007 10.4705 30.9507C10.1455 30.6257 9.61717 30.6249 9.29217 30.949C8.96634 31.274 8.96551 31.8024 9.29051 32.1282C11.2905 34.134 13.8263 35.6065 16.663 36.314C16.7805 36.3432 16.8997 36.3715 17.0188 36.3982C17.9922 37.164 19.1988 37.6165 20.4997 37.6165C23.7047 37.6165 26.333 34.8724 26.333 31.4607C26.333 30.544 25.9788 29.304 25.4247 27.9782C24.833 26.5599 24.0205 25.0307 23.2647 23.7149C24.5805 24.4707 26.1097 25.2832 27.528 25.8749C28.3088 26.2015 29.0605 26.4582 29.7338 26.614C29.3005 27.3182 28.7897 27.9682 28.213 28.554C27.8897 28.8815 27.8938 29.409 28.2213 29.7324C28.5488 30.0549 29.0763 30.0515 29.3997 29.724C30.2597 28.8515 30.993 27.8532 31.568 26.7599C32.3088 26.6965 33.0113 26.509 33.6522 26.2199C32.943 27.9865 31.8872 29.5774 30.5705 30.9099C30.2472 31.2365 30.2497 31.7649 30.5763 32.0882C30.9038 32.4115 31.4322 32.4082 31.7555 32.0815C33.8047 30.009 35.2863 27.3749 35.948 24.4307C36.7138 23.4574 37.1663 22.2507 37.1663 20.9499C37.1663 17.7449 34.4222 15.1165 31.0105 15.1165C30.0938 15.1165 28.8538 15.4707 27.528 16.0249C26.1097 16.6165 24.5805 17.429 23.2647 18.1849C24.0205 16.869 24.833 15.3399 25.4247 13.9215C25.7513 13.1407 26.008 12.389 26.1647 11.7157C26.8997 12.1682 27.5772 12.7065 28.183 13.3165C28.5072 13.6424 29.0355 13.644 29.3622 13.3199C29.688 12.9957 29.6897 12.4674 29.3655 12.1415C28.4713 11.2415 27.4413 10.4774 26.3097 9.88154C26.2463 9.1407 26.0588 8.4382 25.7697 7.79737C27.5963 8.5307 29.2347 9.63404 30.593 11.014C30.9163 11.3415 31.4438 11.3457 31.7722 11.0232C32.0997 10.6999 32.1038 10.1724 31.7813 9.84404C29.6988 7.72904 27.0263 6.19654 24.033 5.5132C24.0188 5.50987 24.0038 5.5082 23.9897 5.5082C23.0147 4.7382 21.8047 4.2832 20.4997 4.2832C17.2947 4.2832 14.6663 7.02737 14.6663 10.439C14.6663 11.3557 15.0205 12.5957 15.5747 13.9215C16.1663 15.3399 16.9788 16.869 17.7347 18.1849C16.4188 17.429 14.8897 16.6165 13.4713 16.0249C12.6905 15.6982 11.9388 15.4415 11.2655 15.2857ZM19.4238 24.124C19.7613 24.2449 20.1238 24.3107 20.4997 24.3107C20.8755 24.3107 21.238 24.2449 21.5755 24.124C22.3638 25.4699 23.2563 27.1107 23.8872 28.6207C24.3397 29.7049 24.6663 30.7107 24.6663 31.4607C24.6663 33.9249 22.8138 35.9499 20.4997 35.9499C18.1855 35.9499 16.333 33.9249 16.333 31.4607C16.333 30.7107 16.6597 29.7049 17.1122 28.6207C17.743 27.1107 18.6355 25.4699 19.4238 24.124ZM23.6738 19.874C25.0197 19.0857 26.6605 18.1932 28.1705 17.5624C29.2547 17.1099 30.2605 16.7832 31.0105 16.7832C33.4747 16.7832 35.4997 18.6357 35.4997 20.9499C35.4997 23.264 33.4747 25.1165 31.0105 25.1165C30.2605 25.1165 29.2547 24.7899 28.1705 24.3374C26.6605 23.7065 25.0197 22.814 23.6738 22.0257C23.7947 21.6882 23.8605 21.3257 23.8605 20.9499C23.8605 20.574 23.7947 20.2115 23.6738 19.874ZM17.3255 22.0257C15.9797 22.814 14.3388 23.7065 12.8288 24.3374C11.7447 24.7899 10.7388 25.1165 9.98884 25.1165C7.52467 25.1165 5.49967 23.264 5.49967 20.9499C5.49967 18.6357 7.52467 16.7832 9.98884 16.7832C10.7388 16.7832 11.7447 17.1099 12.8288 17.5624C14.3388 18.1932 15.9797 19.0857 17.3255 19.874C17.2047 20.2115 17.1388 20.574 17.1388 20.9499C17.1388 21.3257 17.2047 21.6882 17.3255 22.0257ZM20.4997 19.2832C21.4197 19.2832 22.1663 20.0299 22.1663 20.9499C22.1663 21.8699 21.4197 22.6165 20.4997 22.6165C19.5797 22.6165 18.833 21.8699 18.833 20.9499C18.833 20.0299 19.5797 19.2832 20.4997 19.2832ZM19.4238 17.7757C18.6355 16.4299 17.743 14.789 17.1122 13.279C16.6597 12.1949 16.333 11.189 16.333 10.439C16.333 7.97487 18.1855 5.94987 20.4997 5.94987C22.8138 5.94987 24.6663 7.97487 24.6663 10.439C24.6663 11.189 24.3397 12.1949 23.8872 13.279C23.2563 14.789 22.3638 16.4299 21.5755 17.7757C21.238 17.6549 20.8755 17.589 20.4997 17.589C20.1238 17.589 19.7613 17.6549 19.4238 17.7757Z" fill="#30A2FF"/>
</svg>
