<svg width="41" height="41" viewBox="0 0 41 41" fill="none" xmlns="http://www.w3.org/2000/svg">
<g clip-path="url(#clip0_135_166)">
<path fill-rule="evenodd" clip-rule="evenodd" d="M20.4308 36.7887C20.0802 36.7887 19.8495 36.5211 19.8495 36.2351V23.8152H13.1505C12.7814 23.8152 12.4862 23.4277 12.6338 23.0309L19.7203 4.68722C19.9418 4.11513 20.8276 4.26277 20.8276 4.88099V18.6111H27.8495C28.2186 18.6111 28.5692 18.9894 28.3662 19.4231L20.9567 36.4289C20.8552 36.6595 20.6615 36.7887 20.4308 36.7887ZM28.0802 32.7564C27.5173 32.7564 27.2774 32.0182 27.748 31.7137C31.3281 29.3054 33.4781 25.2731 33.4781 20.9456C33.4781 16.2305 30.9037 11.9121 26.7791 9.5961C26.1424 9.22701 26.6592 8.25815 27.3328 8.59033C31.8172 11.1001 34.613 15.8152 34.613 20.9456C34.613 25.6607 32.2693 30.0252 28.4031 32.6549C28.3016 32.7195 28.2093 32.7564 28.0802 32.7564ZM12.6338 32.5627C12.4954 32.5627 12.4031 32.5257 12.3016 32.4612C8.6015 29.8314 6.38697 25.5315 6.38697 20.9456C6.38697 16.0736 8.85986 11.6169 12.9844 9.01479C13.6211 8.61802 14.2301 9.60533 13.575 9.99287C9.80104 12.3643 7.52191 16.4612 7.52191 20.9456C7.52191 25.144 9.54268 29.1117 12.9567 31.5477C13.4181 31.8891 13.1782 32.5627 12.6338 32.5627ZM20.4954 40.9502C9.47808 40.9502 0.5 31.9721 0.5 20.9456C0.5 9.92828 9.47808 0.950195 20.4954 0.950195C31.5219 0.950195 40.5 9.92828 40.5 20.9456C40.5 31.9721 31.5219 40.9502 20.4954 40.9502ZM20.4954 2.08514C10.0963 2.08514 1.63495 10.5465 1.63495 20.9456C1.63495 31.3539 10.0963 39.8152 20.4954 39.8152C30.9037 39.8152 39.3651 31.3539 39.3651 20.9456C39.3651 10.5465 30.9037 2.08514 20.4954 2.08514ZM13.9994 22.6711H20.4308C20.763 22.6711 20.9844 22.9294 20.9844 23.2616V33.5038L26.9729 19.783H20.237C19.9141 19.783 19.6557 19.5154 19.6557 19.1924V7.94443L13.9994 22.6711Z" fill="#52050D"/>
<path fill-rule="evenodd" clip-rule="evenodd" d="M20.8274 18.6111H27.8493C28.2184 18.6111 28.569 18.9894 28.366 19.4231L20.9566 36.4289C20.8551 36.6595 20.6613 36.7887 20.4306 36.7887C20.08 36.7887 19.8493 36.5211 19.8493 36.2351V23.8152H13.1503C12.7812 23.8152 12.486 23.4277 12.6336 23.0309L19.7201 4.68722C19.9416 4.11513 20.8274 4.26277 20.8274 4.88099V18.6111ZM26.7789 9.5961C26.1423 9.22701 26.659 8.25815 27.3326 8.59033C31.817 11.1001 34.6129 15.8152 34.6129 20.9456C34.6129 25.6607 32.2691 30.0252 28.4029 32.6549C28.3014 32.7195 28.2092 32.7564 28.08 32.7564C27.5171 32.7564 27.2772 32.0182 27.7478 31.7138C31.328 29.3054 33.4779 25.2731 33.4779 20.9456C33.4779 16.2305 30.9035 11.9121 26.7789 9.5961ZM7.52173 20.9456C7.52173 25.144 9.54249 29.1117 12.9566 31.5477C13.4179 31.8891 13.178 32.5627 12.6336 32.5627C12.4952 32.5627 12.4029 32.5257 12.3014 32.4612C8.60132 29.8314 6.38678 25.5315 6.38678 20.9456C6.38678 16.0736 8.85968 11.6169 12.9842 9.01479C13.6209 8.61802 14.2299 9.60533 13.5748 9.99287C9.80086 12.3643 7.52173 16.4612 7.52173 20.9456ZM1.63477 20.9456C1.63477 31.3539 10.0961 39.8153 20.4952 39.8153C30.9035 39.8153 39.3649 31.3539 39.3649 20.9456C39.3649 10.5465 30.9035 2.08514 20.4952 2.08514C10.0961 2.08514 1.63477 10.5465 1.63477 20.9456Z" fill="#FF4500"/>
<path fill-rule="evenodd" clip-rule="evenodd" d="M19.6553 19.1924V7.94446L13.999 22.6711H20.4304C20.7626 22.6711 20.984 22.9295 20.984 23.2616V33.5039L26.9725 19.783H20.2366C19.9137 19.783 19.6553 19.5154 19.6553 19.1924Z" fill="#FFD300"/>
</g>
<defs>
<clipPath id="clip0_135_166">
<rect width="40" height="40" fill="white" transform="translate(0.5 0.950195)"/>
</clipPath>
</defs>
</svg>
