<svg width="41" height="41" viewBox="0 0 41 41" fill="none" xmlns="http://www.w3.org/2000/svg">
<g clip-path="url(#clip0_135_155)">
<path d="M39.9057 20.9502C39.9057 31.668 31.2173 40.3563 20.4996 40.3563C9.7821 40.3563 1.09375 31.668 1.09375 20.9502C1.09375 10.2327 9.7821 1.54437 20.4996 1.54437C31.2173 1.54437 39.9057 10.2327 39.9057 20.9502Z" fill="#F9D026"/>
<path d="M28.6445 8.97327L8.52271 29.095C6.94067 26.7745 6.0166 23.9705 6.0166 20.9502C6.0166 12.9518 12.5004 6.46716 20.4996 6.46716C23.52 6.46716 26.3239 7.39124 28.6445 8.97327Z" fill="#E6E6E6"/>
<path d="M34.9827 20.9499C34.9827 28.9482 28.4986 35.4329 20.5002 35.4329C17.4793 35.4329 14.6754 34.5089 12.3545 32.9268L14.7513 30.53L26.5089 18.7734L32.4772 12.8051C34.0583 15.1256 34.9827 17.9296 34.9827 20.9499Z" fill="#E6E6E6"/>
<path d="M16.5969 21.0213L12.293 25.3252C11.2411 19.4545 14.3072 13.1462 14.3072 13.1462C14.3072 17.3616 15.9405 20.0936 16.5969 21.0213Z" fill="#FF3131"/>
<path d="M23.9551 13.6638L16.8564 20.7625C16.8986 12.9271 23.0744 8.1557 23.0744 8.1557C22.9261 10.1107 23.3097 11.9356 23.9551 13.6638Z" fill="#FF3131"/>
<path d="M28.7266 26.9265C27.5733 33.069 18.9103 34.9437 14.752 30.5303L26.5095 18.7737C27.1458 19.8793 27.7729 20.9542 28.2957 22.0101C29.0577 23.5466 29.0363 25.2773 28.7266 26.9265Z" fill="#FF3131"/>
<path d="M34.6422 6.80804C30.8647 3.03058 25.8421 0.950195 20.5 0.950195C13.1733 0.950195 6.44086 4.94952 2.93042 11.3875C2.77356 11.6753 2.87946 12.0363 3.16754 12.1935C3.45593 12.3506 3.81665 12.2441 3.97382 11.9564C7.27582 5.90015 13.6082 2.13824 20.5 2.13824C25.5247 2.13824 30.2488 4.09503 33.802 7.64819C37.3552 11.2014 39.312 15.9255 39.312 20.9502C39.312 25.9749 37.3552 30.699 33.802 34.2522C30.2488 37.8054 25.5247 39.7621 20.5 39.7621C15.4753 39.7621 10.7512 37.8054 7.198 34.2522C3.64484 30.699 1.68805 25.9749 1.68805 20.9502C1.68805 18.5656 2.12872 16.241 2.99695 14.0413C3.11749 13.7361 2.96796 13.391 2.66248 13.2704C2.35791 13.1502 2.01245 13.2997 1.89191 13.6049C0.968445 15.9444 0.5 18.4154 0.5 20.9502C0.5 26.2923 2.58038 31.3149 6.35785 35.0923C10.1353 38.8698 15.1579 40.9502 20.5 40.9502C25.8421 40.9502 30.8647 38.8698 34.6422 35.0923C38.4196 31.3149 40.5 26.2923 40.5 20.9502C40.5 15.6081 38.4196 10.5855 34.6422 6.80804Z" fill="#050C0D"/>
<path d="M28.9797 8.48224C26.4751 6.77539 23.543 5.87299 20.5001 5.87299C12.1865 5.87299 5.42285 12.6366 5.42285 20.9502C5.42285 23.9931 6.32526 26.9252 8.0321 29.4298C8.13159 29.576 8.2912 29.67 8.46729 29.6865C8.4859 29.6883 8.50452 29.6892 8.52283 29.6892C8.67969 29.6892 8.83106 29.6273 8.94305 29.5153L29.0651 9.39319C29.1902 9.26807 29.2528 9.09381 29.2363 8.91772C29.2199 8.74164 29.1259 8.58203 28.9797 8.48224ZM13.9211 15.7555C14.3245 18.2277 15.2257 19.988 15.8321 20.9459L12.7242 24.0538C12.4532 20.945 13.2323 17.8105 13.9211 15.7555ZM17.5423 19.2357C17.9048 16.0759 19.2711 13.5457 20.4412 11.8978C21.1687 10.873 21.9008 10.0682 22.4593 9.51343C22.5157 10.8046 22.7837 12.1254 23.2677 13.5103L17.5423 19.2357ZM24.2092 12.5688C23.7383 11.043 23.5595 9.6059 23.666 8.20056C23.6837 7.96649 23.5619 7.74402 23.3553 7.63293C23.1487 7.52155 22.896 7.54199 22.7101 7.68573C22.6442 7.73669 21.0787 8.9577 19.4966 11.176C18.1929 13.004 16.6631 15.8461 16.3289 19.4167C15.6539 18.0858 14.9007 15.9697 14.9007 13.1465C14.9007 12.8698 14.7097 12.6299 14.4399 12.5676C14.1701 12.5057 13.8936 12.6381 13.7725 12.8868C13.6461 13.1472 10.7369 19.2241 11.6564 25.1216L8.62354 28.1545C7.30457 25.9871 6.6109 23.5115 6.6109 20.9502C6.6109 13.2918 12.8417 7.06104 20.5001 7.06104C23.0614 7.06104 25.537 7.7547 27.7043 9.07367L24.2092 12.5688Z" fill="#050C0D"/>
<path d="M11.7624 32.9827C11.7788 33.1591 11.8731 33.3187 12.0193 33.4182C14.5236 35.1254 17.4563 36.0275 20.4995 36.0275C28.8125 36.0275 35.5758 29.2638 35.5758 20.9502C35.5758 17.9079 34.6737 14.9758 32.9675 12.4709C32.8677 12.3248 32.7084 12.2305 32.532 12.214C32.3547 12.1972 32.1814 12.2601 32.0562 12.3852L11.9336 32.5072C11.8087 32.6324 11.7459 32.8066 11.7624 32.9827ZM14.7555 31.3656C16.3195 32.7801 18.4497 33.5442 20.6759 33.5442C21.5973 33.5442 22.5351 33.4136 23.4561 33.1435C26.5747 32.2298 28.7628 29.9468 29.309 27.0361C29.5309 25.8541 29.5782 24.8144 29.4537 23.8573C29.4116 23.532 29.1134 23.3028 28.7881 23.345C28.4628 23.3871 28.2333 23.6852 28.2757 24.0105C28.3838 24.8418 28.3398 25.7598 28.1414 26.8169C27.6791 29.2791 25.8029 31.2179 23.1219 32.0034C20.3915 32.8036 17.5058 32.2204 15.5972 30.5239L26.38 19.7417C26.8158 20.5001 27.2277 21.2267 27.5988 21.9494C27.7038 22.1545 27.9119 22.2723 28.1277 22.2723C28.219 22.2723 28.3117 22.2512 28.3984 22.2067C28.6905 22.0568 28.8055 21.6988 28.6557 21.4071C28.2269 20.5715 27.7523 19.7436 27.25 18.8717L32.3761 13.746C33.6944 15.9139 34.3878 18.3895 34.3878 20.9502C34.3878 28.6086 28.1576 34.8394 20.4995 34.8394C17.9379 34.8394 15.462 34.1457 13.2943 32.8268L14.7555 31.3656Z" fill="#050C0D"/>
</g>
<defs>
<clipPath id="clip0_135_155">
<rect width="40" height="40" fill="white" transform="translate(0.5 0.950195)"/>
</clipPath>
</defs>
</svg>
