<svg width="41" height="41" viewBox="0 0 41 41" fill="none" xmlns="http://www.w3.org/2000/svg">
<g clip-path="url(#clip0_135_171)">
<path d="M20.4999 35.7001C28.6461 35.7001 35.2498 29.0963 35.2498 20.9502C35.2498 12.804 28.6461 6.20026 20.4999 6.20026C12.3538 6.20026 5.75 12.804 5.75 20.9502C5.75 29.0963 12.3538 35.7001 20.4999 35.7001Z" fill="#FFE773"/>
<path d="M10.7499 23.4502C10.7499 26.9947 12.0007 30.2476 14.0845 32.7913C14.5499 33.3594 13.8825 34.1564 13.2434 33.7946C8.7802 31.2678 5.76455 26.4813 5.75005 20.9902C5.72864 12.9033 12.2993 6.26185 20.3859 6.20069C22.5269 6.18452 24.5633 6.62443 26.4038 7.42935C27.077 7.72376 26.8362 8.73442 26.1021 8.703C17.9542 8.35417 10.7499 14.88 10.7499 23.4502Z" fill="#FFF0A6"/>
<path d="M25.6642 15.706V20.6193C25.6642 23.4718 23.3517 25.7834 20.5001 25.7834C17.5845 25.7834 15.3359 23.4199 15.3359 20.6193V15.706H25.6642Z" fill="#FFF0A6"/>
<path d="M21.6648 24.3602C22.3364 24.5406 22.3361 25.4976 21.6582 25.6531C18.4158 26.3965 15.3359 23.9291 15.3359 20.6194V15.7061H17.8359V19.3694C17.8359 21.7906 19.4892 23.7758 21.6648 24.3602Z" fill="#FFF8D6"/>
<path d="M34.0129 16.9675C34.1168 17.3208 34.4879 17.5228 34.8406 17.419C35.1939 17.315 35.396 16.9445 35.292 16.5912C33.4201 10.2297 27.532 5.53369 20.5006 5.53369C11.9998 5.53369 5.08398 12.4496 5.08398 20.9503C5.08398 29.451 11.9998 36.3668 20.5006 36.3668C29.0013 36.3668 35.9171 29.451 35.9171 20.9503C35.9171 20.5821 35.6186 20.2836 35.2505 20.2836C34.8823 20.2836 34.5838 20.5821 34.5838 20.9503C34.5838 28.7158 28.2661 35.0335 20.5006 35.0335C12.735 35.0335 6.41731 28.7158 6.41731 20.9503C6.41731 13.1847 12.735 6.86702 20.5006 6.86702C26.7064 6.86693 32.263 11.0205 34.0129 16.9675Z" fill="#050C0D"/>
<path d="M39.8327 20.2835H37.8327C37.4645 20.2835 37.166 20.582 37.166 20.9502C37.166 21.3183 37.4645 21.6168 37.8327 21.6168H39.8327C40.2008 21.6168 40.4993 21.3183 40.4993 20.9502C40.4993 20.582 40.2008 20.2835 39.8327 20.2835Z" fill="#050C0D"/>
<path d="M1.16666 21.6168H3.16665C3.53481 21.6168 3.83331 21.3183 3.83331 20.9502C3.83331 20.582 3.53481 20.2835 3.16665 20.2835H1.16666C0.798498 20.2835 0.5 20.582 0.5 20.9502C0.5 21.3183 0.798498 21.6168 1.16666 21.6168Z" fill="#050C0D"/>
<path d="M11.2568 6.27248C11.4411 6.59181 11.8488 6.7004 12.1674 6.51648C12.4863 6.3324 12.5956 5.92465 12.4114 5.60582L10.5781 2.43042C10.3941 2.11167 9.98644 2.00226 9.66744 2.18642C9.34861 2.37051 9.23928 2.77825 9.42344 3.09708L11.2568 6.27248Z" fill="#050C0D"/>
<path d="M29.7441 35.6279C29.5601 35.3091 29.1525 35.1997 28.8335 35.3839C28.5146 35.568 28.4053 35.9757 28.5895 36.2945L30.4228 39.4699C30.5462 39.6838 30.7703 39.8033 31.0008 39.8033C31.5079 39.8033 31.8356 39.2503 31.5774 38.8033L29.7441 35.6279Z" fill="#050C0D"/>
<path d="M12.1662 35.3839C11.8474 35.1998 11.4396 35.309 11.2556 35.6279L9.42225 38.8033C9.16441 39.2497 9.49108 39.8033 9.99891 39.8033C10.2293 39.8033 10.4534 39.6837 10.5769 39.4699L12.4102 36.2945C12.5944 35.9757 12.4851 35.5679 12.1662 35.3839Z" fill="#050C0D"/>
<path d="M28.8334 6.51646C29.1508 6.69979 29.5592 6.59271 29.7441 6.27246L31.5774 3.09707C31.7616 2.77823 31.6522 2.37049 31.3334 2.1864C31.0145 2.00232 30.6067 2.11157 30.4227 2.4304L28.5894 5.6058C28.4053 5.92463 28.5146 6.33238 28.8334 6.51646Z" fill="#050C0D"/>
<path d="M40.1661 31.5348L35.8439 29.0394C35.5251 28.8553 35.1173 28.9645 34.9332 29.2834C34.749 29.6022 34.8584 30.0099 35.1772 30.194L39.4994 32.6894C39.8168 32.8728 40.2252 32.7657 40.4101 32.4454C40.5943 32.1266 40.4849 31.7189 40.1661 31.5348Z" fill="#050C0D"/>
<path d="M0.833419 10.3655L5.15564 12.8609C5.47306 13.0442 5.88139 12.9371 6.0663 12.6169C6.25047 12.298 6.14114 11.8903 5.8223 11.7062L1.50008 9.21081C1.18125 9.02665 0.773502 9.1359 0.58942 9.45481C0.405338 9.77364 0.514587 10.1814 0.833419 10.3655Z" fill="#050C0D"/>
<path d="M35.8439 12.861L40.1661 10.3656C40.4849 10.1815 40.5943 9.77373 40.4101 9.4549C40.2261 9.13615 39.8183 9.02673 39.4994 9.2109L35.1772 11.7063C34.8584 11.8904 34.749 12.2981 34.9332 12.617C35.1175 12.9362 35.5253 13.0448 35.8439 12.861Z" fill="#050C0D"/>
<path d="M5.15576 29.0395L0.833456 31.5349C0.514624 31.719 0.405292 32.1267 0.589457 32.4455C0.773789 32.7649 1.18154 32.8735 1.50012 32.6895L5.82234 30.1941C6.14117 30.0101 6.25051 29.6023 6.06634 29.2835C5.88234 28.9647 5.47468 28.8554 5.15576 29.0395Z" fill="#050C0D"/>
<path d="M20.5006 4.28357C20.8688 4.28357 21.1673 3.98507 21.1673 3.61691V1.61692C21.1673 1.24875 20.8688 0.950256 20.5006 0.950256C20.1325 0.950256 19.834 1.24875 19.834 1.61692V3.61691C19.834 3.98515 20.1325 4.28357 20.5006 4.28357Z" fill="#050C0D"/>
<path d="M20.5006 37.6167C20.1325 37.6167 19.834 37.9152 19.834 38.2834V40.2833C19.834 40.6515 20.1325 40.95 20.5006 40.95C20.8688 40.95 21.1673 40.6515 21.1673 40.2833V38.2834C21.1673 37.9152 20.8688 37.6167 20.5006 37.6167Z" fill="#050C0D"/>
<path d="M26.3307 20.6195V16.3725H26.4018C26.77 16.3725 27.0685 16.074 27.0685 15.7058C27.0685 15.3377 26.77 15.0392 26.4018 15.0392H24.2091V11.0336C24.2091 10.6654 23.9106 10.3669 23.5424 10.3669C23.1743 10.3669 22.8758 10.6654 22.8758 11.0336V15.0392H18.1243V11.0336C18.1243 10.6654 17.8258 10.3669 17.4576 10.3669C17.0895 10.3669 16.791 10.6654 16.791 11.0336V15.0392H14.5983C14.2301 15.0392 13.9316 15.3377 13.9316 15.7058C13.9316 16.074 14.2301 16.3725 14.5983 16.3725H24.9974V20.6195C24.9974 23.0993 22.9799 25.1169 20.5 25.1169C18.0201 25.1169 16.0026 23.0994 16.0026 20.6195V20.0443C16.0026 19.6761 15.7041 19.3776 15.336 19.3776C14.9678 19.3776 14.6693 19.6761 14.6693 20.0443V20.6195C14.6693 23.5784 16.8855 26.0279 19.7448 26.3996C19.8052 26.7498 19.92 27.0738 20.0894 27.3669C20.9828 28.9135 22.6395 28.5844 23.4536 29.7488C23.8747 30.351 24.011 31.2367 23.7852 31.9027C23.6384 32.3358 23.962 32.7836 24.4167 32.7836C24.6945 32.7836 24.9537 32.6086 25.0479 32.3309C25.4125 31.2555 25.2157 29.9421 24.5462 28.9848C23.3785 27.3148 21.5528 27.7447 21.1191 26.417C24.0442 26.1067 26.3307 23.6253 26.3307 20.6195Z" fill="#050C0D"/>
<path d="M20.8366 18.0984C20.5039 17.9399 20.1064 18.0812 19.9481 18.4136L18.9561 20.4969C18.7456 20.9387 19.0683 21.4502 19.558 21.4502H20.387L19.8489 22.5802C19.6367 23.0258 19.9659 23.5337 20.4503 23.5337C20.6995 23.5337 20.9384 23.3933 21.0527 23.1534L22.0448 21.0701C22.2552 20.6283 21.9325 20.1168 21.4429 20.1168H20.6139L21.152 18.9868C21.3102 18.6544 21.1691 18.2566 20.8366 18.0984Z" fill="#050C0D"/>
</g>
<defs>
<clipPath id="clip0_135_171">
<rect width="40" height="40" fill="white" transform="translate(0.5 0.950195)"/>
</clipPath>
</defs>
</svg>
