<svg width="41" height="41" viewBox="0 0 41 41" fill="none" xmlns="http://www.w3.org/2000/svg">
<g clip-path="url(#clip0_136_192)">
<path d="M19.1665 40.2835C29.1068 40.2835 37.165 31.6284 37.165 20.9517C37.165 10.2751 29.1068 1.61993 19.1665 1.61993C9.22618 1.61993 1.16797 10.2751 1.16797 20.9517C1.16797 31.6284 9.22618 40.2835 19.1665 40.2835Z" fill="white"/>
<path d="M21.8345 40.2835C31.7748 40.2835 39.833 31.6284 39.833 20.9517C39.833 10.2751 31.7748 1.61993 21.8345 1.61993C11.8942 1.61993 3.83594 10.2751 3.83594 20.9517C3.83594 31.6284 11.8942 40.2835 21.8345 40.2835Z" fill="#FFA800"/>
<path d="M20.4999 40.2835C30.0721 40.2835 37.8318 31.6284 37.8318 20.9517C37.8318 10.2751 30.0721 1.61993 20.4999 1.61993C10.9277 1.61993 3.16797 10.2751 3.16797 20.9517C3.16797 31.6284 10.9277 40.2835 20.4999 40.2835Z" fill="#FEDD0A"/>
<path d="M32.499 20.6517V25.618C32.4621 26.3194 31.8676 26.8604 31.1658 26.8312H9.83422C9.13248 26.8604 8.53792 26.3194 8.50097 25.618V20.6517C8.4427 15.9113 11.007 11.5262 15.1671 9.25266V9.05932C15.1732 8.80215 15.3419 8.57733 15.587 8.49944L18.5002 7.43945V6.83286C18.518 6.25736 18.9341 5.77193 19.5001 5.66632C19.6082 5.63405 19.7205 5.61827 19.8334 5.6196H21.1667C21.8693 5.58796 22.4653 6.13034 22.4999 6.83286V7.43945L25.4129 8.49944C25.6581 8.57725 25.8268 8.80215 25.8329 9.05932V9.25266C29.993 11.5261 32.5574 15.9113 32.499 20.6517Z" fill="#FC7308"/>
<path d="M30.4992 20.6517V25.618C30.4622 26.3194 29.8677 26.8604 29.1659 26.8312H9.83422C9.13248 26.8604 8.53792 26.3194 8.50097 25.618V20.6517C8.4427 15.9113 11.007 11.5262 15.1671 9.25267V9.05932C15.1732 8.80216 15.3419 8.57733 15.587 8.49945L18.5002 7.43946V6.83287C18.518 6.25737 18.9341 5.77194 19.5001 5.66632C20.066 5.77202 20.4821 6.25744 20.5 6.83287V7.43946L23.4131 8.49945C23.6582 8.57725 23.827 8.80216 23.8331 9.05932V9.25267C27.9931 11.5262 30.5575 15.9113 30.4992 20.6517Z" fill="#FFA800"/>
<path d="M35.1654 23.7981V27.1312C35.1654 27.2338 35.1586 27.3362 35.1454 27.4378C34.7853 30.8109 28.3659 32.2841 20.4999 32.2841C20.1666 32.2841 19.8333 32.2841 19.5 32.2707C26.906 32.1574 32.7989 30.6642 33.1455 27.4377C33.1588 27.3361 33.1655 27.2336 33.1655 27.1311V23.798C33.1576 23.3517 32.9001 22.9474 32.4989 22.7515V22.5849H33.8322C34.5339 22.5557 35.1284 23.0967 35.1654 23.7981Z" fill="#FC7308"/>
<path d="M33.165 23.7981V27.1312C33.165 27.2337 33.1583 27.3362 33.145 27.4378C32.7984 30.6643 26.9055 32.1575 19.4995 32.2708C12.0935 32.1575 6.20059 30.6643 5.85398 27.4378C5.8407 27.3362 5.83398 27.2337 5.83398 27.1312V23.7981C5.84195 23.3517 6.09943 22.9475 6.50057 22.7515C6.7054 22.6412 6.93452 22.5839 7.16716 22.5849H8.50041V25.618C8.53728 26.3195 9.13184 26.8605 9.83366 26.8313H31.1653C31.867 26.8605 32.4616 26.3195 32.4985 25.618V22.7516C32.8996 22.9475 33.1571 23.3517 33.165 23.7981Z" fill="#FFA800"/>
<path d="M20.4995 40.95C10.5301 40.9224 2.09308 33.5794 0.689915 23.7093C0.665621 23.5342 0.711945 23.3566 0.818655 23.2157C0.925365 23.0748 1.08379 22.9821 1.25885 22.958C1.43431 22.9313 1.6132 22.9766 1.75467 23.0838C1.89614 23.1909 1.98832 23.3508 2.01012 23.5269C3.36329 33.2407 12.0034 40.2503 21.7875 39.5721C31.5715 38.8939 39.1618 30.7592 39.1618 20.9517C39.1618 11.1442 31.5715 3.0094 21.7875 2.33117C12.0034 1.65295 3.36329 8.66261 2.01012 18.3763C1.98778 18.5523 1.89552 18.7118 1.75412 18.8188C1.61273 18.9258 1.43423 18.9714 1.25885 18.9453C1.08371 18.9212 0.925365 18.8285 0.818655 18.6876C0.711945 18.5466 0.665621 18.3691 0.689915 18.194C2.16292 7.6091 11.6974 0.0525312 22.339 1.03604C32.9805 2.01956 40.9686 11.1958 40.4766 21.8714C39.9846 32.547 31.1864 40.9494 20.4995 40.95Z" fill="#050C0D"/>
<path d="M1.16859 21.6183C0.945563 21.6206 0.73644 21.5101 0.612778 21.3244C0.489038 21.1388 0.467477 20.9034 0.555361 20.6984C0.587467 20.6168 0.635042 20.5421 0.695271 20.4783C0.759016 20.418 0.833697 20.3705 0.915331 20.3384C1.07751 20.2713 1.2596 20.2713 1.42177 20.3384C1.50255 20.3723 1.57692 20.4196 1.64183 20.4783C1.70074 20.5431 1.74808 20.6176 1.78182 20.6984C1.86963 20.9034 1.84799 21.1388 1.72425 21.3244C1.60059 21.5099 1.39162 21.6204 1.16859 21.6183Z" fill="#050C0D"/>
<path d="M31.1668 27.4967H9.8353C8.76516 27.5278 7.87117 26.6879 7.83547 25.618V20.6548C7.76141 15.6627 10.4673 11.0429 14.8577 8.66559C15.1834 8.49483 15.5858 8.61997 15.7571 8.94534C15.9284 9.2707 15.8039 9.67332 15.4787 9.84518C11.5271 11.9927 9.09575 16.1579 9.16872 20.6548V25.618C9.20957 25.9486 9.50306 26.1888 9.8353 26.1635H31.1669C31.4992 26.1888 31.7927 25.9486 31.8335 25.618V20.6548C31.9065 16.1579 29.4751 11.9927 25.5235 9.84518C25.1984 9.67332 25.0738 9.2707 25.2451 8.94534C25.4164 8.61997 25.8188 8.49475 26.1445 8.66559C30.5349 11.0429 33.2407 15.6627 33.1667 20.6548V25.618C33.131 26.6879 32.237 27.5278 31.1668 27.4967Z" fill="#050C0D"/>
<path d="M23.1668 13.5584C23.001 13.5586 22.841 13.4968 22.7183 13.3852L22.0517 12.7791C21.913 12.6526 21.8338 12.4735 21.8336 12.2857V6.83174C21.7966 6.49887 21.5006 6.25655 21.167 6.28623H19.8338C19.5002 6.25663 19.204 6.49895 19.1672 6.83174V12.2857C19.167 12.4735 19.0879 12.6527 18.9491 12.7792L18.2825 13.3853C18.1063 13.5462 17.8576 13.6006 17.6303 13.5281C17.4029 13.4556 17.2317 13.2672 17.1812 13.034C17.1306 12.8009 17.2085 12.5585 17.3854 12.3984L17.834 11.9908V6.83174C17.8697 5.76175 18.7637 4.92189 19.8338 4.95298H21.1671C22.2372 4.92189 23.1312 5.76175 23.1669 6.83174V11.9908L23.6155 12.3984C23.8194 12.5836 23.8884 12.8752 23.7891 13.1322C23.6896 13.3892 23.4424 13.5585 23.1668 13.5584Z" fill="#050C0D"/>
<path d="M15.1666 19.6184C14.9897 19.6185 14.8201 19.5484 14.6951 19.4233C14.5701 19.2982 14.4999 19.1286 14.5 18.9519V9.06204C14.5076 8.52302 14.8523 8.04658 15.362 7.87073L18.2719 6.81152C18.6177 6.68567 19.0002 6.8641 19.1259 7.20993C19.2517 7.55576 19.0735 7.93823 18.7275 8.064L15.8333 9.1179V18.9518C15.8333 19.1286 15.7632 19.2982 15.6381 19.4232C15.513 19.5484 15.3434 19.6185 15.1666 19.6184Z" fill="#050C0D"/>
<path d="M25.8331 19.6184C25.6563 19.6185 25.4867 19.5484 25.3617 19.4233C25.2366 19.2982 25.1665 19.1286 25.1666 18.9519V9.11798L22.2723 8.06408C21.9267 7.93808 21.7486 7.55584 21.8743 7.21017C22.0001 6.86449 22.3822 6.68607 22.7279 6.81161L25.6411 7.87207C26.1493 8.04846 26.4926 8.5242 26.4998 9.06205V18.9519C26.4999 19.1287 26.4297 19.2983 26.3047 19.4233C26.1795 19.5484 26.0099 19.6185 25.8331 19.6184Z" fill="#050C0D"/>
<path d="M5.85479 28.1028C5.48255 28.1046 5.17734 27.8083 5.16797 27.4362V23.7998C5.20367 22.7298 6.09766 21.8899 7.1678 21.921H8.50105C8.86923 21.921 9.16764 22.2194 9.16764 22.5876C9.16764 22.9558 8.86915 23.2542 8.50105 23.2542H7.1678C6.83557 23.2288 6.542 23.469 6.50122 23.7997V27.3215C6.53567 27.5138 6.48372 27.7115 6.3592 27.862C6.2346 28.0126 6.05016 28.1007 5.85479 28.1028Z" fill="#050C0D"/>
<path d="M35.1651 28.1027C34.7948 28.1038 34.4928 27.8064 34.4881 27.4362C34.4882 27.3966 34.4917 27.3573 34.4985 27.3184V23.7997C34.4576 23.4691 34.1641 23.2288 33.8319 23.2542H32.4986C32.1304 23.2542 31.832 22.9557 31.832 22.5877C31.832 22.2195 32.1304 21.9211 32.4986 21.9211H33.8319C34.902 21.89 35.796 22.7298 35.8317 23.7998V27.4362C35.8318 27.6131 35.7616 27.7827 35.6366 27.9077C35.5116 28.0327 35.342 28.1029 35.1651 28.1027Z" fill="#050C0D"/>
<path d="M20.5 32.9507C16.072 32.9507 5.71606 32.4201 5.19204 27.5071C5.17571 27.383 5.16767 27.258 5.16798 27.1328C5.16798 26.7646 5.46647 26.4662 5.83456 26.4662C6.20266 26.4662 6.50115 26.7646 6.50115 27.1328C6.50107 27.205 6.50584 27.2773 6.51545 27.3489C6.7973 29.988 12.155 31.6175 20.5 31.6175C28.845 31.6175 34.2026 29.9881 34.4826 27.3653C34.4933 27.2882 34.4988 27.2106 34.4989 27.1329C34.4989 26.7647 34.7973 26.4663 35.1654 26.4663C35.5336 26.4663 35.832 26.7647 35.832 27.1329C35.8321 27.2635 35.8234 27.394 35.806 27.5234C35.2839 32.4201 24.928 32.9507 20.5 32.9507Z" fill="#050C0D"/>
</g>
<defs>
<clipPath id="clip0_136_192">
<rect width="40" height="40" fill="white" transform="translate(0.5 0.950195)"/>
</clipPath>
</defs>
</svg>
