<svg width="41" height="41" viewBox="0 0 41 41" fill="none" xmlns="http://www.w3.org/2000/svg">
<path fill-rule="evenodd" clip-rule="evenodd" d="M28.3125 15.1689V30.0127C28.3125 30.8756 29.0121 31.5752 29.875 31.5752H34.5625C35.4253 31.5752 36.125 30.8756 36.125 30.0127V15.1689C36.125 9.73238 31.7178 5.3252 26.2812 5.3252C20.8447 5.3252 16.75 9.73238 16.75 15.1689V18.7627V24.3877V26.7314C16.75 27.6807 15.668 28.4502 14.7188 28.4502C13.7695 28.4502 12.6875 27.6807 12.6875 26.7314V11.8877C12.6875 11.0248 11.9879 10.3252 11.125 10.3252H6.4375C5.57456 10.3252 4.875 11.0248 4.875 11.8877V26.7314C4.875 32.168 9.28219 36.5752 14.7188 36.5752C20.1553 36.5752 24.25 32.168 24.25 26.7314V24.3877V18.7627V15.1689C24.25 14.2197 25.332 13.4502 26.2812 13.4502C27.2305 13.4502 28.3125 14.2197 28.3125 15.1689Z" fill="#027EF1"/>
<path d="M27.6875 20.9502C27.6875 24.9197 24.4695 28.1377 20.5 28.1377C16.5305 28.1377 13.3125 24.9197 13.3125 20.9502C13.3125 16.9807 16.5305 13.7627 20.5 13.7627C24.4695 13.7627 27.6875 16.9807 27.6875 20.9502Z" fill="#FFBA33"/>
<path d="M21.7347 17.0642C21.2466 16.5761 20.4551 16.5761 19.967 17.0642L19.5251 17.5062C18.6189 18.4123 18.3856 19.7364 18.825 20.8578L17.3153 22.3675C16.8272 22.8557 16.8272 23.6471 17.3153 24.1353C17.8035 24.6235 18.5949 24.6235 19.0831 24.1353L20.5928 22.6256C21.7142 23.065 23.0383 22.8317 23.9445 21.9256L24.3864 21.4836C24.8746 20.9955 24.8746 20.204 24.3864 19.7159C23.8982 19.2277 23.1068 19.2277 22.6186 19.7159L22.1767 20.1578C21.9326 20.4019 21.5369 20.4019 21.2928 20.1578C21.0487 19.9137 21.0487 19.518 21.2928 19.2739L21.7347 18.832C22.2229 18.3438 22.2229 17.5524 21.7347 17.0642Z" fill="#050C0D"/>
<path fill-rule="evenodd" clip-rule="evenodd" d="M9.875 6.5752C9.875 5.88485 9.31534 5.3252 8.625 5.3252C7.93466 5.3252 7.375 5.88485 7.375 6.5752V7.41357C6.98403 7.27538 6.56328 7.2002 6.125 7.2002C5.43466 7.2002 4.875 7.75985 4.875 8.4502C4.875 9.14054 5.43466 9.7002 6.125 9.7002C6.58769 9.7002 6.99166 9.95157 7.20778 10.3252H6.4375C5.57456 10.3252 4.875 11.0248 4.875 11.8877V26.7314C4.875 32.168 9.28219 36.5752 14.7188 36.5752C19.7817 36.5752 23.6809 32.753 24.1929 27.8365C26.6452 26.5187 28.3125 23.9291 28.3125 20.9502V30.0127C28.3125 30.8756 29.0121 31.5752 29.875 31.5752H30.9578C30.7416 31.9488 30.3377 32.2002 29.875 32.2002C29.1847 32.2002 28.625 32.7599 28.625 33.4502C28.625 34.1405 29.1847 34.7002 29.875 34.7002C30.3133 34.7002 30.734 34.6249 31.125 34.4868V35.3252C31.125 36.0155 31.6847 36.5752 32.375 36.5752C33.0653 36.5752 33.625 36.0155 33.625 35.3252V34.4868C34.0159 34.6249 34.4366 34.7002 34.875 34.7002C35.5653 34.7002 36.125 34.1405 36.125 33.4502C36.125 32.7599 35.5653 32.2002 34.875 32.2002C34.4122 32.2002 34.0084 31.9488 33.7922 31.5752H34.5625C35.4253 31.5752 36.125 30.8756 36.125 30.0127V15.1689C36.125 9.73238 31.7178 5.3252 26.2812 5.3252C21.2183 5.3252 17.3191 9.14751 16.8071 14.0639C14.3548 15.3817 12.6875 17.9713 12.6875 20.9502V11.8877C12.6875 11.0248 11.9879 10.3252 11.125 10.3252H10.0422C10.2583 9.95157 10.6623 9.7002 11.125 9.7002C11.8153 9.7002 12.375 9.14054 12.375 8.4502C12.375 7.75985 11.8153 7.2002 11.125 7.2002C10.6867 7.2002 10.266 7.27538 9.875 7.41357V6.5752ZM12.6875 20.9502C12.6875 23.7704 14.1818 26.2415 16.4218 27.6151C16.0287 28.1154 15.3449 28.4502 14.7188 28.4502C13.7695 28.4502 12.6875 27.6807 12.6875 26.7314V20.9502ZM28.3125 20.9502C28.3125 18.13 26.8182 15.6589 24.5782 14.2853C24.9713 13.785 25.6551 13.4502 26.2812 13.4502C27.2305 13.4502 28.3125 14.2197 28.3125 15.1689V20.9502ZM18.7754 28.5717C18.4693 29.1308 18.0545 29.5773 17.6512 29.8997C16.8682 30.5255 15.8207 30.9502 14.7188 30.9502C13.6168 30.9502 12.5693 30.5255 11.7863 29.8997C11.0084 29.2779 10.1875 28.1943 10.1875 26.7314V12.8252H7.375V26.7314C7.375 30.7873 10.6629 34.0752 14.7188 34.0752C18.0195 34.0752 20.7121 31.8555 21.5093 28.6981C21.1789 28.7407 20.842 28.7627 20.5 28.7627C19.9074 28.7627 19.3302 28.6967 18.7754 28.5717ZM19.4907 13.2023C19.8211 13.1597 20.158 13.1377 20.5 13.1377C21.0926 13.1377 21.6698 13.2037 22.2246 13.3287C22.5307 12.7696 22.9455 12.3231 23.3488 12.0007C24.1318 11.3749 25.1793 10.9502 26.2812 10.9502C27.3832 10.9502 28.4307 11.3749 29.2137 12.0007C29.9916 12.6224 30.8125 13.7061 30.8125 15.1689V29.0752H33.625V15.1689C33.625 11.1131 30.3371 7.8252 26.2812 7.8252C22.9805 7.8252 20.2879 10.0449 19.4907 13.2023ZM25.8125 20.9502C25.8125 23.8842 23.434 26.2627 20.5 26.2627C17.566 26.2627 15.1875 23.8842 15.1875 20.9502C15.1875 18.0162 17.566 15.6377 20.5 15.6377C23.434 15.6377 25.8125 18.0162 25.8125 20.9502Z" fill="#050C0D"/>
</svg>
