<svg width="24" height="25" viewBox="0 0 24 25" fill="none" xmlns="http://www.w3.org/2000/svg">
<path d="M12 19C11.586 19 11.25 18.664 11.25 18.25V10.5C11.25 10.086 11.586 9.75 12 9.75C12.414 9.75 12.75 10.086 12.75 10.5V18.25C12.75 18.664 12.414 19 12 19Z" fill="black"/>
<path d="M12 19.5007C11.834 19.5007 11.668 19.4457 11.531 19.3357C10.399 18.4297 9.332 18.2617 8.362 18.8387C7.985 19.0637 7.529 19.0677 7.14 18.8467C6.745 18.6227 6.5 18.2027 6.5 17.7507V10.7137C6.5 10.1737 6.741 9.66672 7.146 9.35672C8.631 8.21672 10.337 8.20872 12 9.32072C13.662 8.20972 15.369 8.21672 16.854 9.35572C17.258 9.66572 17.5 10.1727 17.5 10.7127V17.7497C17.5 18.2017 17.255 18.6217 16.859 18.8467C16.471 19.0687 16.016 19.0637 15.637 18.8387C14.667 18.2607 13.601 18.4297 12.468 19.3357C12.332 19.4457 12.166 19.5007 12 19.5007ZM9.525 17.0017C10.342 17.0017 11.18 17.2767 12 17.8217C13.34 16.9297 14.731 16.7607 16 17.3377V10.7127C16 10.6317 15.971 10.5677 15.942 10.5457C14.887 9.73672 13.718 9.83672 12.468 10.8357C12.195 11.0557 11.804 11.0557 11.53 10.8357C10.28 9.83572 9.112 9.73672 8.056 10.5457C8.029 10.5677 8 10.6327 8 10.7127V17.3377C8.493 17.1137 9.006 17.0017 9.525 17.0017Z" fill="black"/>
<path d="M21.25 23.5H2.75C1.233 23.5 0 22.267 0 20.75V4.25C0 2.733 1.233 1.5 2.75 1.5H21.25C22.767 1.5 24 2.733 24 4.25V20.75C24 22.267 22.767 23.5 21.25 23.5ZM2.75 3C2.061 3 1.5 3.561 1.5 4.25V20.75C1.5 21.439 2.061 22 2.75 22H21.25C21.939 22 22.5 21.439 22.5 20.75V4.25C22.5 3.561 21.939 3 21.25 3H2.75Z" fill="black"/>
<path d="M23.25 6.5H0.75C0.336 6.5 0 6.164 0 5.75C0 5.336 0.336 5 0.75 5H23.25C23.664 5 24 5.336 24 5.75C24 6.164 23.664 6.5 23.25 6.5Z" fill="black"/>
</svg>
