<svg width="39" height="43" viewBox="0 0 39 43" fill="none" xmlns="http://www.w3.org/2000/svg">
<path fill-rule="evenodd" clip-rule="evenodd" d="M13.0489 40.1274C9.32492 39.0757 5.42609 38.5452 1.64397 38.0592C0.829355 37.9573 0.0730442 38.5259 0.0148577 39.3269C-0.101515 40.1286 0.480691 40.8617 1.23712 40.9636C4.90286 41.4314 8.68465 41.9321 12.234 42.9445C12.9904 43.1641 13.8054 42.7121 14.0381 41.9344C14.2709 41.1574 13.8053 40.3476 13.0489 40.1274Z" fill="#262626"/>
<path fill-rule="evenodd" clip-rule="evenodd" d="M24.3375 25.2172C18.3443 19.0623 11.5947 13.6997 5.71783 7.37973C5.19415 6.78948 4.26317 6.75786 3.6813 7.30888C3.09944 7.86048 3.04148 8.78801 3.62334 9.37826C9.50018 15.7164 16.2498 21.0966 22.243 27.2696C22.8249 27.8458 23.7556 27.854 24.3375 27.2872C24.8612 26.7209 24.9194 25.7934 24.3375 25.2172Z" fill="#262626"/>
<path fill-rule="evenodd" clip-rule="evenodd" d="M35.5681 1.54341C35.7427 5.06616 35.9169 8.58891 36.0915 12.1123C36.0915 12.9192 36.7901 13.5422 37.6047 13.503C38.4193 13.4631 39.0008 12.7763 39.0008 11.9688C38.8262 8.44018 38.652 4.91216 38.4775 1.38413C38.4193 0.577224 37.7209 -0.0417174 36.9063 0.00219986C36.1499 0.0461172 35.5099 0.737085 35.5681 1.54341Z" fill="#262626"/>
</svg>
