<svg width="10" height="17" viewBox="0 0 10 17" fill="none" xmlns="http://www.w3.org/2000/svg">
<path d="M0.0429688 3.55499C0.0429688 1.69249 1.55547 0.179993 3.41797 0.179993C5.28047 0.179993 6.79297 1.69249 6.79297 3.55499V10.93C6.79297 12.1737 5.78672 13.18 4.54297 13.18C3.29922 13.18 2.29297 12.1737 2.29297 10.93V4.92999C2.29297 4.51436 2.62734 4.17999 3.04297 4.17999C3.4586 4.17999 3.79297 4.51436 3.79297 4.92999V10.93C3.79297 11.3456 4.12734 11.68 4.54297 11.68C4.9586 11.68 5.29297 11.3456 5.29297 10.93V3.55499C5.29297 2.52062 4.45234 1.67999 3.41797 1.67999C2.3836 1.67999 1.54297 2.52062 1.54297 3.55499V11.68C1.54297 13.3362 2.88672 14.68 4.54297 14.68C6.19917 14.68 7.54297 13.3362 7.54297 11.68V4.92999C7.54297 4.51436 7.87737 4.17999 8.29297 4.17999C8.70857 4.17999 9.04297 4.51436 9.04297 4.92999V11.68C9.04297 14.1644 7.02737 16.18 4.54297 16.18C2.05859 16.18 0.0429688 14.1644 0.0429688 11.68V3.55499Z" fill="#9696A2"/>
</svg>
