<svg width="32" height="33" viewBox="0 0 32 33" fill="none" xmlns="http://www.w3.org/2000/svg">
<path d="M26.9998 21.37L26.9998 20.7L27.9998 20.7C28.2684 20.7002 28.5343 20.6462 28.7816 20.5413C29.029 20.4365 29.2526 20.2829 29.4393 20.0897C29.626 19.8965 29.7718 19.6677 29.8681 19.4169C29.9644 19.1661 30.0092 18.8985 29.9998 18.63L29.9998 14.37C30.0092 14.1015 29.9644 13.8339 29.8681 13.5831C29.7718 13.3323 29.626 13.1035 29.4393 12.9103C29.2526 12.7171 29.029 12.5635 28.7816 12.4587C28.5343 12.3538 28.2684 12.2998 27.9998 12.3L26.9998 12.24L26.9998 11.63C27.0158 10.8174 26.7091 10.0316 26.1467 9.44491C25.5843 8.85818 24.8123 8.51837 23.9998 8.5L4.99975 8.5C4.18724 8.51837 3.41516 8.85817 2.85279 9.44491C2.29043 10.0316 1.98366 10.8174 1.99975 11.63L1.99975 21.37C1.98366 22.1826 2.29043 22.9684 2.85279 23.5551C3.41516 24.1418 4.18724 24.4816 4.99975 24.5L23.9998 24.5C24.8123 24.4816 25.5843 24.1418 26.1467 23.5551C26.7091 22.9684 27.0158 22.1826 26.9998 21.37ZM4.99975 22.5C4.71855 22.4795 4.45653 22.3497 4.26968 22.1386C4.08282 21.9275 3.98595 21.6516 3.99975 21.37L3.99975 11.63C3.98595 11.3484 4.08282 11.0725 4.26968 10.8614C4.45653 10.6502 4.71855 10.5205 4.99975 10.5L23.9998 10.5C24.281 10.5205 24.543 10.6502 24.7298 10.8614C24.9167 11.0725 25.0136 11.3484 24.9998 11.63L24.9998 12.24C24.9917 12.5076 25.0375 12.7742 25.1344 13.0238C25.2313 13.2734 25.3774 13.501 25.5639 13.6932C25.7504 13.8853 25.9736 14.038 26.2203 14.1422C26.4669 14.2465 26.732 14.3001 26.9998 14.3L27.9998 14.3L27.9998 18.7L26.9998 18.7C26.732 18.6999 26.4669 18.7535 26.2203 18.8578C25.9736 18.962 25.7504 19.1147 25.5639 19.3068C25.3774 19.499 25.2313 19.7266 25.1344 19.9762C25.0375 20.2258 24.9917 20.4924 24.9998 20.76L24.9998 21.37C25.0136 21.6516 24.9167 21.9275 24.7298 22.1386C24.543 22.3498 24.281 22.4795 23.9998 22.5L4.99975 22.5ZM15.9998 20.5C15.7345 20.5 15.4802 20.3946 15.2926 20.2071C15.1051 20.0196 14.9998 19.7652 14.9998 19.5L14.9998 17.5L12.9998 17.5C12.7345 17.5 12.4802 17.3946 12.2926 17.2071C12.1051 17.0196 11.9998 16.7652 11.9998 16.5C11.9998 16.2348 12.1051 15.9804 12.2926 15.7929C12.4802 15.6054 12.7345 15.5 12.9998 15.5L14.9998 15.5L14.9998 13.5C14.9998 13.2348 15.1051 12.9804 15.2926 12.7929C15.4802 12.6054 15.7345 12.5 15.9998 12.5C16.265 12.5 16.5193 12.6054 16.7069 12.7929C16.8944 12.9804 16.9998 13.2348 16.9998 13.5L16.9998 15.5L18.9998 15.5C19.265 15.5 19.5193 15.6054 19.7069 15.7929C19.8944 15.9804 19.9998 16.2348 19.9998 16.5C19.9998 16.7652 19.8944 17.0196 19.7069 17.2071C19.5193 17.3946 19.265 17.5 18.9998 17.5L16.9998 17.5L16.9998 19.5C16.9998 19.7652 16.8944 20.0196 16.7069 20.2071C16.5193 20.3946 16.265 20.5 15.9998 20.5Z" fill="#C2C2C2"/>
</svg>
