<svg width="24" height="25" viewBox="0 0 24 25" fill="none" xmlns="http://www.w3.org/2000/svg">
<path d="M3.36133 13.5179L9.12133 5.83789" stroke="black" stroke-width="2.304"/>
<path d="M3.36133 13.5176L8.16133 21.1976" stroke="black" stroke-width="2.304"/>
<path d="M6.24047 10.6367H0.480469V16.3967H6.24047V10.6367Z" fill="black"/>
<path d="M4.32039 12.5566H2.40039V14.4766H4.32039V12.5566Z" fill="white"/>
<path d="M12.0002 2.95703H6.24023V8.71703H12.0002V2.95703Z" fill="black"/>
<path d="M12.0002 18.3164H6.24023V24.0764H12.0002V18.3164Z" fill="black"/>
<path d="M13.1523 9.86914H20.4483V14.4799L17.7631 17.1652H13.1523V9.86914Z" fill="white" stroke="#F7C325" stroke-width="2.304"/>
<path d="M10.0802 4.87695H8.16016V6.79695H10.0802V4.87695Z" fill="white"/>
<path d="M10.0802 20.2363H8.16016V22.1563H10.0802V20.2363Z" fill="white"/>
<path d="M15.8398 12.5566L23.5198 14.3883L17.6715 20.2366L15.8398 12.5566Z" fill="black"/>
<path d="M20.1973 16.9102L22.5616 19.2745" stroke="black" stroke-width="2.304"/>
</svg>
