<svg xmlns:xlink="http://www.w3.org/1999/xlink" xmlns="http://www.w3.org/2000/svg" xmlns:v="https://vecta.io/nano" width="192" height="192" fill="none"><g clip-path="url(#A)"><path d="M67.318 17.074C82.373.249 109.573 3.52 120.211 23.434l6.402 11.984c4.596 8.604 10.667 16.335 17.937 22.84l10.124 9.06c16.825 15.055 13.555 42.255-6.36 52.893l-11.983 6.402c-8.605 4.596-16.335 10.667-22.84 17.937l-9.06 10.124c-15.056 16.825-42.256 13.555-52.894-6.36l-6.401-11.983a83.34 83.34 0 0 0-17.937-22.84l-10.125-9.06C.249 89.376 3.52 62.175 23.434 51.537l11.984-6.402c8.604-4.596 16.335-10.667 22.84-17.937l9.06-10.125z" fill="#29cc57"/><path d="M127.444 88.798c-1.055 8.775-9.023 15.033-17.798 13.978l-34.424-4.139c-8.775-1.055-15.033-9.024-13.978-17.798l3.463-28.797 66.2 7.96-3.463 28.797z" fill="#fff"/><path d="M97.399 101.303l12.413 1.493a15.84 15.84 0 0 0 17.612-13.832l1.493-12.412-28.135-3.383-3.383 28.135z" fill="#000"/><path d="M15.287 9.327l35.401 61.316-1.155 14.203-12.878-6.101L1.255 17.429l14.033-8.102z" fill="#fff"/><path d="M23.502 23.551l26.251 45.468-5.294.472-1.964 3.242-3.773.07-2.997 4.316L9.473 31.651l14.028-8.099z" fill="#ff8d23"/><path fill="#000" d="M9.516 31.728l14.028-8.099-2.744-4.753-14.028 8.099z"/><path fill="#ff5c5c" d="M6.772 26.975L20.8 18.876l-5.513-9.549-14.028 8.099z"/><path d="M42.978 81.593l7.016-4.051-.46 7.304-6.556-3.253z" fill="#000"/><path fill="#ce6809" d="M132.636 104.22l58.145 11.483-13.655 69.145-58.145-11.483z"/><g fill="gray"><path d="M143.307 99.796l39.287 7.759-1.241 6.286-39.287-7.759z"/><path d="M159.31 93.16l11 2.172-1.862 9.429-11-2.172z"/></g></g><defs><clipPath id="A"><path fill="#fff" d="M0 0h192v192H0z"/></clipPath></defs></svg>