<svg width="18" height="17" viewBox="0 0 18 17" fill="none" xmlns="http://www.w3.org/2000/svg">
<path d="M11.5075 0.613228C11.0027 0.607178 10.4468 0.607178 9.83596 0.607178H8.12896C6.59847 0.60717 5.3988 0.60717 4.44703 0.710286C3.47574 0.815519 2.68876 1.03411 2.01683 1.5223C1.61003 1.81785 1.2523 2.17559 0.956751 2.58238C0.827909 2.75971 0.716726 2.94663 0.621109 3.14506C0.312584 3.78534 0.175076 4.52806 0.108093 5.41471C0.0416261 6.29457 0.0416261 7.37443 0.0416261 8.70793V8.76984C0.0416178 10.3003 0.0416177 11.5 0.144734 12.4518C0.249968 13.4231 0.468559 14.21 0.956751 14.882C1.2523 15.2888 1.61003 15.6465 2.01683 15.942C2.68876 16.4303 3.47574 16.6488 4.44703 16.7541C5.39878 16.8572 6.59843 16.8572 8.12888 16.8572H9.87104C11.4015 16.8572 12.6011 16.8572 13.5529 16.7541C14.5242 16.6488 15.3111 16.4303 15.9831 15.942C16.3899 15.6465 16.7476 15.2888 17.0431 14.882C17.5314 14.21 17.75 13.4231 17.8552 12.4518C17.9583 11.5 17.9583 10.3003 17.9583 8.76993V8.72934C17.9583 8.10984 17.9583 7.54684 17.952 7.03643C17.9477 6.69128 17.6645 6.41494 17.3193 6.4192C16.9741 6.42348 16.6978 6.70674 16.702 7.05189C16.7083 7.55384 16.7083 8.10951 16.7083 8.73218C16.7083 10.3085 16.7075 11.4405 16.6125 12.3172C16.5187 13.1821 16.3395 13.7239 16.0319 14.1473C15.8135 14.4479 15.549 14.7123 15.2484 14.9308C14.825 15.2383 14.2832 15.4176 13.4183 15.5113C12.5416 15.6063 11.4096 15.6072 9.83329 15.6072H8.16663C6.59032 15.6072 5.45828 15.6063 4.58166 15.5113C3.71673 15.4176 3.17489 15.2383 2.75155 14.9308C2.45088 14.7123 2.18648 14.4479 1.96803 14.1473C1.66045 13.7239 1.48117 13.1821 1.38746 12.3172C1.29248 11.4405 1.29163 10.3085 1.29163 8.73218C1.29163 7.36951 1.29203 6.33629 1.35454 5.50888C1.38118 5.15627 1.41854 4.85185 1.46888 4.58499L2.69926 5.81536C4.05948 7.17559 5.12548 8.24159 6.06903 8.96151C7.0348 9.69834 7.94538 10.1313 8.99996 10.1313C10.609 10.1313 11.906 9.11826 13.5991 7.49534C13.8483 7.25651 13.8567 6.86085 13.6178 6.61166C13.379 6.36248 12.9833 6.3541 12.7341 6.59296C11.0025 8.25284 10.0443 8.88126 8.99996 8.88126C8.32863 8.88126 7.68188 8.61976 6.82725 7.96776C5.95824 7.30468 4.95073 6.29906 3.54934 4.89768L1.96833 3.31667C2.18673 3.01619 2.45103 2.75192 2.75155 2.53358C3.17489 2.226 3.71673 2.04672 4.58166 1.95301C5.45828 1.85804 6.59032 1.85718 8.16663 1.85718H9.83329C10.4472 1.85718 10.996 1.85719 11.4925 1.86314C11.8376 1.86728 12.1208 1.59083 12.1249 1.24568C12.129 0.90052 11.8526 0.61737 11.5075 0.613228Z" fill="white"/>
<path fill-rule="evenodd" clip-rule="evenodd" d="M15.6667 0.607178C14.401 0.607178 13.375 1.63319 13.375 2.89884C13.375 4.16449 14.401 5.19051 15.6667 5.19051C16.9323 5.19051 17.9583 4.16449 17.9583 2.89884C17.9583 1.63319 16.9323 0.607178 15.6667 0.607178ZM14.625 2.89884C14.625 2.32354 15.0913 1.85718 15.6667 1.85718C16.242 1.85718 16.7083 2.32354 16.7083 2.89884C16.7083 3.47414 16.242 3.94051 15.6667 3.94051C15.0913 3.94051 14.625 3.47414 14.625 2.89884Z" fill="white"/>
</svg>
