<svg width="24" height="25" viewBox="0 0 24 25" fill="none" xmlns="http://www.w3.org/2000/svg">
<path d="M7.80078 15.668H1.80078V22.868H7.80078V15.668Z" fill="#F7C325"/>
<path d="M15 12.0684H9V22.8684H15V12.0684Z" fill="#F7C325"/>
<path d="M22.2031 8.46875H16.2031V22.8688H22.2031V8.46875Z" fill="#F7C325"/>
<path d="M4.79844 12.6672C6.12392 12.6672 7.19844 11.5927 7.19844 10.2672C7.19844 8.9417 6.12392 7.86719 4.79844 7.86719C3.47295 7.86719 2.39844 8.9417 2.39844 10.2672C2.39844 11.5927 3.47295 12.6672 4.79844 12.6672Z" fill="black"/>
<path d="M12.0016 9.06758C13.327 9.06758 14.4016 7.99306 14.4016 6.66758C14.4016 5.34209 13.327 4.26758 12.0016 4.26758C10.6761 4.26758 9.60156 5.34209 9.60156 6.66758C9.60156 7.99306 10.6761 9.06758 12.0016 9.06758Z" fill="black"/>
<path d="M19.1969 5.46797C20.5224 5.46797 21.5969 4.39345 21.5969 3.06797C21.5969 1.74249 20.5224 0.667969 19.1969 0.667969C17.8714 0.667969 16.7969 1.74249 16.7969 3.06797C16.7969 4.39345 17.8714 5.46797 19.1969 5.46797Z" fill="black"/>
<path d="M4.25977 10.3953L18.6597 3.19531" stroke="black" stroke-width="2.4"/>
</svg>
