<svg width="24" height="25" viewBox="0 0 24 25" fill="none" xmlns="http://www.w3.org/2000/svg">
<path d="M5.89373 7.13993C7.29123 5.29289 9.50709 4.10076 11.9995 4.10076C16.2252 4.10076 19.6507 7.52631 19.6507 11.752H22.2007C22.2007 6.118 17.6335 1.55078 11.9995 1.55078C8.95269 1.55078 6.21931 2.88625 4.35076 5.00232V3.28398H1.80078V9.68991H8.20671V7.13993H5.89373Z" fill="#F7C325"/>
<path d="M18.1077 17.0651C16.7102 18.9122 14.4944 20.1043 12.0019 20.1043C7.77631 20.1043 4.35076 16.6788 4.35076 12.4531H1.80078C1.80078 18.0871 6.368 22.6543 12.0019 22.6543C15.0488 22.6543 17.7822 21.3188 19.6507 19.2027V20.9211H22.2007V14.5151H15.7948V17.0651H18.1077Z" fill="#F7C325"/>
<path d="M8.10156 11.484L10.6192 14.6035L16.4127 9.92773" stroke="black" stroke-width="2.4"/>
</svg>
