<svg width="24" height="25" viewBox="0 0 24 25" fill="none" xmlns="http://www.w3.org/2000/svg">
<path d="M6.6 17.3379H3V23.9379H6.6V17.3379Z" fill="#F7C325"/>
<path fill-rule="evenodd" clip-rule="evenodd" d="M14.2132 5.88672L6.27344 9.8566L0.601562 9.85742V17.7972H6.27509L14.2132 21.7663V5.88672Z" fill="#F7C325"/>
<path d="M21.0011 14.9941H17.0312V17.2626H21.0011V14.9941Z" fill="black"/>
<path d="M20.1685 6.60881L16.7305 8.59375L17.8647 10.5583L21.3027 8.57339L20.1685 6.60881Z" fill="black"/>
<path d="M19.3521 22.9127L15.9141 20.9277L17.0483 18.9632L20.4863 20.9481L19.3521 22.9127Z" fill="black"/>
<path d="M17.2382 1.26758H17.5617C18.951 1.26758 20.2834 1.81946 21.2657 2.80182C22.2481 3.78418 22.8 5.11654 22.8 6.50581V6.82935C22.8 8.21861 22.2481 9.55097 21.2657 10.5334C20.2834 11.5157 18.951 12.0676 17.5617 12.0676H17.2382C15.8489 12.0676 14.5166 11.5157 13.5342 10.5334C12.5519 9.55098 12 8.21861 12 6.82934V6.50581C12 5.11654 12.5519 3.78418 13.5342 2.80182C14.5166 1.81946 15.8489 1.26758 17.2382 1.26758Z" fill="#F7C325" stroke="black" stroke-width="2.4"/>
<path d="M13.8008 10.2684L21.0008 3.06836" stroke="black" stroke-width="2.4"/>
</svg>
