<svg width="24" height="25" viewBox="0 0 24 25" fill="none" xmlns="http://www.w3.org/2000/svg">
<g clip-path="url(#clip0_227_89)">
<path d="M7.06836 21.6846H16.9111V11.7949H7.06836V21.6846ZM8.47447 17.4194H11.2867V20.2785H8.47447V17.4194ZM12.6928 20.2785V17.4194H15.505V20.2785H12.6928ZM15.505 16.0133H12.6928V13.201H15.505V16.0133ZM11.2867 13.201V16.0133H8.47447V13.201H11.2867Z" fill="#262626"/>
<path d="M21.1292 1.95215H16.9109V4.27233L11.9884 0.503906L0 9.70193L2.67339 12.9598L2.84981 12.8263V24.4968H21.1292V12.8089L21.3309 12.9612L24 9.6994L21.1292 7.50169V1.95215ZM18.317 3.35826H19.7231V6.42522L18.317 5.3488V3.35826ZM19.7231 23.0907H4.25592V11.7619L11.9907 5.90721L19.7231 11.7469V23.0907ZM21.0991 11.024L11.9897 4.14442L2.90273 11.0227L2.00863 9.93314L11.9893 2.27546L21.9919 9.93295L21.0991 11.024Z" fill="#262626"/>
</g>
<defs>
<clipPath id="clip0_227_89">
<rect width="24" height="24" fill="white" transform="translate(0 0.5)"/>
</clipPath>
</defs>
</svg>
