<svg width="24" height="25" viewBox="0 0 24 25" fill="none" xmlns="http://www.w3.org/2000/svg">
<path d="M5.28125 7.04847L9.14722 2.95703H14.8553L18.7212 7.04847V12.3056L14.8553 16.397H9.14722L5.28125 12.3056V7.04847Z" fill="#F7C325"/>
<path d="M15.8402 13.5156H8.16016V17.3556H15.8402V13.5156Z" fill="#F7C325"/>
<path d="M15.8402 17.3555H8.16016V21.1955H10.0802H13.9202H15.8402V17.3555Z" fill="black"/>
<path d="M13.9201 20.2363H10.0801V23.1163H11.0401H12.9601H13.9201V20.2363Z" fill="black"/>
<path d="M18.7207 4.69076L20.7572 2.6543L22.1148 4.01194L20.0783 6.04841L18.7207 4.69076Z" fill="#F7C325"/>
<path d="M18.7207 16.7932L20.7572 18.8297L22.1148 17.472L20.0783 15.4355L18.7207 16.7932Z" fill="#F7C325"/>
<path d="M5.28083 4.69076L3.24436 2.6543L1.88672 4.01194L3.92319 6.04841L5.28083 4.69076Z" fill="#F7C325"/>
<path d="M5.28083 16.7932L3.24436 18.8297L1.88672 17.472L3.92319 15.4355L5.28083 16.7932Z" fill="#F7C325"/>
<path d="M20.6406 9.67578H23.5206V11.5958H20.6406V9.67578Z" fill="#F7C325"/>
<path d="M3.36047 9.67578H0.480469L0.480469 11.5958H3.36047V9.67578Z" fill="#F7C325"/>
<path d="M12.9598 7.75586H15.8398V11.5959H12.9598V7.75586Z" fill="white"/>
</svg>
