<svg width="64" height="65" viewBox="0 0 64 65" fill="none" xmlns="http://www.w3.org/2000/svg">
<g clip-path="url(#clip0_227_176)">
<path d="M33.6011 0.5V2.9125C34.3261 2.9125 35.4761 3.4125 35.4761 4.7625V26.5375C35.4761 27.875 36.5511 28.95 37.8886 28.95H55.2636C56.2761 28.95 57.1011 29.775 57.1011 30.7875C57.1011 31.225 56.9511 31.65 56.6636 31.975L31.7636 61.425C31.4386 61.8375 30.9261 62.0875 30.4011 62.0875C29.6761 62.0875 28.5261 61.5875 28.5261 60.2375V38.4625C28.5261 37.125 27.4511 36.05 26.1136 36.05H8.73858C7.72608 36.05 6.90108 35.225 6.90108 34.2125C6.90108 33.775 7.05108 33.35 7.33858 33.025L32.2511 3.575C32.5761 3.1625 33.0761 2.9125 33.6136 2.9125V0.5M33.6011 0.5C32.3636 0.5 31.1886 1.05 30.3886 2.0125L5.48858 31.475C3.15108 34.2375 5.11358 38.4625 8.73858 38.4625H26.1011V60.2375C26.1011 62.825 28.2136 64.5 30.3886 64.5C31.6261 64.5 32.8136 63.95 33.6011 62.9875L58.5011 33.525C60.8386 30.7625 58.8761 26.5375 55.2511 26.5375H37.9011V4.7625C37.9011 2.175 35.7886 0.5 33.6011 0.5Z" fill="#C2C2C2"/>
</g>
<defs>
<clipPath id="clip0_227_176">
<rect width="64" height="64" fill="white" transform="translate(0 0.5)"/>
</clipPath>
</defs>
</svg>
