<svg width="18" height="19" viewBox="0 0 18 19" fill="none" xmlns="http://www.w3.org/2000/svg">
<path fill-rule="evenodd" clip-rule="evenodd" d="M8.99996 2.16968C5.34355 2.16968 2.35413 5.203 2.35413 8.97639C2.35413 10.8791 3.11517 12.9863 4.36048 14.6135C5.60901 16.245 7.2615 17.2947 8.99996 17.2947C10.7384 17.2947 12.3909 16.245 13.6395 14.6135C14.8848 12.9863 15.6458 10.8791 15.6458 8.97639C15.6458 5.203 12.6564 2.16968 8.99996 2.16968ZM0.979126 8.97639C0.979126 4.47189 4.55619 0.794678 8.99996 0.794678C13.4437 0.794678 17.0208 4.47189 17.0208 8.97639C17.0208 11.2126 16.1402 13.6083 14.7314 15.4492C13.3258 17.2859 11.3116 18.6697 8.99996 18.6697C6.68833 18.6697 4.67415 17.2859 3.26854 15.4492C1.8597 13.6083 0.979126 11.2126 0.979126 8.97639Z" fill="white"/>
<path fill-rule="evenodd" clip-rule="evenodd" d="M6.02075 8.3571C6.02075 6.71174 7.35459 5.37793 8.99992 5.37793C10.6452 5.37793 11.9791 6.71174 11.9791 8.3571C11.9791 10.0024 10.6452 11.3363 8.99992 11.3363C7.35459 11.3363 6.02075 10.0024 6.02075 8.3571ZM8.99992 6.75293C8.11396 6.75293 7.39575 7.47114 7.39575 8.3571C7.39575 9.24305 8.11396 9.96126 8.99992 9.96126C9.88588 9.96126 10.6041 9.24305 10.6041 8.3571C10.6041 7.47114 9.88588 6.75293 8.99992 6.75293Z" fill="white"/>
</svg>
