<svg width="24" height="25" viewBox="0 0 24 25" fill="none" xmlns="http://www.w3.org/2000/svg">
<path d="M23.5212 11.596L17.7612 5.83594H11.0412L5.28125 11.596V18.316L11.0412 24.076H17.7612L23.5212 18.316V11.596Z" fill="#F7C325"/>
<path d="M20.6402 12.6578L16.6991 8.7168H12.1012L8.16016 12.6578V17.2557L12.1012 21.1968H16.6991L20.6402 17.2557V12.6578Z" fill="white"/>
<path d="M17.7591 13.7178L15.637 11.5957H13.1611L11.0391 13.7178V16.1936L13.1611 18.3157H15.637L17.7591 16.1936V13.7178Z" fill="#F7C325"/>
<path d="M14.7893 15.348L7.10938 13.5163L12.9576 7.66797L14.7893 15.348Z" fill="black"/>
<path d="M3.23242 2.91813L5.17985 0.970703L8.15992 3.91657V7.75657L3.23242 2.91813Z" fill="#F7C325"/>
<path d="M2.42985 3.91602L0.482422 5.86344L3.36172 8.71602H7.20172L2.42985 3.91602Z" fill="#F7C325"/>
<path d="M12.4795 13.0361L1.43945 1.99609" stroke="black" stroke-width="2.304"/>
</svg>
