<svg width="24" height="24" viewBox="0 0 24 24" fill="none" xmlns="http://www.w3.org/2000/svg">
<path d="M23.5212 10.8167L17.7612 5.05664H11.0412L5.28125 10.8167V17.5367L11.0412 23.2967H17.7612L23.5212 17.5367V10.8167Z" fill="#F7C325"/>
<path d="M20.6402 11.8785L16.6991 7.9375H12.1012L8.16016 11.8785V16.4764L12.1012 20.4175H16.6991L20.6402 16.4764V11.8785Z" fill="white"/>
<path d="M17.7591 12.9385L15.637 10.8164H13.1611L11.0391 12.9385V15.4143L13.1611 17.5364H15.637L17.7591 15.4143V12.9385Z" fill="#F7C325"/>
<path d="M14.7893 14.5687L7.10938 12.737L12.9576 6.88867L14.7893 14.5687Z" fill="black"/>
<path d="M3.23242 2.13883L5.17985 0.191406L8.15992 3.13727V6.97727L3.23242 2.13883Z" fill="#F7C325"/>
<path d="M2.42985 3.13672L0.482422 5.08415L3.36172 7.93672H7.20172L2.42985 3.13672Z" fill="#F7C325"/>
<path d="M12.4795 12.2568L1.43945 1.2168" stroke="black" stroke-width="2.304"/>
</svg>
