<svg width="18" height="19" viewBox="0 0 18 19" fill="none" xmlns="http://www.w3.org/2000/svg">
<path fill-rule="evenodd" clip-rule="evenodd" d="M5.43585 1.4593C4.47143 0.573135 2.98904 0.573135 2.02463 1.4593C1.98513 1.4956 1.94297 1.53777 1.88822 1.59253L1.06551 2.41523C0.237659 3.24309 -0.109867 4.43652 0.144104 5.5794C1.58508 12.0638 6.64924 17.1279 13.1336 18.5689C14.2765 18.8229 15.4699 18.4753 16.2978 17.6475L17.1204 16.8249C17.1752 16.7701 17.2174 16.7279 17.2537 16.6884C18.1399 15.724 18.1399 14.2415 17.2537 13.2772C17.2174 13.2376 17.1752 13.1954 17.1204 13.1407L15.7736 11.7938C14.8385 10.8588 13.4263 10.5913 12.2141 11.1197C11.5201 11.4222 10.7116 11.2692 10.1763 10.7338L7.9792 8.53675C7.44387 8.00142 7.29079 7.19295 7.59329 6.49894C8.12165 5.28668 7.85426 3.87453 6.91916 2.93944L5.57227 1.59255C5.51752 1.53778 5.47535 1.4956 5.43585 1.4593ZM2.95496 2.47178C3.39333 2.06897 4.06714 2.06897 4.50551 2.47178C4.52065 2.48569 4.54048 2.50529 4.61021 2.57503L5.94689 3.91171C6.48222 4.44704 6.63533 5.2555 6.33281 5.9495C5.80439 7.16177 6.07183 8.57388 7.00692 9.50897L9.20396 11.7061C10.1391 12.6412 11.5513 12.9086 12.7635 12.3801C13.4575 12.0777 14.266 12.2308 14.8013 12.7662L16.138 14.1028C16.2077 14.1725 16.2273 14.1924 16.2412 14.2075C16.644 14.6459 16.644 15.3197 16.2412 15.7581C16.2273 15.7732 16.2077 15.793 16.138 15.8628L15.3255 16.6752C14.8301 17.1707 14.1158 17.3786 13.4319 17.2267C7.46871 15.9015 2.81152 11.2443 1.48636 5.28112C1.33438 4.59716 1.54235 3.88294 2.03778 3.38751L2.85027 2.57503C2.91999 2.5053 2.93983 2.48569 2.95496 2.47178Z" fill="white"/>
<path d="M11.1112 3.53125C11.1715 3.53126 11.1994 3.53132 11.2227 3.53165C13.3307 3.56183 15.0322 5.26335 15.0624 7.37129C15.0627 7.39795 15.0628 7.43068 15.0628 7.51065V8.02916C15.0628 8.40894 15.3705 8.71666 15.7503 8.71666C16.13 8.71666 16.4378 8.40894 16.4378 8.02916V7.50399C16.4378 7.43276 16.4378 7.38941 16.4373 7.3516C16.3964 4.49967 14.0944 2.19763 11.2424 2.15678C11.2046 2.15624 11.1613 2.15624 11.09 2.15625H10.5648C10.1851 2.15625 9.87732 2.46405 9.87732 2.84375C9.87732 3.22344 10.1851 3.53125 10.5648 3.53125H11.0834H11.1112Z" fill="white"/>
</svg>
